SplineFontDB: 3.2
FontName: KoreeneSans-Regular
FullName: Koreene Sans Regular
FamilyName: Koreene Sans
Weight: Book
Copyright: (C) Copyright HanYang I&C Co.,Ltd. All rights reserved.
Version: 2.50
ItalicAngle: 0
UnderlinePosition: -244
UnderlineWidth: 90
Ascent: 1638
Descent: 410
InvalidEm: 0
sfntRevision: 0x00020147
LayerCount: 2
Layer: 0 1 "Back" 1
Layer: 1 1 "Fore" 0
XUID: [1021 531 -1996577725 1197983]
StyleMap: 0x0040
FSType: 0
OS2Version: 4
OS2_WeightWidthSlopeOnly: 0
OS2_UseTypoMetrics: 1
CreationTime: 1068260456
ModificationTime: 1706985908
PfmFamily: 81
TTFWeight: 400
TTFWidth: 5
LineGap: 512
VLineGap: 0
Panose: 0 0 0 0 0 0 0 0 0 0
OS2TypoAscent: 1940
OS2TypoAOffset: 0
OS2TypoDescent: -470
OS2TypoDOffset: 0
OS2TypoLinegap: 512
OS2WinAscent: 2196
OS2WinAOffset: 0
OS2WinDescent: 726
OS2WinDOffset: 0
HheadAscent: 1940
HheadAOffset: 0
HheadDescent: -470
HheadDOffset: 0
OS2SubXSize: 410
OS2SubYSize: 410
OS2SubXOff: 0
OS2SubYOff: 574
OS2SupXSize: 410
OS2SupYSize: 410
OS2SupXOff: 0
OS2SupYOff: 1926
OS2StrikeYSize: 204
OS2StrikeYPos: 1024
OS2CapHeight: 1470
OS2XHeight: 1056
OS2Vendor: 'HY  '
OS2CodePages: 2000019f.00000000
OS2UnicodeRanges: e10002ff.4000001b.00000000.00000000
Lookup: 1 0 0 "'aalt' Access All Alternates lookup 0" { "'aalt' Access All Alternates lookup 0 subtable"  } ['aalt' ('DFLT' <'dflt' > 'cyrl' <'dflt' > 'grek' <'dflt' > 'hang' <'dflt' > 'jamo' <'dflt' > 'latn' <'dflt' > ) ]
Lookup: 3 0 0 "'aalt' Access All Alternates lookup 1" { "'aalt' Access All Alternates lookup 1 subtable"  } ['aalt' ('DFLT' <'dflt' > 'cyrl' <'dflt' > 'grek' <'dflt' > 'hang' <'dflt' > 'jamo' <'dflt' > 'latn' <'dflt' > ) ]
Lookup: 1 0 0 "'locl' Localized Forms in Latin lookup 2" { "'locl' Localized Forms in Latin lookup 2 subtable"  } ['locl' ('latn' <'MOL ' > ) ]
Lookup: 1 0 0 "'locl' Localized Forms in Latin lookup 3" { "'locl' Localized Forms in Latin lookup 3 subtable"  } ['locl' ('latn' <'ROM ' > ) ]

StartChar: exclam
Encoding: 33 33 4
Width: 620
GlyphClass: 2
Flags: W
LayerCount: 2
Fore
SplineSet
186 -20 m 1,0,-1
 186 206 l 1,1,-1
 434 206 l 1,2,-1
 434 -20 l 1,3,-1
 186 -20 l 1,0,-1
380 408 m 1,4,-1
 242 408 l 1,5,-1
 224 1472 l 1,6,-1
 398 1472 l 1,7,-1
 380 408 l 1,4,-1
EndSplineSet
EndChar

StartChar: quotedbl
Encoding: 34 34 5
Width: 976
GlyphClass: 2
Flags: W
LayerCount: 2
Fore
SplineSet
536 1074 m 1,0,-1
 696 1648 l 1,1,-1
 914 1648 l 1,2,-1
 660 1074 l 1,3,-1
 536 1074 l 1,0,-1
134 1074 m 1,4,-1
 294 1648 l 1,5,-1
 512 1648 l 1,6,-1
 258 1074 l 1,7,-1
 134 1074 l 1,4,-1
EndSplineSet
EndChar

StartChar: numbersign
Encoding: 35 35 6
Width: 1416
GlyphClass: 2
Flags: W
LayerCount: 2
Fore
SplineSet
96 404 m 1,0,-1
 96 522 l 1,1,-1
 352 522 l 1,2,-1
 404 906 l 1,3,-1
 158 906 l 1,4,-1
 158 1022 l 1,5,-1
 420 1022 l 1,6,-1
 472 1420 l 1,7,-1
 610 1420 l 1,8,-1
 558 1022 l 1,9,-1
 946 1022 l 1,10,-1
 998 1420 l 1,11,-1
 1136 1420 l 1,12,-1
 1084 1022 l 1,13,-1
 1322 1022 l 1,14,-1
 1322 906 l 1,15,-1
 1068 906 l 1,16,-1
 1018 522 l 1,17,-1
 1260 522 l 1,18,-1
 1260 404 l 1,19,-1
 1002 404 l 1,20,-1
 950 4 l 1,21,-1
 806 4 l 1,22,-1
 862 404 l 1,23,-1
 476 404 l 1,24,-1
 424 4 l 1,25,-1
 280 4 l 1,26,-1
 336 404 l 1,27,-1
 96 404 l 1,0,-1
492 522 m 1,28,-1
 878 522 l 1,29,-1
 930 906 l 1,30,-1
 542 906 l 1,31,-1
 492 522 l 1,28,-1
EndSplineSet
EndChar

StartChar: dollar
Encoding: 36 36 7
Width: 1174
GlyphClass: 2
Flags: W
LayerCount: 2
Fore
SplineSet
124 268 m 1,0,-1
 242 328 l 1,1,2
 300 238 300 238 397 184 c 128,-1,3
 494 130 494 130 592 130 c 0,4,5
 718 130 718 130 802 192 c 128,-1,6
 886 254 886 254 886 378 c 0,7,8
 886 416 886 416 876 448 c 128,-1,9
 866 480 866 480 853 504 c 128,-1,10
 840 528 840 528 811 553 c 128,-1,11
 782 578 782 578 762 592 c 128,-1,12
 742 606 742 606 695 630 c 128,-1,13
 648 654 648 654 624 664 c 128,-1,14
 600 674 600 674 539 698 c 128,-1,15
 478 722 478 722 454 734 c 0,16,17
 308 796 308 796 234 881 c 128,-1,18
 160 966 160 966 160 1104 c 0,19,20
 160 1234 160 1234 256 1339 c 128,-1,21
 352 1444 352 1444 518 1462 c 1,22,-1
 518 1626 l 1,23,-1
 662 1626 l 1,24,-1
 662 1460 l 1,25,26
 770 1454 770 1454 867 1385 c 128,-1,27
 964 1316 964 1316 1000 1232 c 1,28,-1
 884 1176 l 1,29,30
 768 1340 768 1340 588 1340 c 0,31,32
 464 1340 464 1340 390 1273 c 128,-1,33
 316 1206 316 1206 316 1102 c 0,34,35
 316 1042 316 1042 339 997 c 128,-1,36
 362 952 362 952 421 913 c 128,-1,37
 480 874 480 874 525 854 c 128,-1,38
 570 834 570 834 674 790 c 0,39,40
 754 760 754 760 808 730 c 128,-1,41
 862 700 862 700 922 653 c 128,-1,42
 982 606 982 606 1012 540 c 128,-1,43
 1042 474 1042 474 1042 392 c 0,44,45
 1042 220 1042 220 934 120 c 128,-1,46
 826 20 826 20 662 2 c 1,47,-1
 662 -152 l 1,48,-1
 518 -152 l 1,49,-1
 518 6 l 1,50,51
 404 14 404 14 293 85 c 128,-1,52
 182 156 182 156 124 268 c 1,0,-1
EndSplineSet
EndChar

StartChar: percent
Encoding: 37 37 8
Width: 1944
GlyphClass: 2
Flags: W
LayerCount: 2
Fore
SplineSet
1054 320 m 0,0,1
 1054 476 1054 476 1160 575 c 128,-1,2
 1266 674 1266 674 1428 674 c 0,3,4
 1592 674 1592 674 1698 575 c 128,-1,5
 1804 476 1804 476 1804 320 c 0,6,7
 1804 160 1804 160 1697 62 c 128,-1,8
 1590 -36 1590 -36 1428 -36 c 0,9,10
 1268 -36 1268 -36 1161 63 c 128,-1,11
 1054 162 1054 162 1054 320 c 0,0,1
1200 320 m 256,12,13
 1200 214 1200 214 1267 150 c 128,-1,14
 1334 86 1334 86 1428 86 c 256,15,16
 1522 86 1522 86 1590 151 c 128,-1,17
 1658 216 1658 216 1658 320 c 0,18,19
 1658 426 1658 426 1592 489 c 128,-1,20
 1526 552 1526 552 1428 552 c 0,21,22
 1332 552 1332 552 1266 489 c 128,-1,23
 1200 426 1200 426 1200 320 c 256,12,13
142 1152 m 0,24,25
 142 1310 142 1310 248 1408 c 128,-1,26
 354 1506 354 1506 516 1506 c 0,27,28
 680 1506 680 1506 786 1408 c 128,-1,29
 892 1310 892 1310 892 1152 c 0,30,31
 892 996 892 996 785 897 c 128,-1,32
 678 798 678 798 516 798 c 0,33,34
 356 798 356 798 249 897 c 128,-1,35
 142 996 142 996 142 1152 c 0,24,25
286 1152 m 256,36,37
 286 1046 286 1046 354 982 c 128,-1,38
 422 918 422 918 516 918 c 256,39,40
 610 918 610 918 678 983 c 128,-1,41
 746 1048 746 1048 746 1152 c 0,42,43
 746 1258 746 1258 680 1322 c 128,-1,44
 614 1386 614 1386 516 1386 c 0,45,46
 422 1386 422 1386 354 1322 c 128,-1,47
 286 1258 286 1258 286 1152 c 256,36,37
366 0 m 1,48,-1
 1418 1470 l 1,49,-1
 1578 1470 l 1,50,-1
 522 0 l 1,51,-1
 366 0 l 1,48,-1
EndSplineSet
EndChar

StartChar: ampersand
Encoding: 38 38 9
Width: 1282
GlyphClass: 2
Flags: W
LayerCount: 2
Fore
SplineSet
276 370 m 256,0,1
 276 244 276 244 360 169 c 128,-1,2
 444 94 444 94 576 94 c 0,3,4
 754 94 754 94 898 268 c 1,5,-1
 536 762 l 1,6,7
 420 682 420 682 348 589 c 128,-1,8
 276 496 276 496 276 370 c 256,0,1
120 368 m 0,9,10
 120 660 120 660 456 872 c 1,11,12
 450 882 450 882 436 898 c 0,13,14
 386 968 386 968 366 1001 c 128,-1,15
 346 1034 346 1034 328 1083 c 128,-1,16
 310 1132 310 1132 310 1188 c 0,17,18
 310 1312 310 1312 405 1401 c 128,-1,19
 500 1490 500 1490 672 1490 c 0,20,21
 932 1490 932 1490 1054 1242 c 1,22,-1
 934 1190 l 1,23,24
 898 1258 898 1258 829 1310 c 128,-1,25
 760 1362 760 1362 682 1362 c 0,26,27
 580 1362 580 1362 524 1310 c 128,-1,28
 468 1258 468 1258 468 1182 c 0,29,30
 468 1102 468 1102 583 929 c 128,-1,31
 698 756 698 756 978 392 c 1,32,33
 1038 514 1038 514 1068 680 c 1,34,-1
 1208 654 l 1,35,36
 1176 442 1176 442 1076 268 c 1,37,-1
 1282 0 l 1,38,-1
 1102 0 l 1,39,-1
 986 152 l 1,40,41
 812 -36 812 -36 570 -36 c 0,42,43
 356 -36 356 -36 238 80 c 128,-1,44
 120 196 120 196 120 368 c 0,9,10
EndSplineSet
EndChar

StartChar: quotesingle
Encoding: 39 39 10
Width: 602
GlyphClass: 2
Flags: W
LayerCount: 2
Fore
SplineSet
154 1074 m 1,0,-1
 314 1648 l 1,1,-1
 532 1648 l 1,2,-1
 276 1074 l 1,3,-1
 154 1074 l 1,0,-1
EndSplineSet
EndChar

StartChar: parenleft
Encoding: 40 40 11
Width: 892
GlyphClass: 2
Flags: W
LayerCount: 2
Fore
SplineSet
300 704 m 0,0,1
 300 1272 300 1272 642 1704 c 1,2,-1
 752 1642 l 1,3,4
 690 1548 690 1548 669 1513 c 128,-1,5
 648 1478 648 1478 595 1373 c 128,-1,6
 542 1268 542 1268 519 1187 c 128,-1,7
 496 1106 496 1106 475 976 c 128,-1,8
 454 846 454 846 454 704 c 0,9,10
 454 532 454 532 478 388 c 128,-1,11
 502 244 502 244 555 123 c 128,-1,12
 608 2 608 2 645 -64 c 128,-1,13
 682 -130 682 -130 752 -234 c 1,14,-1
 642 -294 l 1,15,16
 490 -98 490 -98 395 138 c 128,-1,17
 300 374 300 374 300 704 c 0,0,1
EndSplineSet
Substitution2: "'sups' Superscript lookup 5 subtable" uni207D
Substitution2: "'aalt' Access All Alternates lookup 0 subtable" uni207D
EndChar

StartChar: parenright
Encoding: 41 41 12
Width: 892
GlyphClass: 2
Flags: W
LayerCount: 2
Fore
SplineSet
140 -234 m 1,0,1
 286 -18 286 -18 362 194 c 128,-1,2
 438 406 438 406 438 704 c 0,3,4
 438 874 438 874 414 1015 c 128,-1,5
 390 1156 390 1156 339 1276 c 128,-1,6
 288 1396 288 1396 249 1466 c 128,-1,7
 210 1536 210 1536 140 1642 c 1,8,-1
 250 1704 l 1,9,10
 590 1270 590 1270 590 704 c 0,11,12
 590 378 590 378 496 141 c 128,-1,13
 402 -96 402 -96 250 -294 c 1,14,-1
 140 -234 l 1,0,1
EndSplineSet
Substitution2: "'sups' Superscript lookup 5 subtable" uni207E
Substitution2: "'aalt' Access All Alternates lookup 0 subtable" uni207E
EndChar

StartChar: asterisk
Encoding: 42 42 13
Width: 1116
GlyphClass: 2
Flags: W
LayerCount: 2
Fore
SplineSet
48 834 m 1,0,-1
 102 960 l 1,1,-1
 498 806 l 1,2,-1
 482 1200 l 1,3,-1
 632 1200 l 1,4,-1
 616 806 l 1,5,-1
 1012 960 l 1,6,-1
 1068 834 l 1,7,-1
 656 688 l 1,8,-1
 962 350 l 1,9,-1
 848 264 l 1,10,-1
 558 624 l 1,11,-1
 266 264 l 1,12,-1
 154 350 l 1,13,-1
 460 688 l 1,14,-1
 48 834 l 1,0,-1
EndSplineSet
EndChar

StartChar: plus
Encoding: 43 43 14
Width: 1116
GlyphClass: 2
Flags: W
LayerCount: 2
Fore
SplineSet
54 662 m 1,0,-1
 54 794 l 1,1,-1
 482 794 l 1,2,-1
 482 1216 l 1,3,-1
 632 1216 l 1,4,-1
 632 794 l 1,5,-1
 1060 794 l 1,6,-1
 1060 662 l 1,7,-1
 632 662 l 1,8,-1
 632 224 l 1,9,-1
 482 224 l 1,10,-1
 482 662 l 1,11,-1
 54 662 l 1,0,-1
EndSplineSet
Substitution2: "'sups' Superscript lookup 5 subtable" uni207A
Substitution2: "'aalt' Access All Alternates lookup 0 subtable" uni207A
EndChar

StartChar: comma
Encoding: 44 44 15
Width: 550
GlyphClass: 2
Flags: W
LayerCount: 2
Fore
SplineSet
28 -342 m 1,0,-1
 190 234 l 1,1,-1
 406 234 l 1,2,-1
 152 -342 l 1,3,-1
 28 -342 l 1,0,-1
EndSplineSet
EndChar

StartChar: hyphen
Encoding: 45 45 16
Width: 782
GlyphClass: 2
Flags: W
LayerCount: 2
Fore
SplineSet
66 662 m 1,0,-1
 66 794 l 1,1,-1
 714 794 l 1,2,-1
 714 662 l 1,3,-1
 66 662 l 1,0,-1
EndSplineSet
EndChar

StartChar: period
Encoding: 46 46 17
Width: 550
GlyphClass: 2
Flags: W
LayerCount: 2
Fore
SplineSet
152 0 m 1,0,-1
 152 234 l 1,1,-1
 400 234 l 1,2,-1
 400 0 l 1,3,-1
 152 0 l 1,0,-1
EndSplineSet
EndChar

StartChar: slash
Encoding: 47 47 18
Width: 676
GlyphClass: 2
Flags: W
LayerCount: 2
Fore
SplineSet
-26 -112 m 1,0,-1
 540 1562 l 1,1,-1
 700 1562 l 1,2,-1
 136 -112 l 1,3,-1
 -26 -112 l 1,0,-1
EndSplineSet
EndChar

StartChar: zero
Encoding: 48 48 19
Width: 1100
GlyphClass: 2
Flags: W
LayerCount: 2
Fore
SplineSet
252 734 m 0,0,1
 252 440 252 440 326 267 c 128,-1,2
 400 94 400 94 554 94 c 0,3,4
 636 94 636 94 695 146 c 128,-1,5
 754 198 754 198 786 290 c 128,-1,6
 818 382 818 382 833 491 c 128,-1,7
 848 600 848 600 848 734 c 0,8,9
 848 1028 848 1028 774 1203 c 128,-1,10
 700 1378 700 1378 550 1378 c 256,11,12
 400 1378 400 1378 326 1205 c 128,-1,13
 252 1032 252 1032 252 734 c 0,0,1
90 734 m 0,14,15
 90 1134 90 1134 222 1320 c 128,-1,16
 354 1506 354 1506 550 1506 c 0,17,18
 766 1506 766 1506 887 1307 c 128,-1,19
 1008 1108 1008 1108 1008 734 c 0,20,21
 1008 510 1008 510 962 341 c 128,-1,22
 916 172 916 172 812 68 c 128,-1,23
 708 -36 708 -36 554 -36 c 0,24,25
 356 -36 356 -36 223 155 c 128,-1,26
 90 346 90 346 90 734 c 0,14,15
EndSplineSet
EndChar

StartChar: one
Encoding: 49 49 20
Width: 1100
GlyphClass: 2
Flags: W
LayerCount: 2
Fore
SplineSet
200 1114 m 1,0,-1
 200 1230 l 1,1,-1
 259 1230 l 2,2,3
 422 1230 422 1230 482 1280 c 0,4,5
 541 1329 541 1329 541 1423 c 2,6,-1
 541 1470 l 1,7,-1
 670 1470 l 1,8,-1
 670 0 l 1,9,-1
 514 0 l 1,10,-1
 514 1114 l 1,11,-1
 200 1114 l 1,0,-1
EndSplineSet
Substitution2: "'subs' Subscript lookup 6 subtable" uni2081
Substitution2: "'sups' Superscript lookup 5 subtable" onesuperior
Substitution2: "'sinf' Scientific Inferiors lookup 4 subtable" uni2081
AlternateSubs2: "'aalt' Access All Alternates lookup 1 subtable" uni2081 onesuperior
EndChar

StartChar: two
Encoding: 50 50 21
Width: 1100
GlyphClass: 2
Flags: W
LayerCount: 2
Fore
SplineSet
94 1138 m 1,0,1
 138 1310 138 1310 250 1408 c 128,-1,2
 362 1506 362 1506 546 1506 c 0,3,4
 734 1506 734 1506 854 1398 c 128,-1,5
 974 1290 974 1290 974 1100 c 0,6,7
 974 880 974 880 746 662 c 0,8,9
 482 410 482 410 414 330 c 0,10,11
 326 226 326 226 290 130 c 1,12,-1
 974 130 l 1,13,-1
 974 0 l 1,14,-1
 102 0 l 1,15,16
 102 74 102 74 134 156 c 128,-1,17
 166 238 166 238 204 297 c 128,-1,18
 242 356 242 356 328 449 c 128,-1,19
 414 542 414 542 460 586 c 128,-1,20
 506 630 506 630 620 736 c 0,21,22
 812 918 812 918 812 1102 c 0,23,24
 812 1232 812 1232 739 1305 c 128,-1,25
 666 1378 666 1378 542 1378 c 0,26,27
 420 1378 420 1378 341 1303 c 128,-1,28
 262 1228 262 1228 232 1102 c 1,29,-1
 94 1138 l 1,0,1
EndSplineSet
Substitution2: "'subs' Subscript lookup 6 subtable" uni2082
Substitution2: "'sups' Superscript lookup 5 subtable" twosuperior
Substitution2: "'sinf' Scientific Inferiors lookup 4 subtable" uni2082
AlternateSubs2: "'aalt' Access All Alternates lookup 1 subtable" uni2082 twosuperior
EndChar

StartChar: three
Encoding: 51 51 22
Width: 1100
GlyphClass: 2
Flags: W
LayerCount: 2
Fore
SplineSet
66 254 m 1,0,-1
 196 304 l 1,1,2
 306 94 306 94 526 94 c 0,3,4
 664 94 664 94 756 175 c 128,-1,5
 848 256 848 256 848 408 c 0,6,7
 848 552 848 552 746 631 c 128,-1,8
 644 710 644 710 498 710 c 0,9,10
 426 710 426 710 380 706 c 1,11,-1
 380 836 l 1,12,13
 422 832 422 832 490 832 c 0,14,15
 620 832 620 832 704 908 c 128,-1,16
 788 984 788 984 788 1112 c 0,17,18
 788 1228 788 1228 713 1303 c 128,-1,19
 638 1378 638 1378 518 1378 c 0,20,21
 330 1378 330 1378 236 1154 c 1,22,-1
 106 1198 l 1,23,24
 150 1332 150 1332 256 1419 c 128,-1,25
 362 1506 362 1506 526 1506 c 0,26,27
 720 1506 720 1506 835 1398 c 128,-1,28
 950 1290 950 1290 950 1126 c 0,29,30
 950 998 950 998 881 908 c 128,-1,31
 812 818 812 818 714 782 c 1,32,33
 832 750 832 750 920 656 c 128,-1,34
 1008 562 1008 562 1008 408 c 0,35,36
 1008 196 1008 196 876 80 c 128,-1,37
 744 -36 744 -36 526 -36 c 0,38,39
 356 -36 356 -36 237 47 c 128,-1,40
 118 130 118 130 66 254 c 1,0,-1
EndSplineSet
Substitution2: "'subs' Subscript lookup 6 subtable" uni2083
Substitution2: "'sups' Superscript lookup 5 subtable" threesuperior
Substitution2: "'sinf' Scientific Inferiors lookup 4 subtable" uni2083
AlternateSubs2: "'aalt' Access All Alternates lookup 1 subtable" uni2083 threesuperior
EndChar

StartChar: four
Encoding: 52 52 23
Width: 1100
GlyphClass: 2
Flags: W
LayerCount: 2
Fore
SplineSet
54 466 m 5,0,-1
 712 1470 l 5,1,-1
 850 1470 l 5,2,-1
 850 470 l 5,3,-1
 1056 470 l 5,4,-1
 1056 342 l 5,5,-1
 850 342 l 5,6,-1
 850 0 l 5,7,-1
 696 0 l 5,8,-1
 696 342 l 5,9,-1
 54 342 l 5,10,-1
 54 466 l 5,0,-1
202 470 m 1,11,-1
 696 470 l 1,12,-1
 696 1014 l 2,13,14
 696 1134 696 1134 704 1244 c 1,15,-1
 696 1244 l 1,16,-1
 570 1038 l 1,17,-1
 202 470 l 1,11,-1
EndSplineSet
Substitution2: "'subs' Subscript lookup 6 subtable" uni2084
Substitution2: "'sups' Superscript lookup 5 subtable" uni2074
Substitution2: "'sinf' Scientific Inferiors lookup 4 subtable" uni2084
AlternateSubs2: "'aalt' Access All Alternates lookup 1 subtable" uni2084 uni2074
EndChar

StartChar: five
Encoding: 53 53 24
Width: 1100
GlyphClass: 2
Flags: W
LayerCount: 2
Fore
SplineSet
86 238 m 1,0,-1
 216 286 l 1,1,2
 258 198 258 198 338 146 c 128,-1,3
 418 94 418 94 514 94 c 0,4,5
 662 94 662 94 743 190 c 128,-1,6
 824 286 824 286 824 440 c 256,7,8
 824 594 824 594 736 691 c 128,-1,9
 648 788 648 788 506 788 c 0,10,11
 346 788 346 788 224 658 c 1,12,-1
 130 694 l 1,13,-1
 204 1470 l 1,14,-1
 898 1470 l 1,15,-1
 898 1340 l 1,16,-1
 350 1340 l 1,17,-1
 294 836 l 1,18,19
 410 916 410 916 562 916 c 0,20,21
 748 916 748 916 867 788 c 128,-1,22
 986 660 986 660 986 444 c 0,23,24
 986 244 986 244 866 104 c 128,-1,25
 746 -36 746 -36 514 -36 c 0,26,27
 216 -36 216 -36 86 238 c 1,0,-1
EndSplineSet
EndChar

StartChar: six
Encoding: 54 54 25
Width: 1100
GlyphClass: 2
Flags: W
LayerCount: 2
Fore
SplineSet
262 458 m 0,0,1
 262 298 262 298 346 196 c 128,-1,2
 430 94 430 94 566 94 c 0,3,4
 694 94 694 94 779 195 c 128,-1,5
 864 296 864 296 864 458 c 0,6,7
 864 622 864 622 778 723 c 128,-1,8
 692 824 692 824 562 824 c 0,9,10
 434 824 434 824 348 718 c 128,-1,11
 262 612 262 612 262 458 c 0,0,1
94 656 m 0,12,13
 94 784 94 784 111 901 c 128,-1,14
 128 1018 128 1018 167 1130 c 128,-1,15
 206 1242 206 1242 265 1324 c 128,-1,16
 324 1406 324 1406 414 1456 c 128,-1,17
 504 1506 504 1506 616 1506 c 0,18,19
 876 1506 876 1506 1004 1242 c 1,20,-1
 880 1198 l 1,21,22
 778 1378 778 1378 616 1378 c 0,23,24
 532 1378 532 1378 467 1334 c 128,-1,25
 402 1290 402 1290 364 1214 c 128,-1,26
 326 1138 326 1138 304 1064 c 128,-1,27
 282 990 282 990 270 902 c 0,28,29
 258 824 258 824 252 726 c 1,30,31
 290 828 290 828 379 891 c 128,-1,32
 468 954 468 954 584 954 c 0,33,34
 778 954 778 954 899 813 c 128,-1,35
 1020 672 1020 672 1020 460 c 256,36,37
 1020 248 1020 248 900 106 c 128,-1,38
 780 -36 780 -36 572 -36 c 0,39,40
 356 -36 356 -36 228 120 c 0,41,42
 94 280 94 280 94 656 c 0,12,13
EndSplineSet
EndChar

StartChar: seven
Encoding: 55 55 26
Width: 1100
GlyphClass: 2
Flags: W
LayerCount: 2
Fore
SplineSet
74 1336 m 1,0,-1
 74 1470 l 1,1,-1
 982 1470 l 1,2,-1
 982 1362 l 1,3,4
 588 716 588 716 428 0 c 1,5,-1
 266 0 l 1,6,7
 348 388 348 388 480 697 c 128,-1,8
 612 1006 612 1006 800 1336 c 1,9,-1
 74 1336 l 1,0,-1
EndSplineSet
EndChar

StartChar: eight
Encoding: 56 56 27
Width: 1100
GlyphClass: 2
Flags: W
LayerCount: 2
Fore
SplineSet
282 1110 m 0,0,1
 282 992 282 992 360 919 c 128,-1,2
 438 846 438 846 550 846 c 0,3,4
 664 846 664 846 740 921 c 128,-1,5
 816 996 816 996 816 1110 c 0,6,7
 816 1226 816 1226 741 1302 c 128,-1,8
 666 1378 666 1378 550 1378 c 0,9,10
 430 1378 430 1378 356 1300 c 128,-1,11
 282 1222 282 1222 282 1110 c 0,0,1
74 392 m 0,12,13
 74 550 74 550 157 648 c 128,-1,14
 240 746 240 746 358 786 c 1,15,16
 122 884 122 884 122 1118 c 0,17,18
 122 1282 122 1282 242 1394 c 128,-1,19
 362 1506 362 1506 550 1506 c 0,20,21
 732 1506 732 1506 855 1396 c 128,-1,22
 978 1286 978 1286 978 1118 c 0,23,24
 978 990 978 990 909 905 c 128,-1,25
 840 820 840 820 742 786 c 1,26,27
 864 748 864 748 946 648 c 128,-1,28
 1028 548 1028 548 1028 390 c 0,29,30
 1028 204 1028 204 894 84 c 128,-1,31
 760 -36 760 -36 550 -36 c 0,32,33
 348 -36 348 -36 211 80 c 128,-1,34
 74 196 74 196 74 392 c 0,12,13
236 400 m 0,35,36
 236 266 236 266 325 180 c 128,-1,37
 414 94 414 94 550 94 c 0,38,39
 684 94 684 94 776 181 c 128,-1,40
 868 268 868 268 868 400 c 0,41,42
 868 534 868 534 775 626 c 128,-1,43
 682 718 682 718 550 718 c 256,44,45
 418 718 418 718 327 628 c 128,-1,46
 236 538 236 538 236 400 c 0,35,36
EndSplineSet
EndChar

StartChar: nine
Encoding: 57 57 28
Width: 1100
GlyphClass: 2
Flags: W
LayerCount: 2
Fore
SplineSet
232 1014 m 256,0,1
 232 852 232 852 321 752 c 128,-1,2
 410 652 410 652 530 652 c 0,3,4
 656 652 656 652 742 755 c 128,-1,5
 828 858 828 858 828 1012 c 256,6,7
 828 1166 828 1166 745 1272 c 128,-1,8
 662 1378 662 1378 530 1378 c 0,9,10
 404 1378 404 1378 318 1277 c 128,-1,11
 232 1176 232 1176 232 1014 c 256,0,1
86 236 m 1,12,-1
 216 280 l 1,13,14
 256 198 256 198 328 146 c 128,-1,15
 400 94 400 94 490 94 c 0,16,17
 586 94 586 94 656 145 c 128,-1,18
 726 196 726 196 764 288 c 128,-1,19
 802 380 802 380 820 488 c 128,-1,20
 838 596 838 596 840 728 c 1,21,22
 802 646 802 646 716 585 c 128,-1,23
 630 524 630 524 510 524 c 0,24,25
 332 524 332 524 203 656 c 128,-1,26
 74 788 74 788 74 1012 c 0,27,28
 74 1230 74 1230 205 1368 c 128,-1,29
 336 1506 336 1506 530 1506 c 0,30,31
 696 1506 696 1506 811 1399 c 128,-1,32
 926 1292 926 1292 966 1122 c 0,33,34
 992 1000 992 1000 992 808 c 0,35,36
 992 618 992 618 965 468 c 128,-1,37
 938 318 938 318 879 203 c 128,-1,38
 820 88 820 88 721 26 c 128,-1,39
 622 -36 622 -36 486 -36 c 0,40,41
 344 -36 344 -36 239 46 c 128,-1,42
 134 128 134 128 86 236 c 1,12,-1
EndSplineSet
EndChar

StartChar: colon
Encoding: 58 58 29
Width: 550
GlyphClass: 2
Flags: W
LayerCount: 2
Fore
SplineSet
152 0 m 1,0,-1
 152 234 l 1,1,-1
 400 234 l 1,2,-1
 400 0 l 1,3,-1
 152 0 l 1,0,-1
152 778 m 1,4,-1
 152 1012 l 1,5,-1
 400 1012 l 1,6,-1
 400 778 l 1,7,-1
 152 778 l 1,4,-1
EndSplineSet
EndChar

StartChar: semicolon
Encoding: 59 59 30
Width: 550
GlyphClass: 2
Flags: W
LayerCount: 2
Fore
SplineSet
28 -342 m 1,0,-1
 190 232 l 1,1,-1
 406 232 l 1,2,-1
 152 -342 l 1,3,-1
 28 -342 l 1,0,-1
152 776 m 1,4,-1
 152 1010 l 1,5,-1
 400 1010 l 1,6,-1
 400 776 l 1,7,-1
 152 776 l 1,4,-1
EndSplineSet
EndChar

StartChar: less
Encoding: 60 60 31
Width: 1116
GlyphClass: 2
Flags: W
LayerCount: 2
Fore
SplineSet
106 642 m 1,0,-1
 106 782 l 1,1,-1
 934 1398 l 1,2,-1
 1016 1284 l 1,3,-1
 256 710 l 1,4,-1
 1016 138 l 1,5,-1
 934 24 l 1,6,-1
 106 642 l 1,0,-1
EndSplineSet
EndChar

StartChar: equal
Encoding: 61 61 32
Width: 1116
GlyphClass: 2
Flags: W
LayerCount: 2
Fore
SplineSet
94 468 m 1,0,-1
 94 600 l 1,1,-1
 1020 600 l 1,2,-1
 1020 468 l 1,3,-1
 94 468 l 1,0,-1
94 856 m 1,4,-1
 94 990 l 1,5,-1
 1020 990 l 1,6,-1
 1020 856 l 1,7,-1
 94 856 l 1,4,-1
EndSplineSet
Substitution2: "'sups' Superscript lookup 5 subtable" uni207C
Substitution2: "'aalt' Access All Alternates lookup 0 subtable" uni207C
EndChar

StartChar: greater
Encoding: 62 62 33
Width: 1116
GlyphClass: 2
Flags: W
LayerCount: 2
Fore
SplineSet
180 24 m 1,0,-1
 102 138 l 1,1,-1
 860 710 l 1,2,-1
 102 1284 l 1,3,-1
 180 1398 l 1,4,-1
 1012 782 l 1,5,-1
 1012 642 l 1,6,-1
 180 24 l 1,0,-1
EndSplineSet
EndChar

StartChar: question
Encoding: 63 63 34
Width: 1106
GlyphClass: 2
Flags: W
LayerCount: 2
Fore
SplineSet
126 1186 m 1,0,1
 176 1330 176 1330 290 1418 c 128,-1,2
 404 1506 404 1506 554 1506 c 0,3,4
 740 1506 740 1506 851 1398 c 128,-1,5
 962 1290 962 1290 962 1108 c 0,6,7
 962 1018 962 1018 926 946 c 128,-1,8
 890 874 890 874 838 823 c 128,-1,9
 786 772 786 772 734 723 c 128,-1,10
 682 674 682 674 645 604 c 128,-1,11
 608 534 608 534 608 448 c 2,12,-1
 608 394 l 1,13,-1
 452 394 l 1,14,-1
 452 458 l 2,15,16
 452 554 452 554 488 631 c 128,-1,17
 524 708 524 708 575 761 c 128,-1,18
 626 814 626 814 677 862 c 128,-1,19
 728 910 728 910 764 974 c 128,-1,20
 800 1038 800 1038 800 1112 c 0,21,22
 800 1230 800 1230 735 1302 c 128,-1,23
 670 1374 670 1374 556 1374 c 0,24,25
 360 1374 360 1374 262 1138 c 1,26,-1
 126 1186 l 1,0,1
406 -20 m 1,27,-1
 406 206 l 1,28,-1
 654 206 l 1,29,-1
 654 -20 l 1,30,-1
 406 -20 l 1,27,-1
EndSplineSet
EndChar

StartChar: at
Encoding: 64 64 35
Width: 1890
GlyphClass: 2
Flags: W
LayerCount: 2
Fore
SplineSet
116 690 m 0,0,1
 116 1058 116 1058 358 1290 c 128,-1,2
 600 1522 600 1522 988 1522 c 0,3,4
 1336 1522 1336 1522 1555 1319 c 128,-1,5
 1774 1116 1774 1116 1774 794 c 0,6,7
 1774 648 1774 648 1740 535 c 128,-1,8
 1706 422 1706 422 1649 359 c 128,-1,9
 1592 296 1592 296 1529 265 c 128,-1,10
 1466 234 1466 234 1398 234 c 0,11,12
 1310 234 1310 234 1244 296 c 128,-1,13
 1178 358 1178 358 1172 450 c 1,14,-1
 1170 450 l 1,15,16
 1138 368 1138 368 1055 302 c 128,-1,17
 972 236 972 236 862 236 c 0,18,19
 720 236 720 236 626 342 c 128,-1,20
 532 448 532 448 532 624 c 0,21,22
 532 860 532 860 655 995 c 128,-1,23
 778 1130 778 1130 948 1130 c 0,24,25
 1038 1130 1038 1130 1096 1090 c 128,-1,26
 1154 1050 1154 1050 1180 1002 c 1,27,-1
 1188 1112 l 1,28,-1
 1308 1112 l 1,29,-1
 1280 550 l 2,30,31
 1280 540 1280 540 1280 530 c 0,32,33
 1280 448 1280 448 1313 400 c 128,-1,34
 1346 352 1346 352 1408 352 c 0,35,36
 1510 352 1510 352 1574 466 c 128,-1,37
 1638 580 1638 580 1638 786 c 0,38,39
 1638 1064 1638 1064 1462 1237 c 128,-1,40
 1286 1410 1286 1410 986 1410 c 0,41,42
 666 1410 666 1410 460 1210 c 128,-1,43
 254 1010 254 1010 254 690 c 0,44,45
 254 360 254 360 451 167 c 128,-1,46
 648 -26 648 -26 962 -26 c 0,47,48
 1194 -26 1194 -26 1400 36 c 1,49,-1
 1424 -70 l 1,50,51
 1214 -140 1214 -140 962 -140 c 0,52,53
 578 -140 578 -140 347 92 c 128,-1,54
 116 324 116 324 116 690 c 0,0,1
676 626 m 0,55,56
 676 508 676 508 732 434 c 128,-1,57
 788 360 788 360 878 360 c 0,58,59
 922 360 922 360 966 380 c 128,-1,60
 1010 400 1010 400 1056 445 c 128,-1,61
 1102 490 1102 490 1129 582 c 128,-1,62
 1156 674 1156 674 1156 796 c 0,63,64
 1156 886 1156 886 1106 950 c 128,-1,65
 1056 1014 1056 1014 954 1014 c 0,66,67
 848 1014 848 1014 762 909 c 128,-1,68
 676 804 676 804 676 626 c 0,55,56
EndSplineSet
EndChar

StartChar: A
Encoding: 65 65 36
Width: 1276
GlyphClass: 2
Flags: W
LayerCount: 2
Fore
SplineSet
362 550 m 1,0,-1
 914 550 l 1,1,-1
 742 1044 l 2,2,3
 726 1090 726 1090 692 1189 c 128,-1,4
 658 1288 658 1288 644 1326 c 1,5,-1
 632 1326 l 1,6,7
 550 1086 550 1086 536 1044 c 2,8,-1
 362 550 l 1,0,-1
-8 0 m 1,9,-1
 542 1470 l 1,10,-1
 734 1470 l 1,11,-1
 1284 0 l 1,12,-1
 1110 0 l 1,13,-1
 962 424 l 1,14,-1
 314 424 l 1,15,-1
 164 0 l 1,16,-1
 -8 0 l 1,9,-1
EndSplineSet
Substitution2: "Single Substitution lookup 12 subtable" ordfeminine
EndChar

StartChar: B
Encoding: 66 66 37
Width: 1334
GlyphClass: 2
Flags: W
LayerCount: 2
Fore
SplineSet
204 0 m 1,0,-1
 204 1470 l 1,1,-1
 746 1470 l 2,2,3
 960 1470 960 1470 1071 1368 c 128,-1,4
 1182 1266 1182 1266 1182 1094 c 0,5,6
 1182 976 1182 976 1122 894 c 128,-1,7
 1062 812 1062 812 970 772 c 1,8,9
 1082 738 1082 738 1159 642 c 128,-1,10
 1236 546 1236 546 1236 410 c 0,11,12
 1236 242 1236 242 1125 121 c 128,-1,13
 1014 0 1014 0 816 0 c 2,14,-1
 204 0 l 1,0,-1
362 134 m 1,15,-1
 778 134 l 2,16,17
 904 134 904 134 990 207 c 128,-1,18
 1076 280 1076 280 1076 408 c 0,19,20
 1076 530 1076 530 992 610 c 128,-1,21
 908 690 908 690 770 690 c 2,22,-1
 362 690 l 1,23,-1
 362 134 l 1,15,-1
362 822 m 1,24,-1
 718 822 l 2,25,26
 850 822 850 822 935 887 c 128,-1,27
 1020 952 1020 952 1020 1082 c 0,28,29
 1020 1196 1020 1196 951 1266 c 128,-1,30
 882 1336 882 1336 726 1336 c 2,31,-1
 362 1336 l 1,32,-1
 362 822 l 1,24,-1
EndSplineSet
EndChar

StartChar: C
Encoding: 67 67 38
Width: 1300
GlyphClass: 2
Flags: W
LayerCount: 2
Fore
SplineSet
102 734 m 256,0,1
 102 1094 102 1094 277 1300 c 128,-1,2
 452 1506 452 1506 730 1506 c 0,3,4
 902 1506 902 1506 1023 1410 c 128,-1,5
 1144 1314 1144 1314 1206 1184 c 1,6,-1
 1072 1136 l 1,7,8
 940 1372 940 1372 726 1372 c 0,9,10
 514 1372 514 1372 388 1198 c 128,-1,11
 262 1024 262 1024 262 734 c 0,12,13
 262 440 262 440 390 270 c 128,-1,14
 518 100 518 100 726 100 c 0,15,16
 858 100 858 100 956 174 c 128,-1,17
 1054 248 1054 248 1102 356 c 1,18,-1
 1244 310 l 1,19,20
 1178 166 1178 166 1050 65 c 128,-1,21
 922 -36 922 -36 730 -36 c 0,22,23
 454 -36 454 -36 278 169 c 128,-1,24
 102 374 102 374 102 734 c 256,0,1
EndSplineSet
EndChar

StartChar: D
Encoding: 68 68 39
Width: 1376
GlyphClass: 2
Flags: W
LayerCount: 2
Fore
SplineSet
204 0 m 1,0,-1
 204 1470 l 1,1,-1
 600 1470 l 2,2,3
 918 1470 918 1470 1101 1283 c 128,-1,4
 1284 1096 1284 1096 1284 734 c 0,5,6
 1284 390 1284 390 1107 195 c 128,-1,7
 930 0 930 0 596 0 c 2,8,-1
 204 0 l 1,0,-1
362 134 m 1,9,-1
 574 134 l 2,10,11
 828 134 828 134 975 278 c 128,-1,12
 1122 422 1122 422 1122 734 c 0,13,14
 1122 1050 1122 1050 975 1193 c 128,-1,15
 828 1336 828 1336 578 1336 c 2,16,-1
 362 1336 l 1,17,-1
 362 134 l 1,9,-1
EndSplineSet
EndChar

StartChar: E
Encoding: 69 69 40
Width: 1216
GlyphClass: 2
Flags: W
LayerCount: 2
Fore
SplineSet
204 0 m 1,0,-1
 204 1470 l 1,1,-1
 1122 1470 l 1,2,-1
 1122 1336 l 1,3,-1
 362 1336 l 1,4,-1
 362 826 l 1,5,-1
 1048 826 l 1,6,-1
 1048 694 l 1,7,-1
 362 694 l 1,8,-1
 362 134 l 1,9,-1
 1138 134 l 1,10,-1
 1138 0 l 1,11,-1
 204 0 l 1,0,-1
EndSplineSet
EndChar

StartChar: F
Encoding: 70 70 41
Width: 1122
GlyphClass: 2
Flags: W
LayerCount: 2
Fore
SplineSet
204 0 m 1,0,-1
 204 1470 l 1,1,-1
 1096 1470 l 1,2,-1
 1096 1336 l 1,3,-1
 362 1336 l 1,4,-1
 362 806 l 1,5,-1
 1020 806 l 1,6,-1
 1020 676 l 1,7,-1
 362 676 l 1,8,-1
 362 0 l 1,9,-1
 204 0 l 1,0,-1
EndSplineSet
EndChar

StartChar: G
Encoding: 71 71 42
Width: 1424
GlyphClass: 2
Flags: W
LayerCount: 2
Fore
SplineSet
102 734 m 0,0,1
 102 1076 102 1076 274 1291 c 128,-1,2
 446 1506 446 1506 742 1506 c 0,3,4
 842 1506 842 1506 928 1475 c 128,-1,5
 1014 1444 1014 1444 1072 1393 c 128,-1,6
 1130 1342 1130 1342 1168 1294 c 128,-1,7
 1206 1246 1206 1246 1232 1194 c 1,8,-1
 1100 1146 l 1,9,10
 960 1372 960 1372 742 1372 c 0,11,12
 516 1372 516 1372 389 1196 c 128,-1,13
 262 1020 262 1020 262 734 c 0,14,15
 262 436 262 436 392 268 c 128,-1,16
 522 100 522 100 734 100 c 0,17,18
 926 100 926 100 1030 226 c 128,-1,19
 1134 352 1134 352 1134 522 c 2,20,-1
 1134 660 l 1,21,-1
 718 660 l 1,22,-1
 718 792 l 1,23,-1
 1288 792 l 1,24,-1
 1288 0 l 1,25,-1
 1174 0 l 1,26,-1
 1162 216 l 1,27,28
 1046 -36 1046 -36 730 -36 c 0,29,30
 450 -36 450 -36 276 170 c 128,-1,31
 102 376 102 376 102 734 c 0,0,1
EndSplineSet
EndChar

StartChar: H
Encoding: 72 72 43
Width: 1444
GlyphClass: 2
Flags: W
LayerCount: 2
Fore
SplineSet
204 0 m 1,0,-1
 204 1470 l 1,1,-1
 362 1470 l 1,2,-1
 362 822 l 1,3,-1
 1084 822 l 1,4,-1
 1084 1470 l 1,5,-1
 1240 1470 l 1,6,-1
 1240 0 l 1,7,-1
 1084 0 l 1,8,-1
 1084 690 l 1,9,-1
 362 690 l 1,10,-1
 362 0 l 1,11,-1
 204 0 l 1,0,-1
EndSplineSet
EndChar

StartChar: I
Encoding: 73 73 44
Width: 564
GlyphClass: 2
Flags: W
LayerCount: 2
Fore
SplineSet
204 0 m 1,0,-1
 204 1470 l 1,1,-1
 362 1470 l 1,2,-1
 362 0 l 1,3,-1
 204 0 l 1,0,-1
EndSplineSet
EndChar

StartChar: J
Encoding: 74 74 45
Width: 994
GlyphClass: 2
Flags: W
LayerCount: 2
Fore
SplineSet
24 236 m 1,0,-1
 164 288 l 1,1,2
 192 200 192 200 254 150 c 128,-1,3
 316 100 316 100 400 100 c 0,4,5
 632 100 632 100 632 428 c 2,6,-1
 632 1470 l 1,7,-1
 788 1470 l 1,8,-1
 788 402 l 2,9,10
 788 186 788 186 689 75 c 128,-1,11
 590 -36 590 -36 404 -36 c 0,12,13
 112 -36 112 -36 24 236 c 1,0,-1
EndSplineSet
EndChar

StartChar: K
Encoding: 75 75 46
Width: 1274
GlyphClass: 2
Flags: W
LayerCount: 2
Fore
SplineSet
204 0 m 1,0,-1
 204 1470 l 1,1,-1
 362 1470 l 5,2,-1
 362 692 l 1,3,-1
 366 692 l 1,4,-1
 1032 1470 l 1,5,-1
 1240 1470 l 1,6,-1
 682 834 l 1,7,-1
 1272 0 l 1,8,-1
 1076 0 l 1,9,-1
 580 720 l 1,10,-1
 362 470 l 1,11,-1
 362 0 l 1,12,-1
 204 0 l 1,0,-1
EndSplineSet
EndChar

StartChar: L
Encoding: 76 76 47
Width: 1076
GlyphClass: 2
Flags: W
LayerCount: 2
Fore
SplineSet
204 0 m 1,0,-1
 204 1470 l 1,1,-1
 362 1470 l 1,2,-1
 362 134 l 1,3,-1
 1060 134 l 1,4,-1
 1060 0 l 1,5,-1
 204 0 l 1,0,-1
EndSplineSet
EndChar

StartChar: M
Encoding: 77 77 48
Width: 1752
GlyphClass: 2
Flags: W
LayerCount: 2
Fore
SplineSet
204 0 m 1,0,-1
 204 1470 l 1,1,-1
 408 1470 l 1,2,-1
 730 680 l 2,3,4
 762 596 762 596 816 454 c 128,-1,5
 870 312 870 312 872 306 c 2,6,-1
 880 306 l 1,7,8
 892 336 892 336 1022 680 c 1,9,-1
 1342 1470 l 1,10,-1
 1550 1470 l 1,11,-1
 1550 0 l 1,12,-1
 1394 0 l 1,13,-1
 1394 830 l 2,14,15
 1394 990 1394 990 1414 1276 c 1,16,-1
 1406 1276 l 1,17,-1
 946 110 l 1,18,-1
 808 110 l 1,19,-1
 346 1276 l 1,20,-1
 338 1276 l 1,21,22
 362 960 362 960 362 830 c 2,23,-1
 362 0 l 1,24,-1
 204 0 l 1,0,-1
EndSplineSet
EndChar

StartChar: N
Encoding: 78 78 49
Width: 1452
GlyphClass: 2
Flags: W
LayerCount: 2
Fore
SplineSet
204 0 m 1,0,-1
 204 1470 l 1,1,-1
 384 1470 l 1,2,-1
 926 532 l 1,3,-1
 1102 222 l 1,4,-1
 1114 222 l 1,5,6
 1092 404 1092 404 1092 638 c 2,7,-1
 1092 1470 l 1,8,-1
 1248 1470 l 1,9,-1
 1248 0 l 1,10,-1
 1068 0 l 1,11,-1
 350 1246 l 1,12,-1
 342 1246 l 1,13,14
 362 1050 362 1050 362 832 c 2,15,-1
 362 0 l 1,16,-1
 204 0 l 1,0,-1
EndSplineSet
EndChar

StartChar: O
Encoding: 79 79 50
Width: 1424
GlyphClass: 2
Flags: W
LayerCount: 2
Fore
SplineSet
102 734 m 0,0,1
 102 1080 102 1080 269 1293 c 128,-1,2
 436 1506 436 1506 714 1506 c 0,3,4
 996 1506 996 1506 1159 1294 c 128,-1,5
 1322 1082 1322 1082 1322 732 c 0,6,7
 1322 378 1322 378 1157 171 c 128,-1,8
 992 -36 992 -36 714 -36 c 256,9,10
 436 -36 436 -36 269 173 c 128,-1,11
 102 382 102 382 102 734 c 0,0,1
262 734 m 0,12,13
 262 444 262 444 384 272 c 128,-1,14
 506 100 506 100 714 100 c 0,15,16
 918 100 918 100 1040 269 c 128,-1,17
 1162 438 1162 438 1162 732 c 0,18,19
 1162 1022 1162 1022 1044 1197 c 128,-1,20
 926 1372 926 1372 714 1372 c 0,21,22
 506 1372 506 1372 384 1199 c 128,-1,23
 262 1026 262 1026 262 734 c 0,12,13
EndSplineSet
Substitution2: "Single Substitution lookup 12 subtable" ordmasculine
EndChar

StartChar: P
Encoding: 80 80 51
Width: 1300
GlyphClass: 2
Flags: W
LayerCount: 2
Fore
SplineSet
204 0 m 1,0,-1
 204 1470 l 1,1,-1
 758 1470 l 2,2,3
 972 1470 972 1470 1096 1352 c 128,-1,4
 1220 1234 1220 1234 1220 1040 c 0,5,6
 1220 840 1220 840 1093 724 c 128,-1,7
 966 608 966 608 758 608 c 2,8,-1
 362 608 l 1,9,-1
 362 0 l 1,10,-1
 204 0 l 1,0,-1
362 740 m 1,11,-1
 734 740 l 2,12,13
 890 740 890 740 975 816 c 128,-1,14
 1060 892 1060 892 1060 1040 c 0,15,16
 1060 1186 1060 1186 975 1261 c 128,-1,17
 890 1336 890 1336 730 1336 c 2,18,-1
 362 1336 l 1,19,-1
 362 740 l 1,11,-1
EndSplineSet
EndChar

StartChar: Q
Encoding: 81 81 52
Width: 1424
GlyphClass: 2
Flags: W
LayerCount: 2
Fore
SplineSet
102 732 m 0,0,1
 102 1084 102 1084 270 1295 c 128,-1,2
 438 1506 438 1506 714 1506 c 0,3,4
 994 1506 994 1506 1158 1294 c 128,-1,5
 1322 1082 1322 1082 1322 732 c 0,6,7
 1322 386 1322 386 1160 176 c 0,8,9
 1156 170 1156 170 1152 164 c 2,10,-1
 1322 -10 l 1,11,-1
 1220 -100 l 1,12,-1
 1054 70 l 1,13,14
 914 -36 914 -36 714 -36 c 0,15,16
 434 -36 434 -36 268 175 c 128,-1,17
 102 386 102 386 102 732 c 0,0,1
682 448 m 1,18,-1
 786 540 l 1,19,-1
 1044 274 l 1,20,21
 1162 444 1162 444 1162 732 c 0,22,23
 1162 1034 1162 1034 1040 1203 c 128,-1,24
 918 1372 918 1372 714 1372 c 0,25,26
 508 1372 508 1372 385 1200 c 128,-1,27
 262 1028 262 1028 262 732 c 0,28,29
 262 442 262 442 385 271 c 128,-1,30
 508 100 508 100 714 100 c 0,31,32
 850 100 850 100 950 174 c 1,33,-1
 682 448 l 1,18,-1
EndSplineSet
EndChar

StartChar: R
Encoding: 82 82 53
Width: 1326
GlyphClass: 2
Flags: W
LayerCount: 2
Fore
SplineSet
362 770 m 1,0,-1
 758 770 l 2,1,2
 904 770 904 770 984 848 c 128,-1,3
 1064 926 1064 926 1064 1056 c 0,4,5
 1064 1182 1064 1182 980 1259 c 128,-1,6
 896 1336 896 1336 742 1336 c 2,7,-1
 362 1336 l 1,8,-1
 362 770 l 1,0,-1
204 0 m 1,9,-1
 204 1470 l 1,10,-1
 778 1470 l 2,11,12
 994 1470 994 1470 1109 1353 c 128,-1,13
 1224 1236 1224 1236 1224 1066 c 0,14,15
 1224 910 1224 910 1146 814 c 128,-1,16
 1068 718 1068 718 974 692 c 1,17,18
 1056 650 1056 650 1093 587 c 128,-1,19
 1130 524 1130 524 1154 412 c 0,20,21
 1180 302 1180 302 1191 262 c 128,-1,22
 1202 222 1202 222 1230 147 c 128,-1,23
 1258 72 1258 72 1300 0 c 1,24,-1
 1122 0 l 1,25,26
 1090 62 1090 62 1063 134 c 128,-1,27
 1036 206 1036 206 1024 252 c 128,-1,28
 1012 298 1012 298 990 400 c 0,29,30
 964 510 964 510 912 573 c 128,-1,31
 860 636 860 636 746 636 c 2,32,-1
 362 636 l 1,33,-1
 362 0 l 1,34,-1
 204 0 l 1,9,-1
EndSplineSet
EndChar

StartChar: S
Encoding: 83 83 54
Width: 1218
GlyphClass: 2
Flags: W
LayerCount: 2
Fore
SplineSet
78 276 m 1,0,-1
 224 328 l 1,1,2
 356 100 356 100 632 100 c 0,3,4
 786 100 786 100 882 175 c 128,-1,5
 978 250 978 250 978 378 c 0,6,7
 978 444 978 444 950 494 c 128,-1,8
 922 544 922 544 862 581 c 128,-1,9
 802 618 802 618 751 640 c 128,-1,10
 700 662 700 662 612 690 c 0,11,12
 542 714 542 714 512 724 c 128,-1,13
 482 734 482 734 419 760 c 128,-1,14
 356 786 356 786 325 805 c 128,-1,15
 294 824 294 824 249 858 c 128,-1,16
 204 892 204 892 183 928 c 128,-1,17
 162 964 162 964 146 1014 c 128,-1,18
 130 1064 130 1064 130 1120 c 0,19,20
 130 1296 130 1296 263 1401 c 128,-1,21
 396 1506 396 1506 620 1506 c 0,22,23
 790 1506 790 1506 917 1427 c 128,-1,24
 1044 1348 1044 1348 1100 1230 c 1,25,-1
 966 1184 l 1,26,27
 850 1372 850 1372 616 1372 c 0,28,29
 464 1372 464 1372 377 1303 c 128,-1,30
 290 1234 290 1234 290 1120 c 0,31,32
 290 1070 290 1070 314 1026 c 128,-1,33
 338 982 338 982 366 955 c 128,-1,34
 394 928 394 928 458 898 c 128,-1,35
 522 868 522 868 558 855 c 128,-1,36
 594 842 594 842 678 814 c 0,37,38
 696 808 696 808 706 804 c 0,39,40
 802 774 802 774 867 744 c 128,-1,41
 932 714 932 714 1001 665 c 128,-1,42
 1070 616 1070 616 1104 546 c 128,-1,43
 1138 476 1138 476 1138 384 c 0,44,45
 1138 186 1138 186 1000 75 c 128,-1,46
 862 -36 862 -36 628 -36 c 0,47,48
 428 -36 428 -36 289 49 c 128,-1,49
 150 134 150 134 78 276 c 1,0,-1
EndSplineSet
EndChar

StartChar: T
Encoding: 84 84 55
Width: 1096
GlyphClass: 2
Flags: W
LayerCount: 2
Fore
SplineSet
24 1336 m 1,0,-1
 24 1470 l 1,1,-1
 1076 1470 l 1,2,-1
 1076 1336 l 1,3,-1
 628 1336 l 1,4,-1
 628 0 l 1,5,-1
 472 0 l 1,6,-1
 472 1336 l 1,7,-1
 24 1336 l 1,0,-1
EndSplineSet
EndChar

StartChar: U
Encoding: 85 85 56
Width: 1438
GlyphClass: 2
Flags: W
LayerCount: 2
Fore
SplineSet
200 532 m 2,0,-1
 200 1470 l 1,1,-1
 358 1470 l 1,2,-1
 358 536 l 2,3,4
 358 316 358 316 459 208 c 128,-1,5
 560 100 560 100 718 100 c 0,6,7
 882 100 882 100 983 211 c 128,-1,8
 1084 322 1084 322 1084 536 c 2,9,-1
 1084 1470 l 1,10,-1
 1240 1470 l 1,11,-1
 1240 532 l 2,12,13
 1240 264 1240 264 1105 114 c 128,-1,14
 970 -36 970 -36 718 -36 c 0,15,16
 472 -36 472 -36 336 112 c 128,-1,17
 200 260 200 260 200 532 c 2,0,-1
EndSplineSet
EndChar

StartChar: V
Encoding: 86 86 57
Width: 1172
GlyphClass: 2
Flags: W
LayerCount: 2
Fore
SplineSet
-4 1470 m 1,0,-1
 168 1470 l 1,1,-1
 488 460 l 2,2,3
 504 408 504 408 534 311 c 128,-1,4
 564 214 564 214 580 156 c 1,5,-1
 588 156 l 1,6,7
 606 216 606 216 636 311 c 128,-1,8
 666 406 666 406 682 460 c 2,9,-1
 1004 1470 l 1,10,-1
 1178 1470 l 1,11,-1
 682 0 l 1,12,-1
 490 0 l 1,13,-1
 -4 1470 l 1,0,-1
EndSplineSet
EndChar

StartChar: W
Encoding: 87 87 58
Width: 1702
GlyphClass: 2
Flags: W
LayerCount: 2
Fore
SplineSet
22 1470 m 1,0,-1
 194 1470 l 1,1,-1
 402 476 l 2,2,3
 440 266 440 266 454 176 c 1,4,-1
 466 176 l 1,5,6
 514 412 514 412 528 476 c 2,7,-1
 766 1470 l 1,8,-1
 934 1470 l 1,9,-1
 1176 476 l 2,10,11
 1204 354 1204 354 1238 176 c 1,12,-1
 1246 176 l 1,13,14
 1248 196 1248 196 1300 476 c 2,15,-1
 1510 1470 l 1,16,-1
 1682 1470 l 1,17,-1
 1336 0 l 1,18,-1
 1152 0 l 1,19,-1
 914 982 l 1,20,21
 862 1238 862 1238 856 1270 c 1,22,-1
 848 1270 l 1,23,24
 838 1216 838 1216 814 1112 c 128,-1,25
 790 1008 790 1008 786 982 c 2,26,-1
 552 0 l 1,27,-1
 368 0 l 1,28,-1
 22 1470 l 1,0,-1
EndSplineSet
EndChar

StartChar: X
Encoding: 88 88 59
Width: 1156
GlyphClass: 2
Flags: W
LayerCount: 2
Fore
SplineSet
-4 0 m 1,0,-1
 478 756 l 1,1,-1
 20 1470 l 1,2,-1
 216 1470 l 1,3,-1
 432 1114 l 2,4,5
 460 1070 460 1070 512 981 c 128,-1,6
 564 892 564 892 574 876 c 1,7,-1
 580 876 l 1,8,9
 606 920 606 920 656 1002 c 128,-1,10
 706 1084 706 1084 726 1114 c 2,11,-1
 942 1470 l 1,12,-1
 1138 1470 l 1,13,-1
 676 756 l 1,14,-1
 1162 0 l 1,15,-1
 970 0 l 1,16,-1
 738 368 l 2,17,18
 710 414 710 414 653 509 c 128,-1,19
 596 604 596 604 580 630 c 1,20,-1
 574 630 l 1,21,22
 492 490 492 490 418 368 c 2,23,-1
 188 0 l 1,24,-1
 -4 0 l 1,0,-1
EndSplineSet
EndChar

StartChar: Y
Encoding: 89 89 60
Width: 1184
GlyphClass: 2
Flags: W
LayerCount: 2
Fore
SplineSet
-8 1470 m 1,0,-1
 180 1470 l 1,1,-1
 434 1020 l 2,2,3
 522 864 522 864 588 744 c 1,4,-1
 592 744 l 1,5,6
 622 796 622 796 683 902 c 128,-1,7
 744 1008 744 1008 750 1020 c 2,8,-1
 1000 1470 l 1,9,-1
 1190 1470 l 1,10,-1
 672 604 l 1,11,-1
 672 0 l 1,12,-1
 514 0 l 1,13,-1
 514 604 l 1,14,-1
 -8 1470 l 1,0,-1
EndSplineSet
EndChar

StartChar: Z
Encoding: 90 90 61
Width: 1216
GlyphClass: 2
Flags: W
LayerCount: 2
Fore
SplineSet
90 116 m 1,0,-1
 918 1336 l 1,1,-1
 154 1336 l 1,2,-1
 154 1470 l 1,3,-1
 1110 1470 l 1,4,-1
 1110 1352 l 1,5,-1
 278 134 l 1,6,-1
 1130 134 l 1,7,-1
 1130 0 l 1,8,-1
 90 0 l 1,9,-1
 90 116 l 1,0,-1
EndSplineSet
EndChar

StartChar: bracketleft
Encoding: 91 91 62
Width: 892
GlyphClass: 2
Flags: W
LayerCount: 2
Fore
SplineSet
294 -256 m 1,0,-1
 294 1664 l 1,1,-1
 706 1664 l 1,2,-1
 706 1538 l 1,3,-1
 448 1538 l 1,4,-1
 448 -132 l 1,5,-1
 706 -132 l 1,6,-1
 706 -256 l 1,7,-1
 294 -256 l 1,0,-1
EndSplineSet
EndChar

StartChar: backslash
Encoding: 92 92 63
Width: 640
GlyphClass: 2
Flags: W
LayerCount: 2
Fore
SplineSet
-26 1562 m 1,0,-1
 132 1562 l 1,1,-1
 670 -112 l 1,2,-1
 512 -112 l 1,3,-1
 -26 1562 l 1,0,-1
EndSplineSet
EndChar

StartChar: bracketright
Encoding: 93 93 64
Width: 892
GlyphClass: 2
Flags: W
LayerCount: 2
Fore
SplineSet
184 -132 m 1,0,-1
 444 -132 l 1,1,-1
 444 1538 l 1,2,-1
 184 1538 l 1,3,-1
 184 1664 l 1,4,-1
 596 1664 l 1,5,-1
 596 -256 l 1,6,-1
 184 -256 l 1,7,-1
 184 -132 l 1,0,-1
EndSplineSet
EndChar

StartChar: asciicircum
Encoding: 94 94 65
Width: 996
GlyphClass: 2
Flags: W
LayerCount: 2
Fore
SplineSet
32 954 m 1,0,-1
 424 1616 l 1,1,-1
 572 1616 l 1,2,-1
 964 954 l 1,3,-1
 804 954 l 1,4,-1
 498 1494 l 1,5,-1
 190 954 l 1,6,-1
 32 954 l 1,0,-1
EndSplineSet
EndChar

StartChar: underscore
Encoding: 95 95 66
Width: 900
GlyphClass: 2
Flags: W
LayerCount: 2
Fore
SplineSet
12 -34 m 1,0,-1
 892 -34 l 1,1,-1
 892 -158 l 1,2,-1
 12 -158 l 1,3,-1
 12 -34 l 1,0,-1
EndSplineSet
EndChar

StartChar: grave
Encoding: 96 96 67
Width: 602
GlyphClass: 2
Flags: W
LayerCount: 2
Fore
SplineSet
326 1074 m 1,0,-1
 70 1648 l 1,1,-1
 288 1648 l 1,2,-1
 450 1074 l 1,3,-1
 326 1074 l 1,0,-1
EndSplineSet
EndChar

StartChar: a
Encoding: 97 97 68
Width: 1104
GlyphClass: 2
Flags: W
LayerCount: 2
Fore
SplineSet
236 270 m 0,0,1
 236 196 236 196 299 144 c 128,-1,2
 362 92 362 92 472 92 c 0,3,4
 610 92 610 92 709 182 c 128,-1,5
 808 272 808 272 808 412 c 2,6,-1
 808 560 l 1,7,8
 722 538 722 538 534 508 c 0,9,10
 380 480 380 480 308 424 c 128,-1,11
 236 368 236 368 236 270 c 0,0,1
82 260 m 0,12,13
 82 554 82 554 538 624 c 0,14,15
 742 658 742 658 808 680 c 1,16,-1
 808 740 l 2,17,18
 808 838 808 838 738 903 c 128,-1,19
 668 968 668 968 538 968 c 0,20,21
 444 968 444 968 356 924 c 128,-1,22
 268 880 268 880 208 804 c 1,23,-1
 110 888 l 1,24,25
 188 978 188 978 299 1035 c 128,-1,26
 410 1092 410 1092 534 1092 c 0,27,28
 958 1092 958 1092 958 678 c 2,29,-1
 958 0 l 1,30,-1
 812 0 l 1,31,-1
 812 172 l 1,32,33
 782 88 782 88 683 26 c 128,-1,34
 584 -36 584 -36 452 -36 c 0,35,36
 276 -36 276 -36 179 47 c 128,-1,37
 82 130 82 130 82 260 c 0,12,13
EndSplineSet
Substitution2: "Single Substitution lookup 12 subtable" ordfeminine
EndChar

StartChar: b
Encoding: 98 98 69
Width: 1170
GlyphClass: 2
Flags: W
LayerCount: 2
Fore
SplineSet
168 0 m 1,0,-1
 168 1524 l 1,1,-1
 318 1524 l 1,2,-1
 318 868 l 1,3,4
 346 950 346 950 434 1021 c 128,-1,5
 522 1092 522 1092 640 1092 c 0,6,7
 836 1092 836 1092 960 941 c 128,-1,8
 1084 790 1084 790 1084 530 c 0,9,10
 1084 384 1084 384 1043 271 c 128,-1,11
 1002 158 1002 158 937 94 c 128,-1,12
 872 30 872 30 796 -3 c 128,-1,13
 720 -36 720 -36 640 -36 c 0,14,15
 528 -36 528 -36 442 30 c 128,-1,16
 356 96 356 96 318 188 c 1,17,-1
 318 0 l 1,18,-1
 168 0 l 1,0,-1
314 530 m 0,19,20
 314 330 314 330 403 211 c 128,-1,21
 492 92 492 92 620 92 c 0,22,23
 756 92 756 92 843 209 c 128,-1,24
 930 326 930 326 930 530 c 0,25,26
 930 728 930 728 844 846 c 128,-1,27
 758 964 758 964 620 964 c 0,28,29
 492 964 492 964 403 846 c 128,-1,30
 314 728 314 728 314 530 c 0,19,20
EndSplineSet
EndChar

StartChar: c
Encoding: 99 99 70
Width: 1008
GlyphClass: 2
Flags: W
LayerCount: 2
Fore
SplineSet
86 528 m 0,0,1
 86 780 86 780 214 936 c 128,-1,2
 342 1092 342 1092 558 1092 c 0,3,4
 698 1092 698 1092 799 1010 c 128,-1,5
 900 928 900 928 934 816 c 1,6,-1
 804 780 l 1,7,8
 776 858 776 858 710 911 c 128,-1,9
 644 964 644 964 558 964 c 0,10,11
 412 964 412 964 326 840 c 128,-1,12
 240 716 240 716 240 528 c 0,13,14
 240 328 240 328 330 210 c 128,-1,15
 420 92 420 92 558 92 c 0,16,17
 650 92 650 92 725 152 c 128,-1,18
 800 212 800 212 832 290 c 1,19,-1
 962 250 l 1,20,21
 920 132 920 132 811 48 c 128,-1,22
 702 -36 702 -36 558 -36 c 0,23,24
 348 -36 348 -36 217 117 c 128,-1,25
 86 270 86 270 86 528 c 0,0,1
EndSplineSet
EndChar

StartChar: d
Encoding: 100 100 71
Width: 1170
GlyphClass: 2
Flags: W
LayerCount: 2
Fore
SplineSet
86 530 m 0,0,1
 86 790 86 790 212 941 c 128,-1,2
 338 1092 338 1092 530 1092 c 0,3,4
 646 1092 646 1092 731 1025 c 128,-1,5
 816 958 816 958 852 872 c 1,6,-1
 852 1524 l 1,7,-1
 1000 1524 l 1,8,-1
 1000 0 l 1,9,-1
 856 0 l 1,10,-1
 856 190 l 1,11,12
 814 92 814 92 729 28 c 128,-1,13
 644 -36 644 -36 530 -36 c 0,14,15
 450 -36 450 -36 374 -3 c 128,-1,16
 298 30 298 30 232 94 c 128,-1,17
 166 158 166 158 126 270 c 128,-1,18
 86 382 86 382 86 530 c 0,0,1
240 530 m 0,19,20
 240 332 240 332 326 212 c 128,-1,21
 412 92 412 92 550 92 c 0,22,23
 678 92 678 92 767 211 c 128,-1,24
 856 330 856 330 856 530 c 0,25,26
 856 728 856 728 767 846 c 128,-1,27
 678 964 678 964 550 964 c 0,28,29
 410 964 410 964 325 845 c 128,-1,30
 240 726 240 726 240 530 c 0,19,20
EndSplineSet
EndChar

StartChar: e
Encoding: 101 101 72
Width: 1110
GlyphClass: 2
Flags: W
LayerCount: 2
Fore
SplineSet
86 536 m 0,0,1
 86 784 86 784 220 938 c 128,-1,2
 354 1092 354 1092 566 1092 c 0,3,4
 782 1092 782 1092 905 941 c 128,-1,5
 1028 790 1028 790 1028 558 c 0,6,7
 1028 530 1028 530 1024 478 c 1,8,-1
 240 478 l 1,9,10
 240 320 240 320 328 206 c 128,-1,11
 416 92 416 92 574 92 c 0,12,13
 676 92 676 92 754 140 c 128,-1,14
 832 188 832 188 876 268 c 1,15,-1
 1004 230 l 1,16,17
 956 114 956 114 846 39 c 128,-1,18
 736 -36 736 -36 574 -36 c 0,19,20
 354 -36 354 -36 220 121 c 128,-1,21
 86 278 86 278 86 536 c 0,0,1
244 594 m 1,22,-1
 876 594 l 1,23,24
 876 750 876 750 791 857 c 128,-1,25
 706 964 706 964 566 964 c 0,26,27
 422 964 422 964 335 854 c 128,-1,28
 248 744 248 744 244 594 c 1,22,-1
EndSplineSet
EndChar

StartChar: f
Encoding: 102 102 73
Width: 672
GlyphClass: 2
Flags: W
LayerCount: 2
Fore
SplineSet
48 928 m 1,0,-1
 48 1056 l 1,1,-1
 228 1056 l 1,2,-1
 228 1218 l 2,3,4
 228 1374 228 1374 306 1449 c 128,-1,5
 384 1524 384 1524 522 1524 c 2,6,-1
 660 1524 l 1,7,-1
 660 1400 l 1,8,-1
 542 1400 l 2,9,10
 380 1400 380 1400 380 1204 c 2,11,-1
 380 1056 l 1,12,-1
 632 1056 l 1,13,-1
 632 928 l 1,14,-1
 380 928 l 1,15,-1
 380 0 l 1,16,-1
 228 0 l 1,17,-1
 228 928 l 1,18,-1
 48 928 l 1,0,-1
EndSplineSet
EndChar

StartChar: g
Encoding: 103 103 74
Width: 1144
GlyphClass: 2
Flags: W
LayerCount: 2
Fore
SplineSet
240 548 m 0,0,1
 240 362 240 362 322 247 c 128,-1,2
 404 132 404 132 538 132 c 0,3,4
 674 132 674 132 753 242 c 128,-1,5
 832 352 832 352 832 550 c 0,6,7
 832 742 832 742 751 853 c 128,-1,8
 670 964 670 964 542 964 c 0,9,10
 404 964 404 964 322 847 c 128,-1,11
 240 730 240 730 240 548 c 0,0,1
86 546 m 0,12,13
 86 790 86 790 208 941 c 128,-1,14
 330 1092 330 1092 522 1092 c 0,15,16
 644 1092 644 1092 721 1029 c 128,-1,17
 798 966 798 966 832 884 c 1,18,-1
 832 1056 l 1,19,-1
 982 1056 l 1,20,-1
 982 124 l 2,21,22
 982 -176 982 -176 875 -323 c 128,-1,23
 768 -470 768 -470 534 -470 c 0,24,25
 280 -470 280 -470 142 -276 c 1,26,-1
 248 -208 l 1,27,28
 368 -346 368 -346 538 -346 c 0,29,30
 678 -346 678 -346 755 -237 c 128,-1,31
 832 -128 832 -128 832 54 c 2,32,-1
 832 206 l 1,33,34
 790 118 790 118 713 61 c 128,-1,35
 636 4 636 4 526 4 c 0,36,37
 326 4 326 4 206 156 c 128,-1,38
 86 308 86 308 86 546 c 0,12,13
EndSplineSet
EndChar

StartChar: h
Encoding: 104 104 75
Width: 1136
GlyphClass: 2
Flags: W
LayerCount: 2
Fore
SplineSet
168 0 m 1,0,-1
 168 1524 l 1,1,-1
 318 1524 l 1,2,-1
 318 886 l 1,3,-1
 322 886 l 1,4,5
 362 970 362 970 449 1031 c 128,-1,6
 536 1092 536 1092 648 1092 c 0,7,8
 990 1092 990 1092 990 682 c 2,9,-1
 990 0 l 1,10,-1
 840 0 l 1,11,-1
 840 658 l 2,12,13
 840 964 840 964 620 964 c 0,14,15
 498 964 498 964 408 864 c 128,-1,16
 318 764 318 764 318 626 c 2,17,-1
 318 0 l 1,18,-1
 168 0 l 1,0,-1
EndSplineSet
Substitution2: "'sups' Superscript lookup 5 subtable" uni02B0
Substitution2: "'aalt' Access All Alternates lookup 0 subtable" uni02B0
EndChar

StartChar: i
Encoding: 105 105 76
Width: 540
GlyphClass: 2
Flags: W
LayerCount: 2
Fore
SplineSet
172 1294 m 1,0,-1
 172 1492 l 1,1,-1
 366 1492 l 1,2,-1
 366 1294 l 1,3,-1
 172 1294 l 1,0,-1
196 0 m 1,4,-1
 196 1056 l 1,5,-1
 346 1056 l 1,6,-1
 346 0 l 1,7,-1
 196 0 l 1,4,-1
EndSplineSet
EndChar

StartChar: j
Encoding: 106 106 77
Width: 550
GlyphClass: 2
Flags: W
LayerCount: 2
Fore
SplineSet
180 1294 m 1,0,-1
 180 1492 l 1,1,-1
 376 1492 l 1,2,-1
 376 1294 l 1,3,-1
 180 1294 l 1,0,-1
-20 -320 m 1,4,-1
 28 -320 l 2,5,6
 204 -320 204 -320 204 -76 c 2,7,-1
 204 1056 l 1,8,-1
 354 1056 l 1,9,-1
 354 -84 l 2,10,11
 354 -262 354 -262 275 -355 c 128,-1,12
 196 -448 196 -448 52 -448 c 2,13,-1
 -20 -448 l 1,14,-1
 -20 -320 l 1,4,-1
EndSplineSet
Substitution2: "'sups' Superscript lookup 5 subtable" uni02B2
Substitution2: "'aalt' Access All Alternates lookup 0 subtable" uni02B2
EndChar

StartChar: k
Encoding: 107 107 78
Width: 1016
GlyphClass: 2
Flags: W
LayerCount: 2
Fore
SplineSet
172 0 m 1,0,-1
 172 1524 l 1,1,-1
 326 1524 l 1,2,-1
 326 526 l 1,3,-1
 786 1056 l 1,4,-1
 986 1056 l 1,5,-1
 608 634 l 1,6,-1
 1028 0 l 1,7,-1
 844 0 l 1,8,-1
 510 528 l 1,9,-1
 326 322 l 1,10,-1
 326 0 l 1,11,-1
 172 0 l 1,0,-1
EndSplineSet
EndChar

StartChar: l
Encoding: 108 108 79
Width: 510
GlyphClass: 2
Flags: W
LayerCount: 2
Fore
SplineSet
180 0 m 1,0,-1
 180 1524 l 1,1,-1
 330 1524 l 1,2,-1
 330 0 l 1,3,-1
 180 0 l 1,0,-1
EndSplineSet
Substitution2: "'sups' Superscript lookup 5 subtable" uni02E1
Substitution2: "'aalt' Access All Alternates lookup 0 subtable" uni02E1
EndChar

StartChar: m
Encoding: 109 109 80
Width: 1668
GlyphClass: 2
Flags: W
LayerCount: 2
Fore
SplineSet
158 0 m 1,0,-1
 158 1056 l 1,1,-1
 306 1056 l 1,2,-1
 306 896 l 1,3,4
 334 970 334 970 410 1031 c 128,-1,5
 486 1092 486 1092 604 1092 c 0,6,7
 720 1092 720 1092 781 1026 c 128,-1,8
 842 960 842 960 876 856 c 1,9,10
 886 882 886 882 907 915 c 128,-1,11
 928 948 928 948 967 991 c 128,-1,12
 1006 1034 1006 1034 1072 1063 c 128,-1,13
 1138 1092 1138 1092 1216 1092 c 0,14,15
 1522 1092 1522 1092 1522 682 c 2,16,-1
 1522 0 l 1,17,-1
 1370 0 l 1,18,-1
 1370 672 l 2,19,20
 1370 816 1370 816 1331 890 c 128,-1,21
 1292 964 1292 964 1182 964 c 0,22,23
 1068 964 1068 964 991 869 c 128,-1,24
 914 774 914 774 914 628 c 2,25,-1
 914 0 l 1,26,-1
 766 0 l 1,27,-1
 766 674 l 2,28,29
 766 964 766 964 574 964 c 0,30,31
 454 964 454 964 382 874 c 128,-1,32
 310 784 310 784 310 638 c 2,33,-1
 310 0 l 1,34,-1
 158 0 l 1,0,-1
EndSplineSet
EndChar

StartChar: n
Encoding: 110 110 81
Width: 1126
GlyphClass: 2
Flags: W
LayerCount: 2
Fore
SplineSet
158 0 m 1,0,-1
 158 1056 l 1,1,-1
 306 1056 l 1,2,-1
 306 876 l 1,3,-1
 308 876 l 1,4,5
 332 954 332 954 424 1023 c 128,-1,6
 516 1092 516 1092 644 1092 c 0,7,8
 790 1092 790 1092 886 999 c 128,-1,9
 982 906 982 906 982 682 c 2,10,-1
 982 0 l 1,11,-1
 828 0 l 1,12,-1
 828 658 l 2,13,14
 828 964 828 964 608 964 c 0,15,16
 486 964 486 964 398 866 c 128,-1,17
 310 768 310 768 310 630 c 2,18,-1
 310 0 l 1,19,-1
 158 0 l 1,0,-1
EndSplineSet
Substitution2: "'sups' Superscript lookup 5 subtable" uni207F
Substitution2: "'aalt' Access All Alternates lookup 0 subtable" uni207F
EndChar

StartChar: o
Encoding: 111 111 82
Width: 1122
GlyphClass: 2
Flags: W
LayerCount: 2
Fore
SplineSet
240 528 m 0,0,1
 240 328 240 328 332 210 c 128,-1,2
 424 92 424 92 562 92 c 0,3,4
 696 92 696 92 790 210 c 128,-1,5
 884 328 884 328 884 528 c 0,6,7
 884 732 884 732 789 848 c 128,-1,8
 694 964 694 964 562 964 c 0,9,10
 426 964 426 964 333 848 c 128,-1,11
 240 732 240 732 240 528 c 0,0,1
86 528 m 0,12,13
 86 770 86 770 211 931 c 128,-1,14
 336 1092 336 1092 562 1092 c 0,15,16
 786 1092 786 1092 911 931 c 128,-1,17
 1036 770 1036 770 1036 528 c 0,18,19
 1036 426 1036 426 1010 330 c 128,-1,20
 984 234 984 234 930 150 c 128,-1,21
 876 66 876 66 780 15 c 128,-1,22
 684 -36 684 -36 562 -36 c 256,23,24
 440 -36 440 -36 345 14 c 128,-1,25
 250 64 250 64 196 148 c 128,-1,26
 142 232 142 232 114 328 c 128,-1,27
 86 424 86 424 86 528 c 0,12,13
EndSplineSet
Substitution2: "Single Substitution lookup 12 subtable" ordmasculine
EndChar

StartChar: p
Encoding: 112 112 83
Width: 1170
GlyphClass: 2
Flags: W
LayerCount: 2
Fore
SplineSet
318 530 m 0,0,1
 318 334 318 334 398 213 c 128,-1,2
 478 92 478 92 620 92 c 0,3,4
 754 92 754 92 842 210 c 128,-1,5
 930 328 930 328 930 530 c 0,6,7
 930 720 930 720 847 842 c 128,-1,8
 764 964 764 964 620 964 c 0,9,10
 486 964 486 964 402 841 c 128,-1,11
 318 718 318 718 318 530 c 0,0,1
168 -462 m 1,12,-1
 168 1056 l 1,13,-1
 314 1056 l 1,14,-1
 314 866 l 1,15,16
 360 968 360 968 445 1030 c 128,-1,17
 530 1092 530 1092 640 1092 c 0,18,19
 832 1092 832 1092 958 939 c 128,-1,20
 1084 786 1084 786 1084 530 c 0,21,22
 1084 258 1084 258 952 111 c 128,-1,23
 820 -36 820 -36 640 -36 c 0,24,25
 522 -36 522 -36 440 26 c 128,-1,26
 358 88 358 88 318 182 c 1,27,-1
 318 -462 l 1,28,-1
 168 -462 l 1,12,-1
EndSplineSet
EndChar

StartChar: q
Encoding: 113 113 84
Width: 1166
GlyphClass: 2
Flags: W
LayerCount: 2
Fore
SplineSet
240 530 m 0,0,1
 240 330 240 330 327 211 c 128,-1,2
 414 92 414 92 550 92 c 256,3,4
 686 92 686 92 769 213 c 128,-1,5
 852 334 852 334 852 530 c 0,6,7
 852 722 852 722 767 843 c 128,-1,8
 682 964 682 964 550 964 c 0,9,10
 402 964 402 964 321 842 c 128,-1,11
 240 720 240 720 240 530 c 0,0,1
86 530 m 0,12,13
 86 788 86 788 211 940 c 128,-1,14
 336 1092 336 1092 530 1092 c 0,15,16
 638 1092 638 1092 723 1031 c 128,-1,17
 808 970 808 970 856 866 c 1,18,-1
 856 1056 l 1,19,-1
 1000 1056 l 1,20,-1
 1000 -462 l 1,21,-1
 852 -462 l 1,22,-1
 852 182 l 1,23,24
 812 88 812 88 728 26 c 128,-1,25
 644 -36 644 -36 530 -36 c 0,26,27
 350 -36 350 -36 218 111 c 128,-1,28
 86 258 86 258 86 530 c 0,12,13
EndSplineSet
EndChar

StartChar: r
Encoding: 114 114 85
Width: 736
GlyphClass: 2
Flags: W
LayerCount: 2
Fore
SplineSet
158 0 m 1,0,-1
 158 1056 l 1,1,-1
 302 1056 l 1,2,-1
 302 902 l 1,3,4
 334 974 334 974 406 1033 c 128,-1,5
 478 1092 478 1092 592 1092 c 0,6,7
 678 1092 678 1092 742 1064 c 1,8,-1
 742 926 l 1,9,10
 672 954 672 954 592 954 c 0,11,12
 460 954 460 954 385 854 c 128,-1,13
 310 754 310 754 310 588 c 2,14,-1
 310 0 l 1,15,-1
 158 0 l 1,0,-1
EndSplineSet
Substitution2: "'sups' Superscript lookup 5 subtable" uni02B3
Substitution2: "'aalt' Access All Alternates lookup 0 subtable" uni02B3
EndChar

StartChar: s
Encoding: 115 115 86
Width: 984
GlyphClass: 2
Flags: W
LayerCount: 2
Fore
SplineSet
70 208 m 1,0,-1
 184 274 l 1,1,2
 300 92 300 92 498 92 c 0,3,4
 618 92 618 92 690 135 c 128,-1,5
 762 178 762 178 762 262 c 0,6,7
 762 296 762 296 744 325 c 128,-1,8
 726 354 726 354 705 372 c 128,-1,9
 684 390 684 390 631 413 c 128,-1,10
 578 436 578 436 544 447 c 128,-1,11
 510 458 510 458 432 482 c 0,12,13
 364 504 364 504 314 526 c 128,-1,14
 264 548 264 548 211 584 c 128,-1,15
 158 620 158 620 130 673 c 128,-1,16
 102 726 102 726 102 794 c 0,17,18
 102 926 102 926 208 1009 c 128,-1,19
 314 1092 314 1092 498 1092 c 0,20,21
 628 1092 628 1092 736 1023 c 128,-1,22
 844 954 844 954 892 862 c 1,23,-1
 788 794 l 1,24,25
 748 864 748 864 670 914 c 128,-1,26
 592 964 592 964 498 964 c 0,27,28
 378 964 378 964 317 918 c 128,-1,29
 256 872 256 872 256 792 c 0,30,31
 256 748 256 748 279 712 c 128,-1,32
 302 676 302 676 350 649 c 128,-1,33
 398 622 398 622 438 607 c 128,-1,34
 478 592 478 592 546 572 c 0,35,36
 602 554 602 554 646 538 c 128,-1,37
 690 522 690 522 743 495 c 128,-1,38
 796 468 796 468 832 437 c 128,-1,39
 868 406 868 406 891 360 c 128,-1,40
 914 314 914 314 914 262 c 0,41,42
 914 136 914 136 803 50 c 128,-1,43
 692 -36 692 -36 498 -36 c 0,44,45
 358 -36 358 -36 248 28 c 128,-1,46
 138 92 138 92 70 208 c 1,0,-1
EndSplineSet
Substitution2: "'hist' Historical Forms lookup 11 subtable" longs
Substitution2: "'sups' Superscript lookup 5 subtable" uni02E2
AlternateSubs2: "'aalt' Access All Alternates lookup 1 subtable" uni02E2 longs
EndChar

StartChar: t
Encoding: 116 116 87
Width: 716
GlyphClass: 2
Flags: W
LayerCount: 2
Fore
SplineSet
40 928 m 1,0,-1
 40 1056 l 1,1,-1
 224 1056 l 1,2,-1
 224 1394 l 1,3,-1
 376 1394 l 1,4,-1
 376 1056 l 1,5,-1
 656 1056 l 1,6,-1
 656 928 l 1,7,-1
 376 928 l 1,8,-1
 376 310 l 2,9,10
 376 212 376 212 414 171 c 128,-1,11
 452 130 452 130 534 130 c 2,12,-1
 656 130 l 1,13,-1
 656 0 l 1,14,-1
 514 0 l 2,15,16
 224 0 224 0 224 296 c 2,17,-1
 224 928 l 1,18,-1
 40 928 l 1,0,-1
EndSplineSet
EndChar

StartChar: u
Encoding: 117 117 88
Width: 1120
GlyphClass: 2
Flags: W
LayerCount: 2
Fore
SplineSet
146 370 m 2,0,-1
 146 1056 l 1,1,-1
 298 1056 l 1,2,-1
 298 402 l 2,3,4
 298 92 298 92 526 92 c 0,5,6
 666 92 666 92 739 200 c 128,-1,7
 812 308 812 308 812 456 c 2,8,-1
 812 1056 l 1,9,-1
 962 1056 l 1,10,-1
 962 0 l 1,11,-1
 816 0 l 1,12,-1
 816 170 l 1,13,14
 800 106 800 106 719 35 c 128,-1,15
 638 -36 638 -36 490 -36 c 0,16,17
 340 -36 340 -36 243 67 c 128,-1,18
 146 170 146 170 146 370 c 2,0,-1
EndSplineSet
EndChar

StartChar: v
Encoding: 118 118 89
Width: 994
GlyphClass: 2
Flags: W
LayerCount: 2
Fore
SplineSet
16 1056 m 1,0,-1
 184 1056 l 1,1,-1
 412 394 l 2,2,3
 428 346 428 346 455 257 c 128,-1,4
 482 168 482 168 494 132 c 1,5,-1
 498 132 l 1,6,7
 512 176 512 176 542 263 c 128,-1,8
 572 350 572 350 584 394 c 2,9,-1
 808 1056 l 1,10,-1
 978 1056 l 1,11,-1
 588 0 l 1,12,-1
 404 0 l 1,13,-1
 16 1056 l 1,0,-1
EndSplineSet
EndChar

StartChar: w
Encoding: 119 119 90
Width: 1430
GlyphClass: 2
Flags: W
LayerCount: 2
Fore
SplineSet
16 1056 m 1,0,-1
 184 1056 l 1,1,-1
 340 400 l 2,2,3
 388 174 388 174 396 140 c 1,4,-1
 404 140 l 1,5,6
 414 186 414 186 436 275 c 128,-1,7
 458 364 458 364 466 400 c 2,8,-1
 626 1056 l 1,9,-1
 806 1056 l 1,10,-1
 970 392 l 2,11,12
 978 360 978 360 997 277 c 128,-1,13
 1016 194 1016 194 1028 140 c 1,14,-1
 1036 140 l 1,15,16
 1042 162 1042 162 1094 400 c 2,17,-1
 1248 1056 l 1,18,-1
 1416 1056 l 1,19,-1
 1126 0 l 1,20,-1
 936 0 l 1,21,-1
 778 636 l 2,22,23
 724 876 724 876 720 894 c 1,24,-1
 712 894 l 1,25,26
 666 674 666 674 656 636 c 2,27,-1
 496 0 l 1,28,-1
 306 0 l 1,29,-1
 16 1056 l 1,0,-1
EndSplineSet
Substitution2: "'sups' Superscript lookup 5 subtable" uni02B7
Substitution2: "'aalt' Access All Alternates lookup 0 subtable" uni02B7
EndChar

StartChar: x
Encoding: 120 120 91
Width: 964
GlyphClass: 2
Flags: W
LayerCount: 2
Fore
SplineSet
8 0 m 1,0,-1
 388 548 l 1,1,-1
 28 1056 l 1,2,-1
 208 1056 l 1,3,-1
 392 784 l 2,4,5
 408 758 408 758 436 716 c 128,-1,6
 464 674 464 674 474 658 c 1,7,-1
 482 658 l 1,8,9
 494 680 494 680 523 723 c 128,-1,10
 552 766 552 766 564 784 c 2,11,-1
 746 1056 l 1,12,-1
 926 1056 l 1,13,-1
 570 548 l 1,14,-1
 950 0 l 1,15,-1
 770 0 l 1,16,-1
 564 314 l 2,17,18
 512 386 512 386 482 434 c 1,19,-1
 474 434 l 1,20,21
 466 416 466 416 396 314 c 2,22,-1
 188 0 l 1,23,-1
 8 0 l 1,0,-1
EndSplineSet
Substitution2: "'sups' Superscript lookup 5 subtable" uni02E3
Substitution2: "'aalt' Access All Alternates lookup 0 subtable" uni02E3
EndChar

StartChar: y
Encoding: 121 121 92
Width: 988
GlyphClass: 2
Flags: W
LayerCount: 2
Fore
SplineSet
16 1056 m 1,0,-1
 192 1056 l 1,1,-1
 410 438 l 2,2,3
 460 300 460 300 498 170 c 1,4,-1
 506 170 l 1,5,6
 536 266 536 266 592 438 c 2,7,-1
 800 1056 l 1,8,-1
 974 1056 l 1,9,-1
 518 -176 l 2,10,11
 460 -334 460 -334 382 -398 c 128,-1,12
 304 -462 304 -462 192 -462 c 2,13,-1
 134 -462 l 1,14,-1
 134 -336 l 1,15,-1
 168 -336 l 2,16,17
 244 -336 244 -336 296 -293 c 128,-1,18
 348 -250 348 -250 388 -138 c 2,19,-1
 428 -14 l 1,20,-1
 16 1056 l 1,0,-1
EndSplineSet
Substitution2: "'sups' Superscript lookup 5 subtable" uni02B8
Substitution2: "'aalt' Access All Alternates lookup 0 subtable" uni02B8
EndChar

StartChar: z
Encoding: 122 122 93
Width: 954
GlyphClass: 2
Flags: W
LayerCount: 2
Fore
SplineSet
62 0 m 1,0,-1
 62 102 l 1,1,-1
 680 928 l 1,2,-1
 118 928 l 1,3,-1
 118 1056 l 1,4,-1
 876 1056 l 1,5,-1
 876 960 l 1,6,-1
 256 128 l 1,7,-1
 892 128 l 1,8,-1
 892 0 l 1,9,-1
 62 0 l 1,0,-1
EndSplineSet
EndChar

StartChar: braceleft
Encoding: 123 123 94
Width: 892
GlyphClass: 2
Flags: W
LayerCount: 2
Fore
SplineSet
132 638 m 1,0,-1
 132 756 l 1,1,-1
 186 756 l 2,2,3
 332 756 332 756 332 1024 c 2,4,-1
 332 1408 l 2,5,6
 332 1528 332 1528 399 1596 c 128,-1,7
 466 1664 466 1664 568 1664 c 2,8,-1
 722 1664 l 1,9,-1
 722 1538 l 1,10,-1
 592 1538 l 2,11,12
 546 1538 546 1538 514 1499 c 128,-1,13
 482 1460 482 1460 482 1388 c 2,14,-1
 482 998 l 2,15,16
 482 874 482 874 444 808 c 128,-1,17
 406 742 406 742 336 696 c 1,18,19
 482 620 482 620 482 420 c 2,20,-1
 482 34 l 2,21,22
 482 -50 482 -50 514 -91 c 128,-1,23
 546 -132 546 -132 596 -132 c 2,24,-1
 722 -132 l 1,25,-1
 722 -256 l 1,26,-1
 568 -256 l 2,27,28
 468 -256 468 -256 400 -193 c 128,-1,29
 332 -130 332 -130 332 -2 c 2,30,-1
 332 394 l 2,31,32
 332 510 332 510 291 574 c 128,-1,33
 250 638 250 638 186 638 c 2,34,-1
 132 638 l 1,0,-1
EndSplineSet
EndChar

StartChar: bar
Encoding: 124 124 95
Width: 536
GlyphClass: 2
Flags: W
LayerCount: 2
Fore
SplineSet
192 -332 m 1,0,-1
 192 1732 l 1,1,-1
 346 1732 l 1,2,-1
 346 -332 l 1,3,-1
 192 -332 l 1,0,-1
EndSplineSet
EndChar

StartChar: braceright
Encoding: 125 125 96
Width: 892
GlyphClass: 2
Flags: W
LayerCount: 2
Fore
SplineSet
168 -132 m 1,0,-1
 294 -132 l 2,1,2
 346 -132 346 -132 377 -91 c 128,-1,3
 408 -50 408 -50 408 34 c 2,4,-1
 408 420 l 2,5,6
 408 620 408 620 556 696 c 1,7,8
 484 742 484 742 446 808 c 128,-1,9
 408 874 408 874 408 998 c 2,10,-1
 408 1388 l 2,11,12
 408 1460 408 1460 378 1499 c 128,-1,13
 348 1538 348 1538 298 1538 c 2,14,-1
 168 1538 l 1,15,-1
 168 1664 l 1,16,-1
 324 1664 l 2,17,18
 426 1664 426 1664 493 1596 c 128,-1,19
 560 1528 560 1528 560 1408 c 2,20,-1
 560 1024 l 2,21,22
 560 756 560 756 704 756 c 2,23,-1
 760 756 l 1,24,-1
 760 638 l 1,25,-1
 704 638 l 2,26,27
 640 638 640 638 600 573 c 128,-1,28
 560 508 560 508 560 394 c 2,29,-1
 560 -2 l 2,30,31
 560 -130 560 -130 492 -193 c 128,-1,32
 424 -256 424 -256 324 -256 c 2,33,-1
 168 -256 l 1,34,-1
 168 -132 l 1,0,-1
EndSplineSet
EndChar

StartChar: asciitilde
Encoding: 126 126 97
Width: 1518
GlyphClass: 2
Flags: W
LayerCount: 2
Fore
SplineSet
138 616 m 1,0,1
 268 898 268 898 518 898 c 0,2,3
 594 898 594 898 666 858 c 128,-1,4
 738 818 738 818 783 770 c 128,-1,5
 828 722 828 722 887 682 c 128,-1,6
 946 642 946 642 1000 642 c 0,7,8
 1030 642 1030 642 1058 649 c 128,-1,9
 1086 656 1086 656 1105 666 c 128,-1,10
 1124 676 1124 676 1144 694 c 128,-1,11
 1164 712 1164 712 1176 725 c 128,-1,12
 1188 738 1188 738 1202 763 c 128,-1,13
 1216 788 1216 788 1222 798 c 128,-1,14
 1228 808 1228 808 1240 834 c 128,-1,15
 1252 860 1252 860 1254 864 c 1,16,-1
 1380 800 l 1,17,18
 1240 516 1240 516 1004 516 c 0,19,20
 924 516 924 516 852 556 c 128,-1,21
 780 596 780 596 734 644 c 128,-1,22
 688 692 688 692 631 733 c 128,-1,23
 574 774 574 774 518 774 c 0,24,25
 368 774 368 774 262 552 c 1,26,-1
 138 616 l 1,0,1
EndSplineSet
EndChar

StartChar: exclamdown
Encoding: 161 161 99
Width: 620
GlyphClass: 2
Flags: W
LayerCount: 2
Fore
SplineSet
224 -422 m 1,0,-1
 242 636 l 1,1,-1
 380 636 l 1,2,-1
 398 -422 l 1,3,-1
 224 -422 l 1,0,-1
186 838 m 1,4,-1
 186 1064 l 1,5,-1
 434 1064 l 1,6,-1
 434 838 l 1,7,-1
 186 838 l 1,4,-1
EndSplineSet
EndChar

StartChar: cent
Encoding: 162 162 100
Width: 1006
GlyphClass: 2
Flags: W
LayerCount: 2
Fore
SplineSet
86 528 m 0,0,1
 86 750 86 750 193 908 c 128,-1,2
 300 1066 300 1066 488 1086 c 1,3,-1
 488 1240 l 1,4,-1
 628 1240 l 1,5,-1
 628 1086 l 1,6,7
 748 1064 748 1064 825 988 c 128,-1,8
 902 912 902 912 932 818 c 1,9,-1
 806 780 l 1,10,11
 774 856 774 856 711 910 c 128,-1,12
 648 964 648 964 564 964 c 0,13,14
 412 964 412 964 326 841 c 128,-1,15
 240 718 240 718 240 528 c 0,16,17
 240 332 240 332 328 212 c 128,-1,18
 416 92 416 92 562 92 c 0,19,20
 650 92 650 92 723 151 c 128,-1,21
 796 210 796 210 830 290 c 1,22,-1
 960 250 l 1,23,24
 922 150 922 150 838 73 c 128,-1,25
 754 -4 754 -4 628 -30 c 1,26,-1
 628 -192 l 1,27,-1
 488 -192 l 1,28,-1
 488 -30 l 1,29,30
 310 -12 310 -12 198 139 c 128,-1,31
 86 290 86 290 86 528 c 0,0,1
EndSplineSet
EndChar

StartChar: sterling
Encoding: 163 163 101
Width: 1168
GlyphClass: 2
Flags: W
LayerCount: 2
Fore
SplineSet
76 664 m 1,0,-1
 76 796 l 1,1,-1
 294 796 l 1,2,-1
 294 1138 l 2,3,4
 294 1312 294 1312 405 1409 c 128,-1,5
 516 1506 516 1506 702 1506 c 0,6,7
 830 1506 830 1506 924 1442 c 128,-1,8
 1018 1378 1018 1378 1062 1292 c 1,9,-1
 956 1224 l 1,10,11
 916 1286 916 1286 850 1329 c 128,-1,12
 784 1372 784 1372 704 1372 c 0,13,14
 588 1372 588 1372 519 1309 c 128,-1,15
 450 1246 450 1246 450 1124 c 2,16,-1
 450 796 l 1,17,-1
 900 796 l 1,18,-1
 900 664 l 1,19,-1
 450 664 l 1,20,-1
 450 422 l 2,21,22
 450 216 450 216 354 140 c 1,23,24
 462 158 462 158 528 158 c 0,25,26
 586 158 586 158 685 128 c 128,-1,27
 784 98 784 98 850 98 c 0,28,29
 992 98 992 98 1102 160 c 1,30,-1
 1148 36 l 1,31,32
 1006 -36 1006 -36 846 -36 c 0,33,34
 784 -36 784 -36 663 -3 c 128,-1,35
 542 30 542 30 480 30 c 0,36,37
 414 30 414 30 324 16 c 128,-1,38
 234 2 234 2 176 -12 c 2,39,-1
 122 -26 l 1,40,-1
 78 88 l 1,41,42
 186 116 186 116 240 204 c 128,-1,43
 294 292 294 292 294 414 c 2,44,-1
 294 664 l 1,45,-1
 76 664 l 1,0,-1
EndSplineSet
EndChar

StartChar: currency
Encoding: 164 164 102
Width: 1266
GlyphClass: 2
Flags: W
LayerCount: 2
Fore
SplineSet
52 288 m 1,0,-1
 272 492 l 1,1,2
 190 594 190 594 190 736 c 0,3,4
 190 884 190 884 270 982 c 1,5,-1
 52 1184 l 1,6,-1
 158 1282 l 1,7,-1
 368 1080 l 1,8,9
 490 1168 490 1168 634 1168 c 0,10,11
 782 1168 782 1168 900 1080 c 1,12,-1
 1108 1280 l 1,13,-1
 1212 1182 l 1,14,-1
 998 982 l 1,15,16
 1080 886 1080 886 1080 736 c 0,17,18
 1080 594 1080 594 998 492 c 1,19,-1
 1212 288 l 1,20,-1
 1110 190 l 1,21,-1
 898 392 l 1,22,23
 786 304 786 304 634 304 c 0,24,25
 484 304 484 304 368 392 c 1,26,-1
 158 192 l 1,27,-1
 52 288 l 1,0,-1
330 736 m 256,28,29
 330 612 330 612 415 524 c 128,-1,30
 500 436 500 436 634 436 c 256,31,32
 768 436 768 436 854 524 c 128,-1,33
 940 612 940 612 940 736 c 0,34,35
 940 862 940 862 853 948 c 128,-1,36
 766 1034 766 1034 634 1034 c 256,37,38
 502 1034 502 1034 416 947 c 128,-1,39
 330 860 330 860 330 736 c 256,28,29
EndSplineSet
EndChar

StartChar: yen
Encoding: 165 165 103
Width: 1182
GlyphClass: 2
Flags: W
LayerCount: 2
Fore
SplineSet
-8 1470 m 1,0,-1
 180 1470 l 1,1,-1
 424 1100 l 2,2,3
 532 930 532 930 588 832 c 1,4,-1
 592 832 l 1,5,6
 692 994 692 994 756 1100 c 2,7,-1
 1000 1470 l 1,8,-1
 1190 1470 l 1,9,-1
 748 808 l 1,10,-1
 1056 808 l 1,11,-1
 1056 694 l 1,12,-1
 670 694 l 1,13,-1
 670 466 l 1,14,-1
 1056 466 l 1,15,-1
 1056 352 l 1,16,-1
 670 352 l 1,17,-1
 670 0 l 1,18,-1
 512 0 l 1,19,-1
 512 352 l 1,20,-1
 124 352 l 1,21,-1
 124 466 l 1,22,-1
 512 466 l 1,23,-1
 512 694 l 1,24,-1
 124 694 l 1,25,-1
 124 808 l 1,26,-1
 434 808 l 1,27,-1
 -8 1470 l 1,0,-1
EndSplineSet
EndChar

StartChar: brokenbar
Encoding: 166 166 104
Width: 536
GlyphClass: 2
Flags: W
LayerCount: 2
Fore
SplineSet
192 924 m 1,0,-1
 192 1732 l 1,1,-1
 346 1732 l 1,2,-1
 346 924 l 1,3,-1
 192 924 l 1,0,-1
192 -332 m 1,4,-1
 192 474 l 1,5,-1
 346 474 l 1,6,-1
 346 -332 l 1,7,-1
 192 -332 l 1,4,-1
EndSplineSet
EndChar

StartChar: section
Encoding: 167 167 105
Width: 1118
GlyphClass: 2
Flags: W
LayerCount: 2
Fore
SplineSet
116 92 m 1,0,-1
 220 168 l 1,1,2
 264 104 264 104 343 63 c 128,-1,3
 422 22 422 22 518 22 c 0,4,5
 758 22 758 22 758 168 c 0,6,7
 758 224 758 224 723 255 c 128,-1,8
 688 286 688 286 606 326 c 2,9,-1
 392 422 l 2,10,11
 264 478 264 478 204 545 c 128,-1,12
 144 612 144 612 144 708 c 0,13,14
 144 778 144 778 179 839 c 128,-1,15
 214 900 214 900 249 933 c 128,-1,16
 284 966 284 966 338 1004 c 1,17,18
 202 1108 202 1108 202 1220 c 0,19,20
 202 1348 202 1348 303 1427 c 128,-1,21
 404 1506 404 1506 600 1506 c 0,22,23
 730 1506 730 1506 835 1449 c 128,-1,24
 940 1392 940 1392 998 1302 c 1,25,-1
 896 1224 l 1,26,27
 770 1372 770 1372 596 1372 c 0,28,29
 474 1372 474 1372 417 1330 c 128,-1,30
 360 1288 360 1288 360 1220 c 0,31,32
 360 1196 360 1196 367 1174 c 128,-1,33
 374 1152 374 1152 395 1131 c 128,-1,34
 416 1110 416 1110 434 1096 c 128,-1,35
 452 1082 452 1082 488 1063 c 128,-1,36
 524 1044 524 1044 545 1033 c 128,-1,37
 566 1022 566 1022 613 1002 c 128,-1,38
 660 982 660 982 680 972 c 0,39,40
 760 932 760 932 804 908 c 128,-1,41
 848 884 848 884 900 843 c 128,-1,42
 952 802 952 802 975 753 c 128,-1,43
 998 704 998 704 998 642 c 0,44,45
 998 488 998 488 832 352 c 1,46,47
 914 276 914 276 914 168 c 0,48,49
 914 44 914 44 817 -34 c 128,-1,50
 720 -112 720 -112 520 -112 c 0,51,52
 382 -112 382 -112 275 -51 c 128,-1,53
 168 10 168 10 116 92 c 1,0,-1
302 716 m 0,54,55
 302 644 302 644 341 610 c 128,-1,56
 380 576 380 576 490 524 c 2,57,-1
 710 426 l 1,58,59
 840 530 840 530 840 642 c 0,60,61
 840 704 840 704 792 746 c 128,-1,62
 744 788 744 788 632 844 c 2,63,-1
 456 934 l 1,64,65
 380 880 380 880 341 832 c 128,-1,66
 302 784 302 784 302 716 c 0,54,55
EndSplineSet
EndChar

StartChar: dieresis
Encoding: 168 168 106
Width: 954
GlyphClass: 2
Flags: W
LayerCount: 2
Fore
SplineSet
198 1270 m 1,0,-1
 198 1470 l 1,1,-1
 398 1470 l 1,2,-1
 398 1270 l 1,3,-1
 198 1270 l 1,0,-1
558 1270 m 1,4,-1
 558 1470 l 1,5,-1
 756 1470 l 1,6,-1
 756 1270 l 1,7,-1
 558 1270 l 1,4,-1
EndSplineSet
EndChar

StartChar: copyright
Encoding: 169 169 107
Width: 1750
GlyphClass: 2
Flags: W
LayerCount: 2
Fore
SplineSet
504 744 m 0,0,1
 504 956 504 956 612 1086 c 128,-1,2
 720 1216 720 1216 902 1216 c 0,3,4
 1112 1216 1112 1216 1216 992 c 1,5,-1
 1102 952 l 1,6,7
 1020 1096 1020 1096 900 1096 c 0,8,9
 782 1096 782 1096 712 999 c 128,-1,10
 642 902 642 902 642 744 c 0,11,12
 642 580 642 580 712 485 c 128,-1,13
 782 390 782 390 900 390 c 0,14,15
 976 390 976 390 1034 435 c 128,-1,16
 1092 480 1092 480 1118 548 c 1,17,-1
 1240 510 l 1,18,19
 1206 414 1206 414 1117 342 c 128,-1,20
 1028 270 1028 270 900 270 c 0,21,22
 724 270 724 270 614 399 c 128,-1,23
 504 528 504 528 504 744 c 0,0,1
94 746 m 0,24,25
 94 1094 94 1094 317 1313 c 128,-1,26
 540 1532 540 1532 876 1532 c 0,27,28
 1214 1532 1214 1532 1436 1312 c 128,-1,29
 1658 1092 1658 1092 1658 746 c 0,30,31
 1658 406 1658 406 1437 183 c 128,-1,32
 1216 -40 1216 -40 876 -40 c 0,33,34
 540 -40 540 -40 317 180 c 128,-1,35
 94 400 94 400 94 746 c 0,24,25
208 746 m 0,36,37
 208 452 208 452 393 259 c 128,-1,38
 578 66 578 66 876 66 c 0,39,40
 1170 66 1170 66 1357 256 c 128,-1,41
 1544 446 1544 446 1544 746 c 0,42,43
 1544 1042 1544 1042 1357 1234 c 128,-1,44
 1170 1426 1170 1426 876 1426 c 256,45,46
 582 1426 582 1426 395 1236 c 128,-1,47
 208 1046 208 1046 208 746 c 0,36,37
EndSplineSet
EndChar

StartChar: ordfeminine
Encoding: 170 170 108
Width: 776
GlyphClass: 2
Flags: W
LayerCount: 2
Fore
SplineSet
80 660 m 1,0,-1
 80 766 l 1,1,-1
 694 766 l 1,2,-1
 694 660 l 1,3,-1
 80 660 l 1,0,-1
182 1094 m 0,4,5
 182 1046 182 1046 222 1013 c 128,-1,6
 262 980 262 980 334 980 c 0,7,8
 424 980 424 980 490 1039 c 128,-1,9
 556 1098 556 1098 556 1190 c 2,10,-1
 556 1280 l 1,11,12
 524 1272 524 1272 464 1263 c 128,-1,13
 404 1254 404 1254 362 1245 c 128,-1,14
 320 1236 320 1236 275 1219 c 128,-1,15
 230 1202 230 1202 206 1170 c 128,-1,16
 182 1138 182 1138 182 1094 c 0,4,5
62 1086 m 0,17,18
 62 1158 62 1158 96 1209 c 128,-1,19
 130 1260 130 1260 192 1286 c 128,-1,20
 254 1312 254 1312 310 1327 c 128,-1,21
 366 1342 366 1342 443 1355 c 128,-1,22
 520 1368 520 1368 556 1378 c 1,23,-1
 556 1414 l 2,24,25
 556 1476 556 1476 510 1518 c 128,-1,26
 464 1560 464 1560 378 1560 c 0,27,28
 304 1560 304 1560 243 1522 c 128,-1,29
 182 1484 182 1484 158 1446 c 1,30,-1
 78 1512 l 1,31,32
 110 1556 110 1556 193 1607 c 128,-1,33
 276 1658 276 1658 376 1658 c 0,34,35
 674 1658 674 1658 674 1370 c 2,36,-1
 674 900 l 1,37,-1
 560 900 l 1,38,-1
 560 996 l 1,39,40
 528 944 528 944 465 911 c 128,-1,41
 402 878 402 878 322 878 c 0,42,43
 200 878 200 878 131 936 c 128,-1,44
 62 994 62 994 62 1086 c 0,17,18
EndSplineSet
EndChar

StartChar: guillemotleft
Encoding: 171 171 109
Width: 924
GlyphClass: 2
Flags: W
LayerCount: 2
Fore
SplineSet
76 498 m 1,0,-1
 394 948 l 1,1,-1
 506 874 l 1,2,-1
 244 498 l 1,3,-1
 504 126 l 1,4,-1
 394 50 l 1,5,-1
 76 498 l 1,0,-1
428 498 m 1,6,-1
 746 934 l 1,7,-1
 854 854 l 1,8,-1
 594 498 l 1,9,-1
 854 142 l 1,10,-1
 746 62 l 1,11,-1
 428 498 l 1,6,-1
EndSplineSet
EndChar

StartChar: logicalnot
Encoding: 172 172 110
Width: 1092
GlyphClass: 2
Flags: W
LayerCount: 2
Fore
SplineSet
96 632 m 1,0,-1
 96 766 l 1,1,-1
 998 766 l 1,2,-1
 998 248 l 1,3,-1
 852 248 l 1,4,-1
 852 632 l 1,5,-1
 96 632 l 1,0,-1
EndSplineSet
EndChar

StartChar: uni00AD
Encoding: 173 173 111
Width: 1116
GlyphClass: 2
Flags: W
LayerCount: 2
Fore
SplineSet
114 662 m 1,0,-1
 114 794 l 1,1,-1
 1000 794 l 1,2,-1
 1000 662 l 1,3,-1
 114 662 l 1,0,-1
EndSplineSet
EndChar

StartChar: registered
Encoding: 174 174 112
Width: 1750
GlyphClass: 2
Flags: W
LayerCount: 2
Fore
SplineSet
598 292 m 1,0,-1
 598 1190 l 1,1,-1
 946 1190 l 2,2,3
 1076 1190 1076 1190 1145 1117 c 128,-1,4
 1214 1044 1214 1044 1214 936 c 0,5,6
 1214 778 1214 778 1078 716 c 1,7,8
 1146 672 1146 672 1172 548 c 0,9,10
 1198 426 1198 426 1266 292 c 1,11,-1
 1118 292 l 1,12,13
 1072 376 1072 376 1038 534 c 0,14,15
 1030 578 1030 578 1021 601 c 128,-1,16
 1012 624 1012 624 987 647 c 128,-1,17
 962 670 962 670 922 670 c 2,18,-1
 732 670 l 1,19,-1
 732 292 l 1,20,-1
 598 292 l 1,0,-1
732 780 m 1,21,-1
 924 780 l 2,22,23
 998 780 998 780 1040 819 c 128,-1,24
 1082 858 1082 858 1082 926 c 0,25,26
 1082 988 1082 988 1041 1028 c 128,-1,27
 1000 1068 1000 1068 924 1068 c 2,28,-1
 732 1068 l 1,29,-1
 732 780 l 1,21,-1
94 748 m 256,30,31
 94 1096 94 1096 317 1314 c 128,-1,32
 540 1532 540 1532 876 1532 c 0,33,34
 1214 1532 1214 1532 1436 1313 c 128,-1,35
 1658 1094 1658 1094 1658 748 c 0,36,37
 1658 408 1658 408 1438 184 c 128,-1,38
 1218 -40 1218 -40 876 -40 c 0,39,40
 540 -40 540 -40 317 180 c 128,-1,41
 94 400 94 400 94 748 c 256,30,31
208 748 m 0,42,43
 208 452 208 452 393 259 c 128,-1,44
 578 66 578 66 876 66 c 0,45,46
 1170 66 1170 66 1357 259 c 128,-1,47
 1544 452 1544 452 1544 748 c 0,48,49
 1544 1046 1544 1046 1356 1236 c 128,-1,50
 1168 1426 1168 1426 876 1426 c 0,51,52
 582 1426 582 1426 395 1237 c 128,-1,53
 208 1048 208 1048 208 748 c 0,42,43
EndSplineSet
EndChar

StartChar: macron
Encoding: 175 175 113
Width: 1010
GlyphClass: 2
Flags: W
LayerCount: 2
Fore
SplineSet
0 1486 m 1,0,-1
 0 1618 l 1,1,-1
 1012 1618 l 1,2,-1
 1012 1486 l 1,3,-1
 0 1486 l 1,0,-1
EndSplineSet
EndChar

StartChar: degree
Encoding: 176 176 114
Width: 838
GlyphClass: 2
Flags: W
LayerCount: 2
Fore
SplineSet
168 1240 m 0,0,1
 168 1340 168 1340 239 1412 c 128,-1,2
 310 1484 310 1484 420 1484 c 0,3,4
 524 1484 524 1484 597 1415 c 128,-1,5
 670 1346 670 1346 670 1240 c 256,6,7
 670 1134 670 1134 597 1066 c 128,-1,8
 524 998 524 998 420 998 c 0,9,10
 314 998 314 998 241 1067 c 128,-1,11
 168 1136 168 1136 168 1240 c 0,0,1
270 1240 m 0,12,13
 270 1176 270 1176 313 1135 c 128,-1,14
 356 1094 356 1094 420 1094 c 0,15,16
 480 1094 480 1094 523 1135 c 128,-1,17
 566 1176 566 1176 566 1240 c 0,18,19
 566 1302 566 1302 525 1345 c 128,-1,20
 484 1388 484 1388 420 1388 c 0,21,22
 354 1388 354 1388 312 1344 c 128,-1,23
 270 1300 270 1300 270 1240 c 0,12,13
EndSplineSet
EndChar

StartChar: plusminus
Encoding: 177 177 115
Width: 1116
GlyphClass: 2
Flags: W
LayerCount: 2
Fore
SplineSet
90 806 m 1,0,-1
 90 940 l 1,1,-1
 482 940 l 1,2,-1
 482 1292 l 1,3,-1
 632 1292 l 1,4,-1
 632 940 l 1,5,-1
 1026 940 l 1,6,-1
 1026 806 l 1,7,-1
 632 806 l 1,8,-1
 632 462 l 1,9,-1
 482 462 l 1,10,-1
 482 806 l 1,11,-1
 90 806 l 1,0,-1
90 192 m 1,12,-1
 90 326 l 1,13,-1
 1026 326 l 1,14,-1
 1026 192 l 1,15,-1
 90 192 l 1,12,-1
EndSplineSet
EndChar

StartChar: twosuperior
Encoding: 178 178 116
Width: 646
GlyphClass: 2
Flags: W
LayerCount: 2
Fore
SplineSet
56 1428 m 1,0,1
 64 1458 64 1458 68 1471 c 128,-1,2
 72 1484 72 1484 93 1525 c 128,-1,3
 114 1566 114 1566 139 1589 c 128,-1,4
 164 1612 164 1612 213 1633 c 128,-1,5
 262 1654 262 1654 322 1654 c 0,6,7
 432 1654 432 1654 503 1590 c 128,-1,8
 574 1526 574 1526 574 1416 c 0,9,10
 574 1294 574 1294 426 1146 c 0,11,12
 408 1128 408 1128 364 1086 c 128,-1,13
 320 1044 320 1044 297 1021 c 128,-1,14
 274 998 274 998 246 961 c 128,-1,15
 218 924 218 924 202 892 c 1,16,-1
 574 892 l 1,17,-1
 574 792 l 1,18,-1
 62 792 l 1,19,20
 62 892 62 892 120 975 c 128,-1,21
 178 1058 178 1058 354 1224 c 0,22,23
 458 1320 458 1320 458 1416 c 0,24,25
 458 1484 458 1484 421 1520 c 128,-1,26
 384 1556 384 1556 320 1556 c 0,27,28
 274 1556 274 1556 242 1539 c 128,-1,29
 210 1522 210 1522 191 1487 c 128,-1,30
 172 1452 172 1452 168 1440 c 128,-1,31
 164 1428 164 1428 158 1402 c 1,32,-1
 56 1428 l 1,0,1
EndSplineSet
EndChar

StartChar: threesuperior
Encoding: 179 179 117
Width: 646
GlyphClass: 2
Flags: W
LayerCount: 2
Fore
SplineSet
42 958 m 1,0,-1
 136 996 l 1,1,2
 198 874 198 874 312 874 c 0,3,4
 382 874 382 874 430 915 c 128,-1,5
 478 956 478 956 478 1036 c 0,6,7
 478 1108 478 1108 425 1149 c 128,-1,8
 372 1190 372 1190 296 1190 c 0,9,10
 266 1190 266 1190 220 1186 c 1,11,-1
 220 1288 l 1,12,13
 278 1284 278 1284 292 1284 c 0,14,15
 360 1284 360 1284 403 1322 c 128,-1,16
 446 1360 446 1360 446 1426 c 0,17,18
 446 1486 446 1486 407 1523 c 128,-1,19
 368 1560 368 1560 308 1560 c 0,20,21
 210 1560 210 1560 158 1432 c 1,22,-1
 64 1464 l 1,23,24
 132 1656 132 1656 312 1656 c 0,25,26
 426 1656 426 1656 494 1593 c 128,-1,27
 562 1530 562 1530 562 1434 c 0,28,29
 562 1306 562 1306 454 1244 c 1,30,31
 594 1186 594 1186 594 1036 c 0,32,33
 594 914 594 914 516 845 c 128,-1,34
 438 776 438 776 312 776 c 0,35,36
 118 776 118 776 42 958 c 1,0,-1
EndSplineSet
EndChar

StartChar: acute
Encoding: 180 180 118
Width: 668
GlyphClass: 2
Flags: W
LayerCount: 2
Fore
SplineSet
144 1306 m 1,0,-1
 366 1648 l 1,1,-1
 564 1648 l 1,2,-1
 276 1306 l 1,3,-1
 144 1306 l 1,0,-1
EndSplineSet
EndChar

StartChar: uni00B5
Encoding: 181 181 119
Width: 1144
GlyphClass: 2
Flags: W
LayerCount: 2
Fore
SplineSet
168 -462 m 1,0,-1
 168 1056 l 1,1,-1
 320 1056 l 1,2,-1
 320 402 l 2,3,4
 320 92 320 92 546 92 c 0,5,6
 686 92 686 92 760 200 c 128,-1,7
 834 308 834 308 834 456 c 2,8,-1
 834 1056 l 1,9,-1
 986 1056 l 1,10,-1
 986 0 l 1,11,-1
 840 0 l 1,12,-1
 840 170 l 1,13,-1
 838 170 l 1,14,15
 810 82 810 82 725 23 c 128,-1,16
 640 -36 640 -36 518 -36 c 0,17,18
 386 -36 386 -36 320 70 c 1,19,-1
 320 -462 l 1,20,-1
 168 -462 l 1,0,-1
EndSplineSet
EndChar

StartChar: paragraph
Encoding: 182 182 120
Width: 1260
GlyphClass: 2
Flags: W
LayerCount: 2
Fore
SplineSet
116 1088 m 0,0,1
 116 1288 116 1288 221 1410 c 128,-1,2
 326 1532 326 1532 520 1532 c 2,3,-1
 1084 1532 l 1,4,-1
 1084 -144 l 1,5,-1
 956 -144 l 1,6,-1
 956 1394 l 1,7,-1
 750 1394 l 1,8,-1
 750 -144 l 1,9,-1
 622 -144 l 1,10,-1
 622 650 l 1,11,12
 560 630 560 630 494 630 c 0,13,14
 334 630 334 630 225 750 c 128,-1,15
 116 870 116 870 116 1088 c 0,0,1
EndSplineSet
EndChar

StartChar: periodcentered
Encoding: 183 183 121
Width: 676
GlyphClass: 2
Flags: W
LayerCount: 2
Fore
SplineSet
214 588 m 1,0,-1
 214 822 l 1,1,-1
 462 822 l 1,2,-1
 462 588 l 1,3,-1
 214 588 l 1,0,-1
EndSplineSet
EndChar

StartChar: cedilla
Encoding: 184 184 122
Width: 592
GlyphClass: 2
Flags: W
LayerCount: 2
Fore
SplineSet
88 -332 m 1,0,1
 170 -352 170 -352 216 -352 c 0,2,3
 352 -352 352 -352 352 -266 c 256,4,5
 352 -180 352 -180 160 -162 c 1,6,-1
 254 28 l 1,7,-1
 388 28 l 1,8,-1
 332 -90 l 1,9,10
 492 -132 492 -132 492 -268 c 0,11,12
 492 -356 492 -356 429 -410 c 128,-1,13
 366 -464 366 -464 228 -464 c 0,14,15
 148 -464 148 -464 88 -444 c 1,16,-1
 88 -332 l 1,0,1
EndSplineSet
EndChar

StartChar: onesuperior
Encoding: 185 185 123
Width: 646
GlyphClass: 2
Flags: W
LayerCount: 2
Fore
SplineSet
108 1426 m 1,0,-1
 108 1520 l 1,1,-1
 156 1520 l 2,2,3
 242 1520 242 1520 272 1544 c 128,-1,4
 302 1568 302 1568 302 1618 c 2,5,-1
 302 1654 l 1,6,-1
 404 1654 l 1,7,-1
 404 792 l 1,8,-1
 288 792 l 1,9,-1
 288 1426 l 1,10,-1
 108 1426 l 1,0,-1
EndSplineSet
EndChar

StartChar: ordmasculine
Encoding: 186 186 124
Width: 776
GlyphClass: 2
Flags: W
LayerCount: 2
Fore
SplineSet
176 1268 m 0,0,1
 176 1134 176 1134 237 1057 c 128,-1,2
 298 980 298 980 386 980 c 256,3,4
 474 980 474 980 536 1057 c 128,-1,5
 598 1134 598 1134 598 1268 c 0,6,7
 598 1404 598 1404 536 1480 c 128,-1,8
 474 1556 474 1556 386 1556 c 256,9,10
 298 1556 298 1556 237 1480 c 128,-1,11
 176 1404 176 1404 176 1268 c 0,0,1
56 1268 m 0,12,13
 56 1434 56 1434 143 1546 c 128,-1,14
 230 1658 230 1658 386 1658 c 256,15,16
 542 1658 542 1658 630 1546 c 128,-1,17
 718 1434 718 1434 718 1268 c 0,18,19
 718 1112 718 1112 635 995 c 128,-1,20
 552 878 552 878 386 878 c 0,21,22
 274 878 274 878 197 938 c 128,-1,23
 120 998 120 998 88 1084 c 128,-1,24
 56 1170 56 1170 56 1268 c 0,12,13
80 660 m 1,25,-1
 80 766 l 1,26,-1
 694 766 l 1,27,-1
 694 660 l 1,28,-1
 80 660 l 1,25,-1
EndSplineSet
EndChar

StartChar: guillemotright
Encoding: 187 187 125
Width: 922
GlyphClass: 2
Flags: W
LayerCount: 2
Fore
SplineSet
70 854 m 1,0,-1
 180 934 l 1,1,-1
 496 498 l 1,2,-1
 180 62 l 1,3,-1
 72 142 l 1,4,-1
 332 498 l 1,5,-1
 70 854 l 1,0,-1
420 128 m 1,6,-1
 682 498 l 1,7,-1
 418 874 l 1,8,-1
 532 948 l 1,9,-1
 848 498 l 1,10,-1
 532 50 l 1,11,-1
 420 128 l 1,6,-1
EndSplineSet
EndChar

StartChar: onequarter
Encoding: 188 188 126
Width: 1932
GlyphClass: 3
Flags: W
LayerCount: 2
Fore
SplineSet
1238 258 m 1,0,-1
 1504 258 l 1,1,-1
 1504 672 l 1,2,-1
 1452 586 l 1,3,-1
 1238 258 l 1,0,-1
166 1318 m 1,4,-1
 166 1434 l 1,5,-1
 224 1434 l 2,6,7
 320 1434 320 1434 353 1460 c 128,-1,8
 386 1486 386 1486 386 1538 c 2,9,-1
 386 1588 l 1,10,-1
 510 1588 l 1,11,-1
 510 598 l 1,12,-1
 368 598 l 1,13,-1
 368 1318 l 1,14,-1
 166 1318 l 1,4,-1
312 -100 m 1,15,-1
 1262 1562 l 1,16,-1
 1412 1562 l 1,17,-1
 466 -100 l 1,18,-1
 312 -100 l 1,15,-1
1086 242 m 1,19,-1
 1522 904 l 1,20,-1
 1640 904 l 1,21,-1
 1640 258 l 1,22,-1
 1774 258 l 1,23,-1
 1774 136 l 1,24,-1
 1640 136 l 1,25,-1
 1640 -84 l 1,26,-1
 1504 -84 l 1,27,-1
 1504 136 l 1,28,-1
 1086 136 l 1,29,-1
 1086 242 l 1,19,-1
EndSplineSet
Ligature2: "'frac' Diagonal Fractions lookup 7 subtable" one fraction four
Ligature2: "'frac' Diagonal Fractions lookup 7 subtable" one slash four
EndChar

StartChar: onehalf
Encoding: 189 189 127
Width: 1932
GlyphClass: 3
Flags: W
LayerCount: 2
Fore
SplineSet
1134 634 m 1,0,1
 1142 666 1142 666 1148 683 c 128,-1,2
 1154 700 1154 700 1178 747 c 128,-1,3
 1202 794 1202 794 1231 822 c 128,-1,4
 1260 850 1260 850 1316 874 c 128,-1,5
 1372 898 1372 898 1442 898 c 0,6,7
 1570 898 1570 898 1651 824 c 128,-1,8
 1732 750 1732 750 1732 622 c 0,9,10
 1732 476 1732 476 1582 334 c 0,11,12
 1448 208 1448 208 1393 149 c 128,-1,13
 1338 90 1338 90 1312 32 c 1,14,-1
 1732 32 l 1,15,-1
 1732 -88 l 1,16,-1
 1142 -88 l 1,17,18
 1142 26 1142 26 1205 120 c 128,-1,19
 1268 214 1268 214 1476 408 c 0,20,21
 1590 514 1590 514 1590 624 c 0,22,23
 1590 698 1590 698 1550 739 c 128,-1,24
 1510 780 1510 780 1438 780 c 0,25,26
 1300 780 1300 780 1258 600 c 1,27,-1
 1134 634 l 1,0,1
166 1318 m 1,28,-1
 166 1434 l 1,29,-1
 224 1434 l 2,30,31
 320 1434 320 1434 353 1460 c 128,-1,32
 386 1486 386 1486 386 1538 c 2,33,-1
 386 1588 l 1,34,-1
 510 1588 l 1,35,-1
 510 598 l 1,36,-1
 368 598 l 1,37,-1
 368 1318 l 1,38,-1
 166 1318 l 1,28,-1
306 -100 m 1,39,-1
 1256 1562 l 1,40,-1
 1406 1562 l 1,41,-1
 460 -100 l 1,42,-1
 306 -100 l 1,39,-1
EndSplineSet
Ligature2: "'frac' Diagonal Fractions lookup 7 subtable" one fraction two
Ligature2: "'frac' Diagonal Fractions lookup 7 subtable" one slash two
EndChar

StartChar: threequarters
Encoding: 190 190 128
Width: 1932
GlyphClass: 3
Flags: W
LayerCount: 2
Fore
SplineSet
1258 258 m 1,0,-1
 1522 258 l 1,1,-1
 1522 670 l 1,2,-1
 1474 588 l 1,3,-1
 1258 258 l 1,0,-1
462 -100 m 1,4,-1
 1412 1562 l 1,5,-1
 1560 1562 l 1,6,-1
 614 -100 l 1,7,-1
 462 -100 l 1,4,-1
1104 242 m 1,8,-1
 1540 904 l 1,9,-1
 1660 904 l 1,10,-1
 1660 258 l 1,11,-1
 1794 258 l 1,12,-1
 1794 136 l 1,13,-1
 1660 136 l 1,14,-1
 1660 -84 l 1,15,-1
 1522 -84 l 1,16,-1
 1522 136 l 1,17,-1
 1104 136 l 1,18,-1
 1104 242 l 1,8,-1
130 818 m 1,19,-1
 246 864 l 1,20,21
 318 726 318 726 444 726 c 0,22,23
 522 726 522 726 575 771 c 128,-1,24
 628 816 628 816 628 904 c 0,25,26
 628 986 628 986 570 1031 c 128,-1,27
 512 1076 512 1076 428 1076 c 0,28,29
 380 1076 380 1076 334 1072 c 1,30,-1
 334 1196 l 1,31,32
 368 1192 368 1192 422 1192 c 0,33,34
 494 1192 494 1192 542 1233 c 128,-1,35
 590 1274 590 1274 590 1348 c 0,36,37
 590 1414 590 1414 548 1455 c 128,-1,38
 506 1496 506 1496 440 1496 c 0,39,40
 392 1496 392 1496 357 1470 c 128,-1,41
 322 1444 322 1444 306 1418 c 128,-1,42
 290 1392 290 1392 272 1350 c 1,43,-1
 156 1390 l 1,44,45
 232 1616 232 1616 444 1616 c 0,46,47
 576 1616 576 1616 653 1542 c 128,-1,48
 730 1468 730 1468 730 1356 c 0,49,50
 730 1214 730 1214 612 1142 c 1,51,52
 768 1072 768 1072 768 904 c 0,53,54
 768 764 768 764 678 685 c 128,-1,55
 588 606 588 606 444 606 c 0,56,57
 220 606 220 606 130 818 c 1,19,-1
EndSplineSet
Ligature2: "'frac' Diagonal Fractions lookup 7 subtable" three fraction four
Ligature2: "'frac' Diagonal Fractions lookup 7 subtable" three slash four
EndChar

StartChar: questiondown
Encoding: 191 191 129
Width: 1106
GlyphClass: 2
Flags: W
LayerCount: 2
Fore
SplineSet
146 -58 m 0,0,1
 146 34 146 34 182 106 c 128,-1,2
 218 178 218 178 270 227 c 128,-1,3
 322 276 322 276 374 326 c 128,-1,4
 426 376 426 376 462 446 c 128,-1,5
 498 516 498 516 498 604 c 2,6,-1
 498 650 l 1,7,-1
 656 650 l 1,8,-1
 656 594 l 2,9,10
 656 494 656 494 619 416 c 128,-1,11
 582 338 582 338 531 287 c 128,-1,12
 480 236 480 236 429 189 c 128,-1,13
 378 142 378 142 342 78 c 128,-1,14
 306 14 306 14 306 -62 c 0,15,16
 306 -182 306 -182 371 -253 c 128,-1,17
 436 -324 436 -324 552 -324 c 0,18,19
 748 -324 748 -324 844 -90 c 1,20,-1
 982 -138 l 1,21,22
 930 -282 930 -282 817 -370 c 128,-1,23
 704 -458 704 -458 554 -458 c 0,24,25
 368 -458 368 -458 257 -350 c 128,-1,26
 146 -242 146 -242 146 -58 c 0,0,1
454 840 m 1,27,-1
 454 1064 l 1,28,-1
 700 1064 l 1,29,-1
 700 840 l 1,30,-1
 454 840 l 1,27,-1
EndSplineSet
EndChar

StartChar: AE
Encoding: 198 198 136
Width: 1874
GlyphClass: 2
Flags: W
LayerCount: 2
Fore
SplineSet
480 550 m 1,0,-1
 948 550 l 1,1,-1
 948 1322 l 1,2,-1
 930 1322 l 1,3,-1
 480 550 l 1,0,-1
-8 0 m 1,4,-1
 850 1470 l 1,5,-1
 1778 1470 l 1,6,-1
 1778 1336 l 1,7,-1
 1102 1336 l 1,8,-1
 1102 826 l 1,9,-1
 1706 826 l 1,10,-1
 1706 694 l 1,11,-1
 1096 694 l 1,12,-1
 1096 134 l 1,13,-1
 1796 134 l 1,14,-1
 1796 0 l 1,15,-1
 948 0 l 1,16,-1
 948 424 l 1,17,-1
 406 424 l 1,18,-1
 166 0 l 1,19,-1
 -8 0 l 1,4,-1
EndSplineSet
EndChar

StartChar: multiply
Encoding: 215 215 153
Width: 1116
GlyphClass: 2
Flags: W
LayerCount: 2
Fore
SplineSet
90 374 m 1,0,-1
 468 728 l 1,1,-1
 90 1084 l 1,2,-1
 184 1176 l 1,3,-1
 558 814 l 1,4,-1
 934 1176 l 1,5,-1
 1026 1086 l 1,6,-1
 652 728 l 1,7,-1
 1026 372 l 1,8,-1
 932 282 l 1,9,-1
 558 642 l 1,10,-1
 184 282 l 1,11,-1
 90 374 l 1,0,-1
EndSplineSet
EndChar

StartChar: Oslash
Encoding: 216 216 154
Width: 1426
GlyphClass: 2
Flags: W
LayerCount: 2
Fore
SplineSet
102 734 m 0,0,1
 102 1080 102 1080 269 1293 c 128,-1,2
 436 1506 436 1506 714 1506 c 0,3,4
 886 1506 886 1506 1018 1422 c 1,5,-1
 1102 1588 l 1,6,-1
 1250 1588 l 1,7,-1
 1120 1338 l 1,8,9
 1324 1124 1324 1124 1324 732 c 0,10,11
 1324 378 1324 378 1158 171 c 128,-1,12
 992 -36 992 -36 714 -36 c 0,13,14
 568 -36 568 -36 442 30 c 1,15,-1
 356 -140 l 1,16,-1
 208 -140 l 1,17,-1
 334 104 l 1,18,19
 102 310 102 310 102 734 c 0,0,1
1046 1196 m 1,20,-1
 508 156 l 1,21,22
 600 100 600 100 714 100 c 0,23,24
 920 100 920 100 1042 269 c 128,-1,25
 1164 438 1164 438 1164 732 c 0,26,27
 1164 1022 1164 1022 1046 1196 c 1,20,-1
952 1296 m 1,28,29
 852 1372 852 1372 714 1372 c 0,30,31
 506 1372 506 1372 384 1199 c 128,-1,32
 262 1026 262 1026 262 734 c 0,33,34
 262 414 262 414 406 244 c 1,35,-1
 952 1296 l 1,28,29
EndSplineSet
EndChar

StartChar: Thorn
Encoding: 222 222 160
Width: 1202
GlyphClass: 2
Flags: W
LayerCount: 2
Fore
SplineSet
204 0 m 1,0,-1
 204 1470 l 1,1,-1
 362 1470 l 1,2,-1
 362 1224 l 1,3,-1
 600 1224 l 2,4,5
 864 1224 864 1224 991 1098 c 128,-1,6
 1118 972 1118 972 1118 764 c 0,7,8
 1118 528 1118 528 971 412 c 128,-1,9
 824 296 824 296 582 296 c 2,10,-1
 362 296 l 1,11,-1
 362 0 l 1,12,-1
 204 0 l 1,0,-1
362 430 m 1,13,-1
 568 430 l 2,14,15
 956 430 956 430 956 764 c 0,16,17
 956 1094 956 1094 586 1094 c 2,18,-1
 362 1094 l 1,19,-1
 362 430 l 1,13,-1
EndSplineSet
EndChar

StartChar: germandbls
Encoding: 223 223 161
Width: 1308
GlyphClass: 2
Flags: W
LayerCount: 2
Fore
SplineSet
204 0 m 1,0,-1
 204 1104 l 2,1,2
 204 1296 204 1296 330 1401 c 128,-1,3
 456 1506 456 1506 644 1506 c 0,4,5
 842 1506 842 1506 965 1398 c 128,-1,6
 1088 1290 1088 1290 1088 1110 c 0,7,8
 1088 988 1088 988 1037 905 c 128,-1,9
 986 822 986 822 910 782 c 1,10,-1
 910 778 l 1,11,12
 1034 742 1034 742 1121 644 c 128,-1,13
 1208 546 1208 546 1208 378 c 0,14,15
 1208 194 1208 194 1092 79 c 128,-1,16
 976 -36 976 -36 776 -36 c 0,17,18
 628 -36 628 -36 494 8 c 1,19,-1
 504 146 l 1,20,21
 622 100 622 100 770 100 c 0,22,23
 886 100 886 100 967 178 c 128,-1,24
 1048 256 1048 256 1048 378 c 0,25,26
 1048 534 1048 534 956 614 c 128,-1,27
 864 694 864 694 720 694 c 2,28,-1
 592 694 l 1,29,-1
 592 826 l 1,30,-1
 704 826 l 2,31,32
 802 826 802 826 864 904 c 128,-1,33
 926 982 926 982 926 1102 c 0,34,35
 926 1218 926 1218 851 1295 c 128,-1,36
 776 1372 776 1372 646 1372 c 0,37,38
 514 1372 514 1372 438 1298 c 128,-1,39
 362 1224 362 1224 362 1096 c 2,40,-1
 362 0 l 1,41,-1
 204 0 l 1,0,-1
EndSplineSet
EndChar

StartChar: ae
Encoding: 230 230 168
Width: 1814
GlyphClass: 2
Flags: W
LayerCount: 2
Fore
SplineSet
82 262 m 0,0,1
 82 556 82 556 536 624 c 0,2,3
 772 666 772 666 808 680 c 0,4,5
 808 686 808 686 807 710 c 128,-1,6
 806 734 806 734 806 740 c 0,7,8
 806 832 806 832 739 900 c 128,-1,9
 672 968 672 968 548 968 c 0,10,11
 344 968 344 968 206 804 c 1,12,-1
 108 888 l 1,13,14
 186 980 186 980 300 1036 c 128,-1,15
 414 1092 414 1092 548 1092 c 0,16,17
 820 1092 820 1092 908 866 c 1,18,19
 962 970 962 970 1058 1031 c 128,-1,20
 1154 1092 1154 1092 1278 1092 c 0,21,22
 1484 1092 1484 1092 1608 940 c 128,-1,23
 1732 788 1732 788 1732 558 c 2,24,-1
 1732 478 l 1,25,-1
 962 478 l 1,26,-1
 962 438 l 1,27,28
 976 298 976 298 1057 195 c 128,-1,29
 1138 92 1138 92 1280 92 c 0,30,31
 1384 92 1384 92 1461 143 c 128,-1,32
 1538 194 1538 194 1578 268 c 1,33,-1
 1708 230 l 1,34,35
 1652 110 1652 110 1544 37 c 128,-1,36
 1436 -36 1436 -36 1278 -36 c 0,37,38
 1138 -36 1138 -36 1036 38 c 128,-1,39
 934 112 934 112 878 238 c 1,40,41
 742 -36 742 -36 452 -36 c 0,42,43
 280 -36 280 -36 181 45 c 128,-1,44
 82 126 82 126 82 262 c 0,0,1
236 270 m 0,45,46
 236 194 236 194 298 143 c 128,-1,47
 360 92 360 92 468 92 c 0,48,49
 608 92 608 92 707 182 c 128,-1,50
 806 272 806 272 806 414 c 2,51,-1
 806 560 l 1,52,53
 736 542 736 542 542 510 c 0,54,55
 236 462 236 462 236 270 c 0,45,46
962 594 m 1,56,-1
 1578 594 l 1,57,58
 1578 750 1578 750 1494 857 c 128,-1,59
 1410 964 1410 964 1278 964 c 0,60,61
 1148 964 1148 964 1067 867 c 128,-1,62
 986 770 986 770 966 628 c 2,63,-1
 962 594 l 1,56,-1
EndSplineSet
EndChar

StartChar: eth
Encoding: 240 240 178
Width: 1120
GlyphClass: 2
Flags: W
LayerCount: 2
Fore
SplineSet
86 474 m 0,0,1
 86 712 86 712 216 851 c 128,-1,2
 346 990 346 990 554 990 c 0,3,4
 664 990 664 990 745 939 c 128,-1,5
 826 888 826 888 862 818 c 1,6,7
 804 1096 804 1096 644 1246 c 1,8,-1
 398 1068 l 1,9,-1
 310 1164 l 1,10,-1
 536 1326 l 1,11,12
 432 1386 432 1386 298 1408 c 1,13,-1
 350 1526 l 1,14,15
 496 1504 496 1504 616 1440 c 0,16,17
 636 1428 636 1428 658 1416 c 1,18,-1
 866 1566 l 1,19,-1
 952 1468 l 1,20,-1
 764 1332 l 1,21,22
 798 1300 798 1300 832 1262 c 0,23,24
 928 1148 928 1148 981 962 c 128,-1,25
 1034 776 1034 776 1034 528 c 256,26,27
 1034 280 1034 280 909 122 c 128,-1,28
 784 -36 784 -36 556 -36 c 0,29,30
 340 -36 340 -36 213 111 c 128,-1,31
 86 258 86 258 86 474 c 0,0,1
240 480 m 0,32,33
 240 310 240 310 326 201 c 128,-1,34
 412 92 412 92 560 92 c 0,35,36
 700 92 700 92 785 198 c 128,-1,37
 870 304 870 304 870 482 c 0,38,39
 870 654 870 654 784 757 c 128,-1,40
 698 860 698 860 562 860 c 0,41,42
 422 860 422 860 331 760 c 128,-1,43
 240 660 240 660 240 480 c 0,32,33
EndSplineSet
EndChar

StartChar: divide
Encoding: 247 247 185
Width: 1116
GlyphClass: 2
Flags: W
LayerCount: 2
Fore
SplineSet
448 992 m 1,0,-1
 448 1204 l 1,1,-1
 668 1204 l 1,2,-1
 668 992 l 1,3,-1
 448 992 l 1,0,-1
54 662 m 1,4,-1
 54 794 l 1,5,-1
 1060 794 l 1,6,-1
 1060 662 l 1,7,-1
 54 662 l 1,4,-1
448 252 m 1,8,-1
 448 466 l 1,9,-1
 668 466 l 1,10,-1
 668 252 l 1,11,-1
 448 252 l 1,8,-1
EndSplineSet
EndChar

StartChar: oslash
Encoding: 248 248 186
Width: 1120
GlyphClass: 2
Flags: W
LayerCount: 2
Fore
SplineSet
86 528 m 0,0,1
 86 770 86 770 211 931 c 128,-1,2
 336 1092 336 1092 562 1092 c 0,3,4
 686 1092 686 1092 780 1038 c 1,5,-1
 852 1180 l 1,6,-1
 980 1180 l 1,7,-1
 872 970 l 1,8,9
 1034 814 1034 814 1034 528 c 0,10,11
 1034 426 1034 426 1008 330 c 128,-1,12
 982 234 982 234 928 150 c 128,-1,13
 874 66 874 66 779 15 c 128,-1,14
 684 -36 684 -36 562 -36 c 0,15,16
 452 -36 452 -36 360 8 c 1,17,-1
 292 -122 l 1,18,-1
 164 -122 l 1,19,-1
 262 70 l 1,20,21
 176 148 176 148 131 270 c 128,-1,22
 86 392 86 392 86 528 c 0,0,1
800 832 m 1,23,-1
 422 130 l 1,24,25
 486 92 486 92 562 92 c 0,26,27
 696 92 696 92 789 210 c 128,-1,28
 882 328 882 328 882 528 c 0,29,30
 882 714 882 714 800 832 c 1,23,-1
716 914 m 1,31,32
 646 964 646 964 562 964 c 0,33,34
 426 964 426 964 333 848 c 128,-1,35
 240 732 240 732 240 528 c 0,36,37
 240 328 240 328 334 206 c 1,38,-1
 716 914 l 1,31,32
EndSplineSet
EndChar

StartChar: thorn
Encoding: 254 254 192
Width: 1176
GlyphClass: 2
Flags: W
LayerCount: 2
Fore
SplineSet
322 528 m 256,0,1
 322 332 322 332 409 212 c 128,-1,2
 496 92 496 92 620 92 c 0,3,4
 766 92 766 92 851 209 c 128,-1,5
 936 326 936 326 936 528 c 256,6,7
 936 730 936 730 852 847 c 128,-1,8
 768 964 768 964 622 964 c 0,9,10
 502 964 502 964 412 844 c 128,-1,11
 322 724 322 724 322 528 c 256,0,1
174 -462 m 1,12,-1
 174 1524 l 1,13,-1
 326 1524 l 1,14,-1
 326 864 l 1,15,16
 358 964 358 964 453 1028 c 128,-1,17
 548 1092 548 1092 640 1092 c 0,18,19
 846 1092 846 1092 968 940 c 128,-1,20
 1090 788 1090 788 1090 528 c 0,21,22
 1090 250 1090 250 956 107 c 128,-1,23
 822 -36 822 -36 638 -36 c 0,24,25
 528 -36 528 -36 444 32 c 128,-1,26
 360 100 360 100 326 186 c 1,27,-1
 326 -462 l 1,28,-1
 174 -462 l 1,12,-1
EndSplineSet
EndChar

StartChar: dcroat
Encoding: 273 273 211
Width: 1170
GlyphClass: 2
Flags: W
LayerCount: 2
Fore
SplineSet
86 530 m 0,0,1
 86 792 86 792 212 942 c 128,-1,2
 338 1092 338 1092 530 1092 c 0,3,4
 646 1092 646 1092 730 1026 c 128,-1,5
 814 960 814 960 850 872 c 1,6,-1
 850 1244 l 1,7,-1
 418 1244 l 1,8,-1
 418 1358 l 1,9,-1
 850 1358 l 1,10,-1
 850 1524 l 1,11,-1
 1000 1524 l 1,12,-1
 1000 1358 l 1,13,-1
 1140 1358 l 1,14,-1
 1140 1244 l 1,15,-1
 1000 1244 l 1,16,-1
 1000 0 l 1,17,-1
 854 0 l 1,18,-1
 854 190 l 1,19,20
 808 88 808 88 726 26 c 128,-1,21
 644 -36 644 -36 528 -36 c 0,22,23
 350 -36 350 -36 218 108 c 128,-1,24
 86 252 86 252 86 530 c 0,0,1
240 530 m 0,25,26
 240 332 240 332 326 212 c 128,-1,27
 412 92 412 92 550 92 c 0,28,29
 680 92 680 92 767 213 c 128,-1,30
 854 334 854 334 854 530 c 0,31,32
 854 718 854 718 768 841 c 128,-1,33
 682 964 682 964 548 964 c 0,34,35
 410 964 410 964 325 845 c 128,-1,36
 240 726 240 726 240 530 c 0,25,26
EndSplineSet
EndChar

StartChar: uni0123
Encoding: 291 291 229
Width: 1144
GlyphClass: 2
Flags: W
LayerCount: 2
Fore
SplineSet
446 1258 m 1,0,-1
 612 1616 l 1,1,-1
 720 1616 l 1,2,-1
 622 1258 l 1,3,-1
 446 1258 l 1,0,-1
240 548 m 0,4,5
 240 358 240 358 323 245 c 128,-1,6
 406 132 406 132 534 132 c 0,7,8
 674 132 674 132 753 242 c 128,-1,9
 832 352 832 352 832 550 c 0,10,11
 832 744 832 744 751 854 c 128,-1,12
 670 964 670 964 536 964 c 0,13,14
 404 964 404 964 322 848 c 128,-1,15
 240 732 240 732 240 548 c 0,4,5
86 546 m 0,16,17
 86 788 86 788 208 940 c 128,-1,18
 330 1092 330 1092 518 1092 c 0,19,20
 644 1092 644 1092 721 1029 c 128,-1,21
 798 966 798 966 832 884 c 1,22,-1
 832 1056 l 1,23,-1
 982 1056 l 1,24,-1
 982 124 l 2,25,26
 982 -176 982 -176 875 -323 c 128,-1,27
 768 -470 768 -470 530 -470 c 0,28,29
 274 -470 274 -470 140 -276 c 1,30,-1
 246 -208 l 1,31,32
 366 -346 366 -346 534 -346 c 0,33,34
 682 -346 682 -346 754 -239 c 128,-1,35
 826 -132 826 -132 830 48 c 0,36,37
 832 108 832 108 832 206 c 1,38,39
 790 116 790 116 712 60 c 128,-1,40
 634 4 634 4 522 4 c 0,41,42
 328 4 328 4 207 155 c 128,-1,43
 86 306 86 306 86 546 c 0,16,17
EndSplineSet
EndChar

StartChar: Hbar
Encoding: 294 294 232
Width: 1444
GlyphClass: 2
Flags: W
LayerCount: 2
Fore
SplineSet
34 1130 m 1,0,-1
 34 1254 l 1,1,-1
 204 1254 l 1,2,-1
 204 1470 l 1,3,-1
 362 1470 l 1,4,-1
 362 1254 l 1,5,-1
 1084 1254 l 1,6,-1
 1084 1470 l 1,7,-1
 1240 1470 l 1,8,-1
 1240 1254 l 1,9,-1
 1412 1254 l 1,10,-1
 1412 1130 l 1,11,-1
 1240 1130 l 1,12,-1
 1240 0 l 1,13,-1
 1084 0 l 1,14,-1
 1084 690 l 1,15,-1
 362 690 l 1,16,-1
 362 0 l 1,17,-1
 204 0 l 1,18,-1
 204 1130 l 1,19,-1
 34 1130 l 1,0,-1
1084 1130 m 1,20,-1
 362 1130 l 1,21,-1
 362 822 l 1,22,-1
 1084 822 l 1,23,-1
 1084 1130 l 1,20,-1
EndSplineSet
EndChar

StartChar: hbar
Encoding: 295 295 233
Width: 1136
GlyphClass: 2
Flags: W
LayerCount: 2
Fore
SplineSet
22 1248 m 1,0,-1
 22 1364 l 1,1,-1
 166 1364 l 1,2,-1
 166 1524 l 1,3,-1
 318 1524 l 1,4,-1
 318 1364 l 1,5,-1
 730 1364 l 1,6,-1
 730 1248 l 1,7,-1
 318 1248 l 1,8,-1
 318 860 l 1,9,-1
 320 860 l 1,10,11
 356 938 356 938 444 1001 c 128,-1,12
 532 1064 532 1064 644 1064 c 0,13,14
 702 1064 702 1064 756 1047 c 128,-1,15
 810 1030 810 1030 866 989 c 128,-1,16
 922 948 922 948 956 863 c 128,-1,17
 990 778 990 778 990 656 c 2,18,-1
 990 0 l 1,19,-1
 838 0 l 1,20,-1
 838 632 l 2,21,22
 838 772 838 772 790 854 c 128,-1,23
 742 936 742 936 616 936 c 0,24,25
 496 936 496 936 407 834 c 128,-1,26
 318 732 318 732 318 600 c 2,27,-1
 318 0 l 1,28,-1
 166 0 l 1,29,-1
 166 1248 l 1,30,-1
 22 1248 l 1,0,-1
EndSplineSet
EndChar

StartChar: dotlessi
Encoding: 305 305 243
Width: 496
GlyphClass: 2
Flags: W
LayerCount: 2
Fore
SplineSet
172 0 m 1,0,-1
 172 1056 l 1,1,-1
 324 1056 l 1,2,-1
 324 0 l 1,3,-1
 172 0 l 1,0,-1
EndSplineSet
EndChar

StartChar: kgreenlandic
Encoding: 312 312 250
Width: 1018
GlyphClass: 2
Flags: W
LayerCount: 2
Fore
SplineSet
166 0 m 1,0,-1
 166 1056 l 1,1,-1
 318 1056 l 1,2,-1
 318 590 l 1,3,-1
 322 590 l 1,4,-1
 818 1056 l 1,5,-1
 1012 1056 l 1,6,-1
 482 556 l 1,7,-1
 1030 0 l 1,8,-1
 844 0 l 1,9,-1
 384 448 l 1,10,-1
 318 384 l 1,11,-1
 318 0 l 1,12,-1
 166 0 l 1,0,-1
EndSplineSet
EndChar

StartChar: Lslash
Encoding: 321 321 259
Width: 1076
GlyphClass: 2
Flags: W
LayerCount: 2
Fore
SplineSet
362 694 m 1,0,-1
 362 134 l 1,1,-1
 1060 134 l 1,2,-1
 1060 0 l 1,3,-1
 204 0 l 1,4,-1
 204 594 l 1,5,-1
 0 458 l 1,6,-1
 -72 570 l 1,7,-1
 204 754 l 1,8,-1
 204 1470 l 1,9,-1
 362 1470 l 1,10,-1
 362 852 l 1,11,-1
 560 986 l 1,12,-1
 632 874 l 1,13,-1
 362 694 l 1,0,-1
EndSplineSet
EndChar

StartChar: lslash
Encoding: 322 322 260
Width: 510
GlyphClass: 2
Flags: W
LayerCount: 2
Fore
SplineSet
332 726 m 1,0,-1
 332 0 l 1,1,-1
 180 0 l 1,2,-1
 180 630 l 1,3,-1
 -10 508 l 1,4,-1
 -82 622 l 1,5,-1
 180 790 l 1,6,-1
 180 1524 l 1,7,-1
 332 1524 l 1,8,-1
 332 890 l 1,9,-1
 520 1008 l 1,10,-1
 590 894 l 1,11,-1
 332 726 l 1,0,-1
EndSplineSet
EndChar

StartChar: Eng
Encoding: 330 330 268
Width: 1454
GlyphClass: 2
Flags: W
LayerCount: 2
Fore
SplineSet
204 0 m 1,0,-1
 204 1470 l 1,1,-1
 384 1470 l 1,2,-1
 994 418 l 1,3,-1
 1102 222 l 1,4,-1
 1114 222 l 1,5,6
 1094 410 1094 410 1094 626 c 2,7,-1
 1094 1470 l 1,8,-1
 1250 1470 l 1,9,-1
 1250 18 l 2,10,11
 1250 -470 1250 -470 874 -470 c 0,12,13
 790 -470 790 -470 672 -454 c 1,14,-1
 672 -324 l 1,15,16
 764 -338 764 -338 846 -338 c 0,17,18
 972 -338 972 -338 1019 -259 c 128,-1,19
 1066 -180 1066 -180 1070 0 c 1,20,-1
 466 1044 l 1,21,-1
 352 1246 l 1,22,-1
 342 1246 l 1,23,24
 362 1054 362 1054 362 890 c 2,25,-1
 362 0 l 1,26,-1
 204 0 l 1,0,-1
EndSplineSet
EndChar

StartChar: eng
Encoding: 331 331 269
Width: 1124
GlyphClass: 2
Flags: W
LayerCount: 2
Fore
SplineSet
158 0 m 1,0,-1
 158 1056 l 1,1,-1
 304 1056 l 1,2,-1
 304 876 l 1,3,-1
 306 876 l 1,4,5
 332 954 332 954 422 1023 c 128,-1,6
 512 1092 512 1092 642 1092 c 0,7,8
 788 1092 788 1092 884 999 c 128,-1,9
 980 906 980 906 980 682 c 2,10,-1
 980 18 l 2,11,12
 980 -234 980 -234 884 -352 c 128,-1,13
 788 -470 788 -470 628 -470 c 0,14,15
 580 -470 580 -470 446 -452 c 1,16,-1
 446 -322 l 1,17,18
 550 -338 550 -338 606 -338 c 0,19,20
 726 -338 726 -338 777 -254 c 128,-1,21
 828 -170 828 -170 828 0 c 2,22,-1
 828 658 l 2,23,24
 828 964 828 964 608 964 c 0,25,26
 486 964 486 964 397 865 c 128,-1,27
 308 766 308 766 308 630 c 2,28,-1
 308 0 l 1,29,-1
 158 0 l 1,0,-1
EndSplineSet
EndChar

StartChar: OE
Encoding: 338 338 276
Width: 1908
GlyphClass: 2
Flags: W
LayerCount: 2
Fore
SplineSet
102 734 m 0,0,1
 102 1086 102 1086 279 1296 c 128,-1,2
 456 1506 456 1506 734 1506 c 0,3,4
 852 1506 852 1506 942 1470 c 1,5,-1
 1812 1470 l 1,6,-1
 1812 1336 l 1,7,-1
 1094 1336 l 1,8,-1
 1094 826 l 1,9,-1
 1738 826 l 1,10,-1
 1738 694 l 1,11,-1
 1094 694 l 1,12,-1
 1094 134 l 1,13,-1
 1830 134 l 1,14,-1
 1830 0 l 1,15,-1
 946 0 l 1,16,17
 852 -36 852 -36 734 -36 c 0,18,19
 452 -36 452 -36 277 172 c 128,-1,20
 102 380 102 380 102 734 c 0,0,1
262 734 m 0,21,22
 262 442 262 442 394 270 c 128,-1,23
 526 98 526 98 734 98 c 0,24,25
 856 98 856 98 936 154 c 1,26,-1
 936 1312 l 1,27,28
 852 1372 852 1372 734 1372 c 0,29,30
 520 1372 520 1372 391 1197 c 128,-1,31
 262 1022 262 1022 262 734 c 0,21,22
EndSplineSet
EndChar

StartChar: uni0163
Encoding: 355 355 293
Width: 716
GlyphClass: 2
Flags: W
LayerCount: 2
Fore
SplineSet
40 928 m 1,0,-1
 40 1056 l 1,1,-1
 224 1056 l 1,2,-1
 224 1396 l 1,3,-1
 374 1396 l 1,4,-1
 374 1056 l 1,5,-1
 654 1056 l 1,6,-1
 654 928 l 1,7,-1
 374 928 l 1,8,-1
 374 310 l 2,9,10
 374 214 374 214 413 172 c 128,-1,11
 452 130 452 130 534 130 c 2,12,-1
 656 130 l 1,13,-1
 656 0 l 1,14,-1
 514 0 l 2,15,16
 512 0 l 1,17,-1
 490 -82 l 1,18,19
 578 -96 578 -96 627 -140 c 128,-1,20
 676 -184 676 -184 676 -254 c 0,21,22
 676 -332 676 -332 613 -385 c 128,-1,23
 550 -438 550 -438 420 -438 c 0,24,25
 324 -438 324 -438 250 -418 c 1,26,-1
 250 -320 l 1,27,28
 332 -340 332 -340 418 -340 c 0,29,30
 476 -340 476 -340 514 -315 c 128,-1,31
 552 -290 552 -290 552 -246 c 0,32,33
 552 -156 552 -156 340 -142 c 1,34,-1
 380 22 l 1,35,36
 224 80 224 80 224 296 c 2,37,-1
 224 928 l 1,38,-1
 40 928 l 1,0,-1
EndSplineSet
Substitution2: "'locl' Localized Forms in Latin lookup 3 subtable" uni021B
Substitution2: "'locl' Localized Forms in Latin lookup 2 subtable" uni021B
Substitution2: "'aalt' Access All Alternates lookup 0 subtable" uni021B
EndChar

StartChar: tbar
Encoding: 359 359 297
Width: 716
GlyphClass: 2
Flags: W
LayerCount: 2
Fore
SplineSet
40 928 m 1,0,-1
 40 1056 l 1,1,-1
 224 1056 l 1,2,-1
 224 1396 l 1,3,-1
 374 1396 l 1,4,-1
 374 1056 l 1,5,-1
 654 1056 l 1,6,-1
 654 928 l 1,7,-1
 374 928 l 1,8,-1
 374 704 l 1,9,-1
 668 704 l 1,10,-1
 668 578 l 1,11,-1
 374 578 l 1,12,-1
 374 310 l 2,13,14
 374 214 374 214 413 172 c 128,-1,15
 452 130 452 130 534 130 c 2,16,-1
 656 130 l 1,17,-1
 656 0 l 1,18,-1
 514 0 l 2,19,20
 224 0 224 0 224 296 c 2,21,-1
 224 578 l 1,22,-1
 20 578 l 1,23,-1
 20 704 l 1,24,-1
 224 704 l 1,25,-1
 224 928 l 1,26,-1
 40 928 l 1,0,-1
EndSplineSet
EndChar

StartChar: longs
Encoding: 383 383 321
Width: 606
GlyphClass: 2
Flags: W
LayerCount: 2
Fore
SplineSet
176 0 m 1,0,-1
 176 1216 l 2,1,2
 176 1374 176 1374 254 1449 c 128,-1,3
 332 1524 332 1524 470 1524 c 2,4,-1
 594 1524 l 1,5,-1
 594 1398 l 1,6,-1
 494 1398 l 2,7,8
 328 1398 328 1398 328 1198 c 2,9,-1
 328 0 l 1,10,-1
 176 0 l 1,0,-1
EndSplineSet
EndChar

StartChar: uni0180
Encoding: 384 384 322
Width: 1170
GlyphClass: 2
Flags: W
LayerCount: 2
Fore
SplineSet
316 528 m 256,0,1
 316 330 316 330 404 211 c 128,-1,2
 492 92 492 92 620 92 c 0,3,4
 760 92 760 92 845 209 c 128,-1,5
 930 326 930 326 930 528 c 0,6,7
 930 726 930 726 846 845 c 128,-1,8
 762 964 762 964 622 964 c 0,9,10
 494 964 494 964 405 845 c 128,-1,11
 316 726 316 726 316 528 c 256,0,1
30 1246 m 1,12,-1
 30 1364 l 1,13,-1
 168 1364 l 1,14,-1
 168 1524 l 1,15,-1
 320 1524 l 1,16,-1
 320 1364 l 1,17,-1
 734 1364 l 1,18,-1
 734 1246 l 1,19,-1
 320 1246 l 1,20,-1
 320 866 l 1,21,22
 348 948 348 948 434 1020 c 128,-1,23
 520 1092 520 1092 642 1092 c 0,24,25
 840 1092 840 1092 962 940 c 128,-1,26
 1084 788 1084 788 1084 528 c 0,27,28
 1084 382 1084 382 1043 270 c 128,-1,29
 1002 158 1002 158 936 94 c 128,-1,30
 870 30 870 30 795 -3 c 128,-1,31
 720 -36 720 -36 642 -36 c 0,32,33
 526 -36 526 -36 441 30 c 128,-1,34
 356 96 356 96 318 188 c 1,35,-1
 318 0 l 1,36,-1
 168 0 l 1,37,-1
 168 1246 l 1,38,-1
 30 1246 l 1,12,-1
EndSplineSet
EndChar

StartChar: uni0182
Encoding: 386 386 324
Width: 1312
GlyphClass: 2
Flags: W
LayerCount: 2
Fore
SplineSet
362 134 m 1,0,-1
 752 134 l 2,1,2
 890 134 890 134 977 205 c 128,-1,3
 1064 276 1064 276 1064 412 c 0,4,5
 1064 538 1064 538 976 618 c 128,-1,6
 888 698 888 698 744 698 c 2,7,-1
 362 698 l 1,8,-1
 362 134 l 1,0,-1
204 0 m 1,9,-1
 204 1470 l 1,10,-1
 1056 1470 l 1,11,-1
 1056 1336 l 1,12,-1
 362 1336 l 1,13,-1
 362 830 l 1,14,-1
 760 830 l 2,15,16
 974 830 974 830 1099 713 c 128,-1,17
 1224 596 1224 596 1224 412 c 0,18,19
 1224 234 1224 234 1103 117 c 128,-1,20
 982 0 982 0 778 0 c 2,21,-1
 204 0 l 1,9,-1
EndSplineSet
EndChar

StartChar: uni0183
Encoding: 387 387 325
Width: 1170
GlyphClass: 2
Flags: W
LayerCount: 2
Fore
SplineSet
316 528 m 0,0,1
 316 328 316 328 404 210 c 128,-1,2
 492 92 492 92 620 92 c 0,3,4
 758 92 758 92 844 209 c 128,-1,5
 930 326 930 326 930 528 c 0,6,7
 930 728 930 728 845 846 c 128,-1,8
 760 964 760 964 622 964 c 0,9,10
 494 964 494 964 405 845 c 128,-1,11
 316 726 316 726 316 528 c 0,0,1
168 0 m 1,12,-1
 168 1524 l 1,13,-1
 884 1524 l 1,14,-1
 884 1400 l 1,15,-1
 320 1400 l 1,16,-1
 320 868 l 1,17,18
 342 940 342 940 431 1016 c 128,-1,19
 520 1092 520 1092 642 1092 c 0,20,21
 838 1092 838 1092 961 940 c 128,-1,22
 1084 788 1084 788 1084 528 c 0,23,24
 1084 382 1084 382 1043 270 c 128,-1,25
 1002 158 1002 158 937 94 c 128,-1,26
 872 30 872 30 797 -3 c 128,-1,27
 722 -36 722 -36 642 -36 c 0,28,29
 526 -36 526 -36 440 30 c 128,-1,30
 354 96 354 96 318 188 c 1,31,-1
 318 0 l 1,32,-1
 168 0 l 1,12,-1
EndSplineSet
EndChar

StartChar: uni0184
Encoding: 388 388 326
Width: 1324
GlyphClass: 2
Flags: W
LayerCount: 2
Fore
SplineSet
48 1350 m 1,0,-1
 264 1470 l 1,1,-1
 362 1470 l 1,2,-1
 362 822 l 1,3,-1
 772 822 l 2,4,5
 988 822 988 822 1113 707 c 128,-1,6
 1238 592 1238 592 1238 412 c 0,7,8
 1238 248 1238 248 1121 124 c 128,-1,9
 1004 0 1004 0 806 0 c 2,10,-1
 204 0 l 1,11,-1
 204 1228 l 1,12,-1
 48 1350 l 1,0,-1
362 134 m 1,13,-1
 770 134 l 2,14,15
 898 134 898 134 988 207 c 128,-1,16
 1078 280 1078 280 1078 410 c 0,17,18
 1078 528 1078 528 992 610 c 128,-1,19
 906 692 906 692 764 692 c 2,20,-1
 362 692 l 1,21,-1
 362 134 l 1,13,-1
EndSplineSet
EndChar

StartChar: uni0185
Encoding: 389 389 327
Width: 1170
GlyphClass: 2
Flags: W
LayerCount: 2
Fore
SplineSet
20 1400 m 1,0,-1
 236 1524 l 1,1,-1
 320 1524 l 1,2,-1
 320 870 l 1,3,4
 368 984 368 984 463 1038 c 128,-1,5
 558 1092 558 1092 642 1092 c 0,6,7
 840 1092 840 1092 962 940 c 128,-1,8
 1084 788 1084 788 1084 528 c 0,9,10
 1084 384 1084 384 1044 272 c 128,-1,11
 1004 160 1004 160 939 95 c 128,-1,12
 874 30 874 30 798 -3 c 128,-1,13
 722 -36 722 -36 642 -36 c 0,14,15
 528 -36 528 -36 443 29 c 128,-1,16
 358 94 358 94 318 188 c 1,17,-1
 318 0 l 1,18,-1
 168 0 l 1,19,-1
 168 1280 l 1,20,-1
 20 1400 l 1,0,-1
316 528 m 0,21,22
 316 328 316 328 404 210 c 128,-1,23
 492 92 492 92 620 92 c 0,24,25
 758 92 758 92 844 209 c 128,-1,26
 930 326 930 326 930 528 c 0,27,28
 930 724 930 724 846 844 c 128,-1,29
 762 964 762 964 622 964 c 0,30,31
 494 964 494 964 405 845 c 128,-1,32
 316 726 316 726 316 528 c 0,21,22
EndSplineSet
EndChar

StartChar: uni0186
Encoding: 390 390 328
Width: 1300
GlyphClass: 2
Flags: W
LayerCount: 2
Fore
SplineSet
52 310 m 1,0,-1
 194 356 l 1,1,2
 244 248 244 248 342 174 c 128,-1,3
 440 100 440 100 572 100 c 0,4,5
 780 100 780 100 908 270 c 128,-1,6
 1036 440 1036 440 1036 734 c 0,7,8
 1036 1024 1036 1024 910 1198 c 128,-1,9
 784 1372 784 1372 572 1372 c 0,10,11
 358 1372 358 1372 226 1136 c 1,12,-1
 92 1184 l 1,13,14
 154 1314 154 1314 275 1410 c 128,-1,15
 396 1506 396 1506 570 1506 c 0,16,17
 848 1506 848 1506 1023 1300 c 128,-1,18
 1198 1094 1198 1094 1198 734 c 256,19,20
 1198 374 1198 374 1022 169 c 128,-1,21
 846 -36 846 -36 570 -36 c 0,22,23
 376 -36 376 -36 247 66 c 128,-1,24
 118 168 118 168 52 310 c 1,0,-1
EndSplineSet
EndChar

StartChar: uni018B
Encoding: 395 395 333
Width: 1312
GlyphClass: 2
Flags: W
LayerCount: 2
Fore
SplineSet
248 412 m 0,0,1
 248 278 248 278 334 206 c 128,-1,2
 420 134 420 134 556 134 c 2,3,-1
 950 134 l 1,4,-1
 950 698 l 1,5,-1
 572 698 l 2,6,7
 428 698 428 698 338 619 c 128,-1,8
 248 540 248 540 248 412 c 0,0,1
86 412 m 0,9,10
 86 596 86 596 212 713 c 128,-1,11
 338 830 338 830 554 830 c 2,12,-1
 950 830 l 1,13,-1
 950 1336 l 1,14,-1
 256 1336 l 1,15,-1
 256 1470 l 1,16,-1
 1106 1470 l 1,17,-1
 1106 0 l 1,18,-1
 530 0 l 2,19,20
 330 0 330 0 208 117 c 128,-1,21
 86 234 86 234 86 412 c 0,9,10
EndSplineSet
EndChar

StartChar: uni018C
Encoding: 396 396 334
Width: 1170
GlyphClass: 2
Flags: W
LayerCount: 2
Fore
SplineSet
240 528 m 0,0,1
 240 326 240 326 327 209 c 128,-1,2
 414 92 414 92 550 92 c 0,3,4
 680 92 680 92 767 211 c 128,-1,5
 854 330 854 330 854 528 c 256,6,7
 854 726 854 726 765 845 c 128,-1,8
 676 964 676 964 548 964 c 0,9,10
 410 964 410 964 325 846 c 128,-1,11
 240 728 240 728 240 528 c 0,0,1
86 528 m 0,12,13
 86 786 86 786 212 939 c 128,-1,14
 338 1092 338 1092 530 1092 c 0,15,16
 654 1092 654 1092 739 1019 c 128,-1,17
 824 946 824 946 850 872 c 1,18,-1
 850 1400 l 1,19,-1
 274 1400 l 1,20,-1
 274 1524 l 1,21,-1
 1000 1524 l 1,22,-1
 1000 0 l 1,23,-1
 854 0 l 1,24,-1
 854 190 l 1,25,26
 814 98 814 98 730 31 c 128,-1,27
 646 -36 646 -36 528 -36 c 0,28,29
 448 -36 448 -36 372 -3 c 128,-1,30
 296 30 296 30 230 94 c 128,-1,31
 164 158 164 158 125 270 c 128,-1,32
 86 382 86 382 86 528 c 0,12,13
EndSplineSet
EndChar

StartChar: uni018D
Encoding: 397 397 335
Width: 1222
GlyphClass: 2
Flags: W
LayerCount: 2
Fore
SplineSet
240 634 m 0,0,1
 240 500 240 500 356 386 c 128,-1,2
 472 272 472 272 622 212 c 1,3,4
 780 282 780 282 881 396 c 128,-1,5
 982 510 982 510 982 634 c 0,6,7
 982 772 982 772 887 868 c 128,-1,8
 792 964 792 964 618 964 c 0,9,10
 452 964 452 964 346 873 c 128,-1,11
 240 782 240 782 240 634 c 0,0,1
86 628 m 0,12,13
 86 844 86 844 231 968 c 128,-1,14
 376 1092 376 1092 620 1092 c 0,15,16
 860 1092 860 1092 998 963 c 128,-1,17
 1136 834 1136 834 1136 640 c 0,18,19
 1136 504 1136 504 1033 368 c 128,-1,20
 930 232 930 232 750 144 c 1,21,22
 992 8 992 8 992 -146 c 0,23,24
 992 -280 992 -280 883 -365 c 128,-1,25
 774 -450 774 -450 582 -450 c 0,26,27
 290 -450 290 -450 144 -222 c 1,28,-1
 258 -154 l 1,29,30
 304 -220 304 -220 388 -270 c 128,-1,31
 472 -320 472 -320 580 -320 c 0,32,33
 686 -320 686 -320 762 -272 c 128,-1,34
 838 -224 838 -224 838 -146 c 0,35,36
 838 -116 838 -116 817 -85 c 128,-1,37
 796 -54 796 -54 771 -32 c 128,-1,38
 746 -10 746 -10 693 21 c 128,-1,39
 640 52 640 52 604 71 c 128,-1,40
 568 90 568 90 498 124 c 0,41,42
 318 214 318 214 202 343 c 128,-1,43
 86 472 86 472 86 628 c 0,12,13
EndSplineSet
EndChar

StartChar: uni018E
Encoding: 398 398 336
Width: 1218
GlyphClass: 2
Flags: W
LayerCount: 2
Fore
SplineSet
78 0 m 1,0,-1
 78 134 l 1,1,-1
 858 134 l 1,2,-1
 858 694 l 1,3,-1
 168 694 l 1,4,-1
 168 826 l 1,5,-1
 858 826 l 1,6,-1
 858 1336 l 1,7,-1
 96 1336 l 1,8,-1
 96 1470 l 1,9,-1
 1014 1470 l 1,10,-1
 1014 0 l 1,11,-1
 78 0 l 1,0,-1
EndSplineSet
EndChar

StartChar: uni018F
Encoding: 399 399 337
Width: 1402
GlyphClass: 2
Flags: W
LayerCount: 2
Fore
SplineSet
94 682 m 0,0,1
 94 766 94 766 96 798 c 1,2,-1
 1138 798 l 1,3,4
 1126 1064 1126 1064 1009 1218 c 128,-1,5
 892 1372 892 1372 676 1372 c 0,6,7
 424 1372 424 1372 272 1146 c 1,8,-1
 140 1202 l 1,9,10
 216 1346 216 1346 356 1426 c 128,-1,11
 496 1506 496 1506 678 1506 c 0,12,13
 988 1506 988 1506 1146 1292 c 128,-1,14
 1304 1078 1304 1078 1304 732 c 0,15,16
 1304 372 1304 372 1130 168 c 128,-1,17
 956 -36 956 -36 682 -36 c 0,18,19
 488 -36 488 -36 352 67 c 128,-1,20
 216 170 216 170 155 328 c 128,-1,21
 94 486 94 486 94 682 c 0,0,1
258 664 m 1,22,23
 258 654 258 654 259 639 c 128,-1,24
 260 624 260 624 260 618 c 0,25,26
 262 520 262 520 285 435 c 128,-1,27
 308 350 308 350 355 270 c 128,-1,28
 402 190 402 190 488 144 c 128,-1,29
 574 98 574 98 686 98 c 0,30,31
 768 98 768 98 843 129 c 128,-1,32
 918 160 918 160 986 224 c 128,-1,33
 1054 288 1054 288 1096 402 c 128,-1,34
 1138 516 1138 516 1140 664 c 1,35,-1
 258 664 l 1,22,23
EndSplineSet
EndChar

StartChar: uni0190
Encoding: 400 400 338
Width: 1206
GlyphClass: 2
Flags: W
LayerCount: 2
Fore
SplineSet
102 406 m 0,0,1
 102 560 102 560 196 654 c 128,-1,2
 290 748 290 748 412 782 c 1,3,4
 310 820 310 820 235 911 c 128,-1,5
 160 1002 160 1002 160 1130 c 0,6,7
 160 1294 160 1294 284 1400 c 128,-1,8
 408 1506 408 1506 620 1506 c 0,9,10
 812 1506 812 1506 925 1414 c 128,-1,11
 1038 1322 1038 1322 1094 1200 c 1,12,-1
 960 1154 l 1,13,14
 844 1378 844 1378 628 1378 c 0,15,16
 494 1378 494 1378 407 1303 c 128,-1,17
 320 1228 320 1228 320 1114 c 0,18,19
 320 986 320 986 423 909 c 128,-1,20
 526 832 526 832 662 832 c 0,21,22
 746 832 746 832 788 836 c 1,23,-1
 788 706 l 1,24,25
 742 710 742 710 656 710 c 0,26,27
 498 710 498 710 380 632 c 128,-1,28
 262 554 262 554 262 408 c 0,29,30
 262 254 262 254 372 174 c 128,-1,31
 482 94 482 94 636 94 c 0,32,33
 744 94 744 94 848 154 c 128,-1,34
 952 214 952 214 1004 302 c 1,35,-1
 1132 250 l 1,36,37
 1070 120 1070 120 934 42 c 128,-1,38
 798 -36 798 -36 630 -36 c 0,39,40
 402 -36 402 -36 252 82 c 128,-1,41
 102 200 102 200 102 406 c 0,0,1
EndSplineSet
EndChar

StartChar: uni0191
Encoding: 401 401 339
Width: 1122
GlyphClass: 2
Flags: W
LayerCount: 2
Fore
SplineSet
-70 -328 m 1,0,1
 -2 -338 -2 -338 28 -338 c 0,2,3
 124 -338 124 -338 164 -272 c 128,-1,4
 204 -206 204 -206 204 -72 c 2,5,-1
 204 1470 l 1,6,-1
 1096 1470 l 1,7,-1
 1096 1336 l 1,8,-1
 362 1336 l 1,9,-1
 362 806 l 1,10,-1
 1020 806 l 1,11,-1
 1020 676 l 1,12,-1
 362 676 l 1,13,-1
 362 -72 l 2,14,15
 362 -280 362 -280 277 -375 c 128,-1,16
 192 -470 192 -470 54 -470 c 0,17,18
 -4 -470 -4 -470 -70 -458 c 1,19,-1
 -70 -328 l 1,0,1
EndSplineSet
EndChar

StartChar: florin
Encoding: 402 402 340
Width: 672
GlyphClass: 2
Flags: W
LayerCount: 2
Fore
SplineSet
-58 -330 m 1,0,1
 -18 -338 -18 -338 42 -338 c 0,2,3
 228 -338 228 -338 228 -60 c 2,4,-1
 228 928 l 1,5,-1
 46 928 l 1,6,-1
 46 1056 l 1,7,-1
 228 1056 l 1,8,-1
 228 1218 l 2,9,10
 228 1376 228 1376 305 1450 c 128,-1,11
 382 1524 382 1524 520 1524 c 2,12,-1
 660 1524 l 1,13,-1
 660 1400 l 1,14,-1
 540 1400 l 2,15,16
 378 1400 378 1400 378 1204 c 2,17,-1
 378 1056 l 1,18,-1
 632 1056 l 1,19,-1
 632 928 l 1,20,-1
 378 928 l 1,21,-1
 378 -64 l 2,22,23
 378 -274 378 -274 294 -372 c 128,-1,24
 210 -470 210 -470 68 -470 c 0,25,26
 42 -470 42 -470 -58 -458 c 1,27,-1
 -58 -330 l 1,0,1
EndSplineSet
EndChar

StartChar: uni0194
Encoding: 404 404 342
Width: 1212
GlyphClass: 2
Flags: W
LayerCount: 2
Fore
SplineSet
-4 1470 m 1,0,-1
 170 1470 l 1,1,-1
 582 374 l 1,2,-1
 608 300 l 1,3,-1
 610 300 l 1,4,-1
 634 374 l 1,5,-1
 1042 1470 l 1,6,-1
 1216 1470 l 1,7,-1
 728 224 l 1,8,9
 814 114 814 114 861 23 c 128,-1,10
 908 -68 908 -68 908 -168 c 0,11,12
 908 -294 908 -294 824 -382 c 128,-1,13
 740 -470 740 -470 608 -470 c 0,14,15
 474 -470 474 -470 390 -387 c 128,-1,16
 306 -304 306 -304 306 -168 c 0,17,18
 306 -102 306 -102 338 -25 c 128,-1,19
 370 52 370 52 403 102 c 128,-1,20
 436 152 436 152 488 224 c 1,21,-1
 -4 1470 l 1,0,-1
464 -162 m 0,22,23
 464 -240 464 -240 504 -292 c 128,-1,24
 544 -344 544 -344 608 -344 c 0,25,26
 674 -344 674 -344 714 -290 c 128,-1,27
 754 -236 754 -236 754 -162 c 0,28,29
 754 -32 754 -32 606 140 c 1,30,31
 464 -24 464 -24 464 -162 c 0,22,23
EndSplineSet
EndChar

StartChar: uni0195
Encoding: 405 405 343
Width: 1792
GlyphClass: 2
Flags: W
LayerCount: 2
Fore
SplineSet
168 0 m 1,0,-1
 168 1524 l 1,1,-1
 320 1524 l 1,2,-1
 320 888 l 1,3,-1
 322 888 l 1,4,5
 368 980 368 980 455 1036 c 128,-1,6
 542 1092 542 1092 648 1092 c 0,7,8
 992 1092 992 1092 992 682 c 2,9,-1
 992 350 l 2,10,11
 992 232 992 232 1051 162 c 128,-1,12
 1110 92 1110 92 1240 92 c 0,13,14
 1494 92 1494 92 1494 358 c 2,15,-1
 1494 1056 l 1,16,-1
 1646 1056 l 1,17,-1
 1646 338 l 2,18,19
 1646 154 1646 154 1537 59 c 128,-1,20
 1428 -36 1428 -36 1240 -36 c 0,21,22
 1162 -36 1162 -36 1094 -18 c 128,-1,23
 1026 0 1026 0 967 39 c 128,-1,24
 908 78 908 78 874 151 c 128,-1,25
 840 224 840 224 840 324 c 2,26,-1
 840 658 l 2,27,28
 840 964 840 964 620 964 c 0,29,30
 498 964 498 964 409 864 c 128,-1,31
 320 764 320 764 320 632 c 0,32,33
 320 628 320 628 320 626 c 2,34,-1
 320 0 l 1,35,-1
 168 0 l 1,0,-1
EndSplineSet
EndChar

StartChar: uni0196
Encoding: 406 406 344
Width: 694
GlyphClass: 2
Flags: W
LayerCount: 2
Fore
SplineSet
204 320 m 2,0,-1
 204 1470 l 1,1,-1
 362 1470 l 1,2,-1
 362 326 l 2,3,4
 362 208 362 208 399 153 c 128,-1,5
 436 98 436 98 520 98 c 0,6,7
 592 98 592 98 664 110 c 1,8,-1
 664 -22 l 1,9,10
 558 -36 558 -36 494 -36 c 0,11,12
 362 -36 362 -36 283 50 c 128,-1,13
 204 136 204 136 204 320 c 2,0,-1
EndSplineSet
EndChar

StartChar: uni0197
Encoding: 407 407 345
Width: 564
GlyphClass: 2
Flags: W
LayerCount: 2
Fore
SplineSet
52 686 m 1,0,-1
 52 810 l 1,1,-1
 204 810 l 1,2,-1
 204 1470 l 1,3,-1
 362 1470 l 1,4,-1
 362 810 l 1,5,-1
 514 810 l 1,6,-1
 514 686 l 1,7,-1
 362 686 l 1,8,-1
 362 0 l 1,9,-1
 204 0 l 1,10,-1
 204 686 l 1,11,-1
 52 686 l 1,0,-1
EndSplineSet
EndChar

StartChar: uni0198
Encoding: 408 408 346
Width: 1274
GlyphClass: 2
Flags: W
LayerCount: 2
Fore
SplineSet
204 0 m 1,0,-1
 204 1470 l 1,1,-1
 362 1470 l 1,2,-1
 362 692 l 1,3,-1
 366 692 l 1,4,-1
 966 1392 l 2,5,6
 1066 1506 1066 1506 1224 1506 c 0,7,8
 1304 1506 1304 1506 1366 1490 c 1,9,-1
 1366 1354 l 1,10,11
 1296 1372 1296 1372 1232 1372 c 0,12,13
 1154 1372 1154 1372 1106 1314 c 2,14,-1
 682 834 l 1,15,-1
 1274 0 l 1,16,-1
 1076 0 l 1,17,-1
 582 720 l 1,18,-1
 362 470 l 1,19,-1
 362 0 l 1,20,-1
 204 0 l 1,0,-1
EndSplineSet
EndChar

StartChar: uni0199
Encoding: 409 409 347
Width: 1016
GlyphClass: 2
Flags: W
LayerCount: 2
Fore
SplineSet
172 0 m 1,0,-1
 172 1220 l 2,1,2
 172 1372 172 1372 263 1454 c 128,-1,3
 354 1536 354 1536 504 1536 c 0,4,5
 558 1536 558 1536 648 1528 c 1,6,-1
 648 1398 l 1,7,8
 578 1406 578 1406 530 1406 c 0,9,10
 440 1406 440 1406 382 1352 c 128,-1,11
 324 1298 324 1298 324 1196 c 2,12,-1
 324 524 l 1,13,-1
 786 1056 l 1,14,-1
 986 1056 l 1,15,-1
 606 634 l 1,16,-1
 1028 0 l 1,17,-1
 844 0 l 1,18,-1
 510 528 l 1,19,-1
 324 322 l 1,20,-1
 324 0 l 1,21,-1
 172 0 l 1,0,-1
EndSplineSet
EndChar

StartChar: uni019A
Encoding: 410 410 348
Width: 510
GlyphClass: 2
Flags: W
LayerCount: 2
Fore
SplineSet
16 742 m 1,0,-1
 16 866 l 1,1,-1
 180 866 l 1,2,-1
 180 1524 l 1,3,-1
 332 1524 l 1,4,-1
 332 866 l 1,5,-1
 496 866 l 1,6,-1
 496 742 l 1,7,-1
 332 742 l 1,8,-1
 332 0 l 1,9,-1
 180 0 l 1,10,-1
 180 742 l 1,11,-1
 16 742 l 1,0,-1
EndSplineSet
EndChar

StartChar: uni019B
Encoding: 411 411 349
Width: 988
GlyphClass: 2
Flags: W
LayerCount: 2
Fore
SplineSet
14 0 m 1,0,-1
 426 1070 l 1,1,-1
 392 1170 l 1,2,-1
 150 996 l 1,3,-1
 76 1090 l 1,4,-1
 348 1276 l 1,5,6
 286 1392 286 1392 158 1392 c 2,7,-1
 120 1392 l 1,8,-1
 120 1518 l 1,9,-1
 182 1518 l 2,10,11
 362 1518 362 1518 460 1354 c 1,12,-1
 650 1500 l 1,13,-1
 724 1406 l 1,14,-1
 510 1248 l 1,15,-1
 972 0 l 1,16,-1
 796 0 l 1,17,-1
 590 618 l 2,18,19
 586 630 586 630 552 731 c 128,-1,20
 518 832 518 832 502 886 c 1,21,-1
 494 886 l 1,22,23
 472 802 472 802 408 618 c 2,24,-1
 190 0 l 1,25,-1
 14 0 l 1,0,-1
EndSplineSet
EndChar

StartChar: uni019C
Encoding: 412 412 350
Width: 1920
GlyphClass: 2
Flags: W
LayerCount: 2
Fore
SplineSet
204 436 m 2,0,-1
 204 1470 l 1,1,-1
 360 1470 l 1,2,-1
 360 430 l 2,3,4
 360 96 360 96 578 96 c 0,5,6
 702 96 702 96 792 207 c 128,-1,7
 882 318 882 318 882 480 c 2,8,-1
 882 1470 l 1,9,-1
 1038 1470 l 1,10,-1
 1038 426 l 2,11,12
 1038 266 1038 266 1096 182 c 128,-1,13
 1154 98 1154 98 1262 98 c 0,14,15
 1394 98 1394 98 1477 203 c 128,-1,16
 1560 308 1560 308 1560 472 c 2,17,-1
 1560 1470 l 1,18,-1
 1716 1470 l 1,19,-1
 1716 0 l 1,20,-1
 1566 0 l 1,21,-1
 1566 176 l 1,22,-1
 1562 176 l 1,23,24
 1538 98 1538 98 1446 31 c 128,-1,25
 1354 -36 1354 -36 1228 -36 c 0,26,27
 982 -36 982 -36 920 210 c 1,28,29
 894 122 894 122 795 43 c 128,-1,30
 696 -36 696 -36 544 -36 c 0,31,32
 204 -36 204 -36 204 436 c 2,0,-1
EndSplineSet
EndChar

StartChar: uni019D
Encoding: 413 413 351
Width: 1452
GlyphClass: 2
Flags: W
LayerCount: 2
Fore
SplineSet
204 1470 m 1,0,-1
 384 1470 l 1,1,-1
 994 418 l 1,2,-1
 1102 222 l 1,3,-1
 1112 222 l 1,4,5
 1092 406 1092 406 1092 638 c 2,6,-1
 1092 1470 l 1,7,-1
 1248 1470 l 1,8,-1
 1248 0 l 1,9,-1
 1068 0 l 1,10,-1
 466 1044 l 1,11,-1
 352 1246 l 1,12,-1
 342 1246 l 1,13,14
 362 1056 362 1056 362 832 c 2,15,-1
 362 -36 l 2,16,17
 362 -470 362 -470 44 -470 c 0,18,19
 2 -470 2 -470 -56 -460 c 1,20,-1
 -56 -330 l 1,21,22
 -28 -336 -28 -336 16 -336 c 0,23,24
 126 -336 126 -336 165 -261 c 128,-1,25
 204 -186 204 -186 204 -32 c 2,26,-1
 204 1470 l 1,0,-1
EndSplineSet
EndChar

StartChar: uni019E
Encoding: 414 414 352
Width: 1148
GlyphClass: 2
Flags: W
LayerCount: 2
Fore
SplineSet
158 0 m 1,0,-1
 158 1056 l 1,1,-1
 304 1056 l 1,2,-1
 304 878 l 1,3,-1
 306 878 l 1,4,5
 346 968 346 968 432 1030 c 128,-1,6
 518 1092 518 1092 642 1092 c 0,7,8
 788 1092 788 1092 884 999 c 128,-1,9
 980 906 980 906 980 682 c 2,10,-1
 980 -462 l 1,11,-1
 828 -462 l 1,12,-1
 828 658 l 2,13,14
 828 964 828 964 608 964 c 0,15,16
 486 964 486 964 397 865 c 128,-1,17
 308 766 308 766 308 630 c 2,18,-1
 308 0 l 1,19,-1
 158 0 l 1,0,-1
EndSplineSet
EndChar

StartChar: uni019F
Encoding: 415 415 353
Width: 1426
GlyphClass: 2
Flags: W
LayerCount: 2
Fore
SplineSet
102 734 m 0,0,1
 102 1080 102 1080 269 1293 c 128,-1,2
 436 1506 436 1506 714 1506 c 0,3,4
 996 1506 996 1506 1160 1294 c 128,-1,5
 1324 1082 1324 1082 1324 732 c 0,6,7
 1324 378 1324 378 1158 171 c 128,-1,8
 992 -36 992 -36 714 -36 c 256,9,10
 436 -36 436 -36 269 173 c 128,-1,11
 102 382 102 382 102 734 c 0,0,1
1162 670 m 1,12,-1
 264 670 l 1,13,14
 278 406 278 406 398 253 c 128,-1,15
 518 100 518 100 714 100 c 0,16,17
 906 100 906 100 1027 251 c 128,-1,18
 1148 402 1148 402 1162 670 c 1,12,-1
264 792 m 1,19,-1
 1162 792 l 1,20,21
 1150 1058 1150 1058 1032 1215 c 128,-1,22
 914 1372 914 1372 714 1372 c 0,23,24
 516 1372 516 1372 396 1216 c 128,-1,25
 276 1060 276 1060 264 792 c 1,19,-1
EndSplineSet
EndChar

StartChar: uni01A2
Encoding: 418 418 356
Width: 1956
GlyphClass: 2
Flags: W
LayerCount: 2
Fore
SplineSet
102 724 m 0,0,1
 102 1088 102 1088 271 1297 c 128,-1,2
 440 1506 440 1506 698 1506 c 0,3,4
 798 1506 798 1506 990 1465 c 128,-1,5
 1182 1424 1182 1424 1330 1424 c 0,6,7
 1482 1424 1482 1424 1752 1470 c 1,8,-1
 1752 0 l 1,9,-1
 1598 0 l 1,10,-1
 1598 1316 l 1,11,12
 1472 1294 1472 1294 1328 1294 c 0,13,14
 1202 1294 1202 1294 1082 1312 c 1,15,-1
 1082 110 l 1,16,17
 924 -36 924 -36 698 -36 c 0,18,19
 438 -36 438 -36 270 173 c 128,-1,20
 102 382 102 382 102 724 c 0,0,1
262 724 m 0,21,22
 262 434 262 434 387 266 c 128,-1,23
 512 98 512 98 698 98 c 0,24,25
 818 98 818 98 924 168 c 1,26,-1
 924 1334 l 1,27,28
 910 1338 910 1338 880 1347 c 128,-1,29
 850 1356 850 1356 833 1361 c 128,-1,30
 816 1366 816 1366 780 1370 c 128,-1,31
 744 1374 744 1374 698 1374 c 0,32,33
 518 1374 518 1374 390 1204 c 128,-1,34
 262 1034 262 1034 262 724 c 0,21,22
EndSplineSet
EndChar

StartChar: uni01A3
Encoding: 419 419 357
Width: 1598
GlyphClass: 2
Flags: W
LayerCount: 2
Fore
SplineSet
86 528 m 256,0,1
 86 796 86 796 217 944 c 128,-1,2
 348 1092 348 1092 566 1092 c 0,3,4
 658 1092 658 1092 820 1061 c 128,-1,5
 982 1030 982 1030 1104 1030 c 0,6,7
 1274 1030 1274 1030 1440 1062 c 1,8,-1
 1440 0 l 1,9,-1
 1292 0 l 1,10,-1
 1292 914 l 1,11,12
 1222 904 1222 904 1102 904 c 0,13,14
 976 904 976 904 922 912 c 1,15,-1
 922 142 l 1,16,17
 792 -36 792 -36 566 -36 c 0,18,19
 354 -36 354 -36 220 112 c 128,-1,20
 86 260 86 260 86 528 c 256,0,1
240 528 m 0,21,22
 240 330 240 330 329 211 c 128,-1,23
 418 92 418 92 566 92 c 0,24,25
 686 92 686 92 772 210 c 1,26,-1
 772 934 l 1,27,28
 628 964 628 964 566 964 c 0,29,30
 406 964 406 964 323 842 c 128,-1,31
 240 720 240 720 240 528 c 0,21,22
EndSplineSet
EndChar

StartChar: uni01A5
Encoding: 421 421 359
Width: 1170
GlyphClass: 2
Flags: W
LayerCount: 2
Fore
SplineSet
318 528 m 0,0,1
 318 324 318 324 402 208 c 128,-1,2
 486 92 486 92 620 92 c 0,3,4
 758 92 758 92 844 210 c 128,-1,5
 930 328 930 328 930 528 c 0,6,7
 930 724 930 724 844 844 c 128,-1,8
 758 964 758 964 620 964 c 0,9,10
 492 964 492 964 405 845 c 128,-1,11
 318 726 318 726 318 528 c 0,0,1
168 -462 m 1,12,-1
 168 1218 l 2,13,14
 168 1384 168 1384 263 1460 c 128,-1,15
 358 1536 358 1536 492 1536 c 0,16,17
 544 1536 544 1536 638 1528 c 1,18,-1
 638 1400 l 1,19,20
 578 1406 578 1406 516 1406 c 0,21,22
 418 1406 418 1406 367 1345 c 128,-1,23
 316 1284 316 1284 316 1196 c 2,24,-1
 316 860 l 1,25,26
 340 940 340 940 429 1016 c 128,-1,27
 518 1092 518 1092 642 1092 c 0,28,29
 832 1092 832 1092 958 939 c 128,-1,30
 1084 786 1084 786 1084 528 c 0,31,32
 1084 382 1084 382 1043 270 c 128,-1,33
 1002 158 1002 158 937 94 c 128,-1,34
 872 30 872 30 796 -3 c 128,-1,35
 720 -36 720 -36 640 -36 c 0,36,37
 520 -36 520 -36 437 30 c 128,-1,38
 354 96 354 96 320 184 c 1,39,-1
 320 -462 l 1,40,-1
 168 -462 l 1,12,-1
EndSplineSet
EndChar

StartChar: uni01A6
Encoding: 422 422 360
Width: 1238
GlyphClass: 2
Flags: W
LayerCount: 2
Fore
SplineSet
332 594 m 1,0,-1
 650 594 l 2,1,2
 782 594 782 594 868 656 c 128,-1,3
 954 718 954 718 954 866 c 0,4,5
 954 1114 954 1114 656 1114 c 2,6,-1
 332 1114 l 1,7,-1
 332 594 l 1,0,-1
174 0 m 1,8,-1
 174 1470 l 1,9,-1
 332 1470 l 1,10,-1
 332 1248 l 1,11,-1
 690 1248 l 2,12,13
 904 1248 904 1248 1008 1143 c 128,-1,14
 1112 1038 1112 1038 1112 878 c 0,15,16
 1112 798 1112 798 1087 736 c 128,-1,17
 1062 674 1062 674 1032 639 c 128,-1,18
 1002 604 1002 604 950 574 c 128,-1,19
 898 544 898 544 879 537 c 128,-1,20
 860 530 860 530 818 516 c 1,21,22
 896 474 896 474 933 417 c 128,-1,23
 970 360 970 360 1000 256 c 0,24,25
 1004 246 1004 246 1022 190 c 128,-1,26
 1040 134 1040 134 1045 118 c 128,-1,27
 1050 102 1050 102 1067 55 c 128,-1,28
 1084 8 1084 8 1095 -18 c 128,-1,29
 1106 -44 1106 -44 1126 -84 c 128,-1,30
 1146 -124 1146 -124 1168 -160 c 1,31,-1
 996 -160 l 1,32,33
 962 -102 962 -102 936 -38 c 128,-1,34
 910 26 910 26 877 125 c 128,-1,35
 844 224 844 224 830 260 c 0,36,37
 794 364 794 364 743 414 c 128,-1,38
 692 464 692 464 594 464 c 2,39,-1
 332 464 l 1,40,-1
 332 0 l 1,41,-1
 174 0 l 1,8,-1
EndSplineSet
EndChar

StartChar: uni01A7
Encoding: 423 423 361
Width: 1206
GlyphClass: 2
Flags: W
LayerCount: 2
Fore
SplineSet
80 384 m 0,0,1
 80 460 80 460 106 520 c 128,-1,2
 132 580 132 580 170 622 c 128,-1,3
 208 664 208 664 270 700 c 128,-1,4
 332 736 332 736 385 757 c 128,-1,5
 438 778 438 778 514 802 c 0,6,7
 734 876 734 876 804 918 c 0,8,9
 928 998 928 998 928 1120 c 0,10,11
 928 1234 928 1234 842 1303 c 128,-1,12
 756 1372 756 1372 602 1372 c 0,13,14
 384 1372 384 1372 248 1188 c 1,15,-1
 114 1232 l 1,16,17
 176 1348 176 1348 304 1427 c 128,-1,18
 432 1506 432 1506 598 1506 c 0,19,20
 822 1506 822 1506 957 1401 c 128,-1,21
 1092 1296 1092 1296 1092 1120 c 0,22,23
 1092 1064 1092 1064 1075 1014 c 128,-1,24
 1058 964 1058 964 1037 928 c 128,-1,25
 1016 892 1016 892 971 858 c 128,-1,26
 926 824 926 824 896 805 c 128,-1,27
 866 786 866 786 802 760 c 128,-1,28
 738 734 738 734 709 724 c 128,-1,29
 680 714 680 714 609 691 c 128,-1,30
 538 668 538 668 497 652 c 128,-1,31
 456 636 456 636 400 607 c 128,-1,32
 344 578 344 578 314 549 c 128,-1,33
 284 520 284 520 263 476 c 128,-1,34
 242 432 242 432 242 378 c 0,35,36
 242 252 242 252 340 175 c 128,-1,37
 438 98 438 98 588 98 c 0,38,39
 710 98 710 98 821 162 c 128,-1,40
 932 226 932 226 992 322 c 1,41,-1
 1128 268 l 1,42,43
 1058 134 1058 134 918 49 c 128,-1,44
 778 -36 778 -36 592 -36 c 0,45,46
 360 -36 360 -36 220 75 c 128,-1,47
 80 186 80 186 80 384 c 0,0,1
EndSplineSet
EndChar

StartChar: uni01A8
Encoding: 424 424 362
Width: 984
GlyphClass: 2
Flags: W
LayerCount: 2
Fore
SplineSet
68 262 m 0,0,1
 68 326 68 326 101 379 c 128,-1,2
 134 432 134 432 195 468 c 128,-1,3
 256 504 256 504 309 526 c 128,-1,4
 362 548 362 548 438 572 c 0,5,6
 506 592 506 592 544 607 c 128,-1,7
 582 622 582 622 632 649 c 128,-1,8
 682 676 682 676 705 711 c 128,-1,9
 728 746 728 746 728 792 c 0,10,11
 728 874 728 874 664 919 c 128,-1,12
 600 964 600 964 482 964 c 0,13,14
 386 964 386 964 311 913 c 128,-1,15
 236 862 236 862 192 794 c 1,16,-1
 90 862 l 1,17,18
 142 956 142 956 249 1024 c 128,-1,19
 356 1092 356 1092 484 1092 c 0,20,21
 662 1092 662 1092 772 1013 c 128,-1,22
 882 934 882 934 882 794 c 0,23,24
 882 726 882 726 853 673 c 128,-1,25
 824 620 824 620 770 584 c 128,-1,26
 716 548 716 548 668 527 c 128,-1,27
 620 506 620 506 550 482 c 0,28,29
 534 476 534 476 493 464 c 128,-1,30
 452 452 452 452 433 446 c 128,-1,31
 414 440 414 440 379 427 c 128,-1,32
 344 414 344 414 327 404 c 128,-1,33
 310 394 310 394 286 378 c 128,-1,34
 262 362 262 362 251 346 c 128,-1,35
 240 330 240 330 231 308 c 128,-1,36
 222 286 222 286 222 262 c 0,37,38
 222 180 222 180 292 136 c 128,-1,39
 362 92 362 92 482 92 c 0,40,41
 578 92 578 92 662 140 c 128,-1,42
 746 188 746 188 798 274 c 1,43,-1
 912 208 l 1,44,45
 852 98 852 98 742 31 c 128,-1,46
 632 -36 632 -36 482 -36 c 0,47,48
 286 -36 286 -36 177 51 c 128,-1,49
 68 138 68 138 68 262 c 0,0,1
EndSplineSet
EndChar

StartChar: uni01A9
Encoding: 425 425 363
Width: 1230
GlyphClass: 2
Flags: W
LayerCount: 2
Fore
SplineSet
170 0 m 1,0,-1
 170 106 l 1,1,-1
 716 736 l 1,2,-1
 170 1364 l 1,3,-1
 170 1470 l 1,4,-1
 1088 1470 l 1,5,-1
 1088 1334 l 1,6,-1
 386 1334 l 1,7,-1
 894 736 l 1,8,-1
 386 134 l 1,9,-1
 1100 134 l 1,10,-1
 1100 0 l 1,11,-1
 170 0 l 1,0,-1
EndSplineSet
EndChar

StartChar: uni01AA
Encoding: 426 426 364
Width: 868
GlyphClass: 2
Flags: W
LayerCount: 2
Fore
SplineSet
54 1218 m 0,0,1
 54 1148 54 1148 104 1108 c 128,-1,2
 154 1068 154 1068 220 1068 c 0,3,4
 342 1068 342 1068 412 1132 c 1,5,6
 412 1232 412 1232 369 1306 c 128,-1,7
 326 1380 326 1380 224 1380 c 0,8,9
 154 1380 154 1380 104 1333 c 128,-1,10
 54 1286 54 1286 54 1218 c 0,0,1
-98 1212 m 0,11,12
 -98 1346 -98 1346 -7 1426 c 128,-1,13
 84 1506 84 1506 222 1506 c 0,14,15
 388 1506 388 1506 475 1403 c 128,-1,16
 562 1300 562 1300 562 1118 c 2,17,-1
 562 -140 l 2,18,19
 562 -238 562 -238 600 -288 c 128,-1,20
 638 -338 638 -338 730 -338 c 0,21,22
 764 -338 764 -338 842 -328 c 1,23,-1
 842 -456 l 1,24,25
 710 -470 710 -470 702 -470 c 0,26,27
 562 -470 562 -470 485 -390 c 128,-1,28
 408 -310 408 -310 408 -148 c 2,29,-1
 408 998 l 1,30,31
 346 940 346 940 198 940 c 0,32,33
 70 940 70 940 -14 1016 c 128,-1,34
 -98 1092 -98 1092 -98 1212 c 0,11,12
EndSplineSet
EndChar

StartChar: uni01AB
Encoding: 427 427 365
Width: 716
GlyphClass: 2
Flags: W
LayerCount: 2
Fore
SplineSet
40 928 m 1,0,-1
 40 1056 l 1,1,-1
 224 1056 l 1,2,-1
 224 1396 l 1,3,-1
 374 1396 l 1,4,-1
 374 1056 l 1,5,-1
 654 1056 l 1,6,-1
 654 928 l 1,7,-1
 374 928 l 1,8,-1
 374 310 l 2,9,10
 374 214 374 214 413 172 c 128,-1,11
 452 130 452 130 534 130 c 0,12,13
 648 130 648 130 702 140 c 1,14,-1
 702 -48 l 2,15,16
 702 -470 702 -470 390 -470 c 0,17,18
 342 -470 342 -470 278 -458 c 1,19,-1
 278 -328 l 1,20,21
 342 -338 342 -338 374 -338 c 0,22,23
 556 -338 556 -338 556 -66 c 2,24,-1
 556 -2 l 1,25,26
 494 -2 494 -2 432 8 c 0,27,28
 224 44 224 44 224 296 c 2,29,-1
 224 928 l 1,30,-1
 40 928 l 1,0,-1
EndSplineSet
EndChar

StartChar: uni01AC
Encoding: 428 428 366
Width: 1158
GlyphClass: 2
Flags: W
LayerCount: 2
Fore
SplineSet
-46 1200 m 0,0,1
 -46 1470 -46 1470 320 1470 c 2,2,-1
 1138 1470 l 1,3,-1
 1138 1334 l 1,4,-1
 690 1334 l 1,5,-1
 690 0 l 1,6,-1
 534 0 l 1,7,-1
 534 1334 l 1,8,-1
 324 1334 l 2,9,10
 96 1334 96 1334 96 1188 c 0,11,12
 96 1156 96 1156 104 1116 c 1,13,-1
 -36 1116 l 1,14,15
 -46 1160 -46 1160 -46 1200 c 0,0,1
EndSplineSet
EndChar

StartChar: uni01AD
Encoding: 429 429 367
Width: 716
GlyphClass: 2
Flags: W
LayerCount: 2
Fore
SplineSet
40 928 m 1,0,-1
 40 1056 l 1,1,-1
 224 1056 l 1,2,-1
 224 1220 l 2,3,4
 224 1372 224 1372 314 1454 c 128,-1,5
 404 1536 404 1536 556 1536 c 0,6,7
 606 1536 606 1536 696 1528 c 1,8,-1
 696 1400 l 1,9,10
 644 1406 644 1406 580 1406 c 0,11,12
 486 1406 486 1406 430 1354 c 128,-1,13
 374 1302 374 1302 374 1204 c 2,14,-1
 374 1056 l 1,15,-1
 654 1056 l 1,16,-1
 654 928 l 1,17,-1
 374 928 l 1,18,-1
 374 310 l 2,19,20
 374 214 374 214 413 172 c 128,-1,21
 452 130 452 130 534 130 c 2,22,-1
 656 130 l 1,23,-1
 656 0 l 1,24,-1
 514 0 l 2,25,26
 224 0 224 0 224 296 c 2,27,-1
 224 928 l 1,28,-1
 40 928 l 1,0,-1
EndSplineSet
EndChar

StartChar: uni01AE
Encoding: 430 430 368
Width: 1096
GlyphClass: 2
Flags: W
LayerCount: 2
Fore
SplineSet
26 1334 m 1,0,-1
 26 1470 l 1,1,-1
 1076 1470 l 1,2,-1
 1076 1334 l 1,3,-1
 628 1334 l 1,4,-1
 628 -116 l 2,5,6
 628 -234 628 -234 667 -286 c 128,-1,7
 706 -338 706 -338 800 -338 c 0,8,9
 824 -338 824 -338 896 -328 c 1,10,-1
 896 -458 l 1,11,12
 802 -470 802 -470 774 -470 c 0,13,14
 472 -470 472 -470 472 -114 c 2,15,-1
 472 1334 l 1,16,-1
 26 1334 l 1,0,-1
EndSplineSet
EndChar

StartChar: uni01B1
Encoding: 433 433 371
Width: 1496
GlyphClass: 2
Flags: W
LayerCount: 2
Fore
SplineSet
102 606 m 0,0,1
 102 830 102 830 218 975 c 128,-1,2
 334 1120 334 1120 524 1194 c 1,3,-1
 524 1334 l 1,4,-1
 118 1334 l 1,5,-1
 118 1470 l 1,6,-1
 648 1470 l 1,7,-1
 648 1104 l 1,8,9
 460 1050 460 1050 362 917 c 128,-1,10
 264 784 264 784 264 606 c 0,11,12
 264 388 264 388 397 245 c 128,-1,13
 530 102 530 102 748 102 c 0,14,15
 964 102 964 102 1097 245 c 128,-1,16
 1230 388 1230 388 1230 606 c 0,17,18
 1230 782 1230 782 1135 916 c 128,-1,19
 1040 1050 1040 1050 850 1104 c 1,20,-1
 850 1470 l 1,21,-1
 1378 1470 l 1,22,-1
 1378 1334 l 1,23,-1
 972 1334 l 1,24,-1
 972 1194 l 1,25,26
 1162 1124 1162 1124 1278 978 c 128,-1,27
 1394 832 1394 832 1394 606 c 0,28,29
 1394 332 1394 332 1222 148 c 128,-1,30
 1050 -36 1050 -36 748 -36 c 0,31,32
 448 -36 448 -36 275 148 c 128,-1,33
 102 332 102 332 102 606 c 0,0,1
EndSplineSet
EndChar

StartChar: uni01B2
Encoding: 434 434 372
Width: 1444
GlyphClass: 2
Flags: W
LayerCount: 2
Fore
SplineSet
204 488 m 2,0,-1
 204 1470 l 1,1,-1
 362 1470 l 1,2,-1
 362 498 l 2,3,4
 362 280 362 280 447 189 c 128,-1,5
 532 98 532 98 698 98 c 0,6,7
 904 98 904 98 1040 302 c 128,-1,8
 1176 506 1176 506 1176 828 c 0,9,10
 1176 1088 1176 1088 1101 1230 c 128,-1,11
 1026 1372 1026 1372 896 1372 c 0,12,13
 836 1372 836 1372 766 1354 c 1,14,-1
 766 1492 l 1,15,16
 862 1506 862 1506 920 1506 c 0,17,18
 1110 1506 1110 1506 1223 1337 c 128,-1,19
 1336 1168 1336 1168 1336 832 c 0,20,21
 1336 462 1336 462 1164 213 c 128,-1,22
 992 -36 992 -36 698 -36 c 0,23,24
 448 -36 448 -36 326 90 c 128,-1,25
 204 216 204 216 204 488 c 2,0,-1
EndSplineSet
EndChar

StartChar: uni01B3
Encoding: 435 435 373
Width: 1184
GlyphClass: 2
Flags: W
LayerCount: 2
Fore
SplineSet
-8 1470 m 1,0,-1
 176 1470 l 1,1,-1
 452 982 l 2,2,3
 548 820 548 820 588 742 c 1,4,-1
 594 742 l 1,5,6
 616 788 616 788 730 982 c 2,7,-1
 930 1338 l 2,8,9
 1022 1506 1022 1506 1182 1506 c 0,10,11
 1218 1506 1218 1506 1278 1500 c 1,12,-1
 1278 1368 l 1,13,14
 1242 1374 1242 1374 1198 1374 c 0,15,16
 1130 1374 1130 1374 1064 1260 c 2,17,-1
 670 604 l 1,18,-1
 670 0 l 1,19,-1
 512 0 l 1,20,-1
 512 604 l 1,21,-1
 -8 1470 l 1,0,-1
EndSplineSet
EndChar

StartChar: uni01B4
Encoding: 436 436 374
Width: 988
GlyphClass: 2
Flags: W
LayerCount: 2
Fore
SplineSet
16 1056 m 1,0,-1
 192 1056 l 1,1,-1
 410 438 l 2,2,3
 438 362 438 362 496 170 c 1,4,-1
 504 170 l 1,5,6
 518 212 518 212 592 438 c 2,7,-1
 758 930 l 2,8,9
 810 1084 810 1084 994 1084 c 0,10,11
 1024 1084 1024 1084 1098 1074 c 1,12,-1
 1098 940 l 1,13,14
 1054 950 1054 950 1020 950 c 0,15,16
 930 950 930 950 902 868 c 2,17,-1
 526 -158 l 2,18,19
 466 -322 466 -322 388 -392 c 128,-1,20
 310 -462 310 -462 200 -462 c 2,21,-1
 134 -462 l 1,22,-1
 134 -336 l 1,23,-1
 172 -336 l 2,24,25
 252 -336 252 -336 307 -281 c 128,-1,26
 362 -226 362 -226 400 -94 c 2,27,-1
 428 -14 l 1,28,-1
 16 1056 l 1,0,-1
EndSplineSet
EndChar

StartChar: uni01B5
Encoding: 437 437 375
Width: 1218
GlyphClass: 2
Flags: W
LayerCount: 2
Fore
SplineSet
210 666 m 1,0,-1
 210 788 l 1,1,-1
 548 788 l 1,2,-1
 920 1336 l 1,3,-1
 156 1336 l 1,4,-1
 156 1470 l 1,5,-1
 1110 1470 l 1,6,-1
 1110 1352 l 1,7,-1
 728 788 l 1,8,-1
 994 788 l 1,9,-1
 994 666 l 1,10,-1
 642 666 l 1,11,-1
 280 134 l 1,12,-1
 1132 134 l 1,13,-1
 1132 0 l 1,14,-1
 90 0 l 1,15,-1
 90 116 l 1,16,-1
 464 666 l 1,17,-1
 210 666 l 1,0,-1
EndSplineSet
EndChar

StartChar: uni01B6
Encoding: 438 438 376
Width: 954
GlyphClass: 2
Flags: W
LayerCount: 2
Fore
SplineSet
62 0 m 1,0,-1
 62 102 l 1,1,-1
 344 476 l 1,2,-1
 140 476 l 1,3,-1
 140 600 l 1,4,-1
 434 600 l 1,5,-1
 680 928 l 1,6,-1
 116 928 l 1,7,-1
 116 1056 l 1,8,-1
 874 1056 l 1,9,-1
 874 960 l 1,10,-1
 606 600 l 1,11,-1
 808 600 l 1,12,-1
 808 476 l 1,13,-1
 514 476 l 1,14,-1
 256 128 l 1,15,-1
 892 128 l 1,16,-1
 892 0 l 1,17,-1
 62 0 l 1,0,-1
EndSplineSet
EndChar

StartChar: uni01B7
Encoding: 439 439 377
Width: 1378
GlyphClass: 2
Flags: W
LayerCount: 2
Fore
SplineSet
102 -102 m 1,0,-1
 236 -50 l 1,1,2
 284 -164 284 -164 391 -241 c 128,-1,3
 498 -318 498 -318 644 -318 c 0,4,5
 860 -318 860 -318 983 -187 c 128,-1,6
 1106 -56 1106 -56 1106 160 c 0,7,8
 1106 370 1106 370 970 492 c 128,-1,9
 834 614 834 614 568 614 c 2,10,-1
 418 614 l 1,11,-1
 418 742 l 1,12,-1
 938 1334 l 1,13,-1
 154 1334 l 1,14,-1
 154 1470 l 1,15,-1
 1174 1470 l 1,16,-1
 1174 1382 l 1,17,-1
 608 742 l 1,18,-1
 650 742 l 1,19,20
 940 724 940 724 1104 572 c 128,-1,21
 1268 420 1268 420 1268 162 c 0,22,23
 1268 -116 1268 -116 1095 -283 c 128,-1,24
 922 -450 922 -450 646 -450 c 0,25,26
 444 -450 444 -450 304 -350 c 128,-1,27
 164 -250 164 -250 102 -102 c 1,0,-1
EndSplineSet
EndChar

StartChar: uni01B8
Encoding: 440 440 378
Width: 1378
GlyphClass: 2
Flags: W
LayerCount: 2
Fore
SplineSet
110 162 m 0,0,1
 110 418 110 418 285 580 c 128,-1,2
 460 742 460 742 728 742 c 2,3,-1
 770 742 l 1,4,-1
 206 1382 l 1,5,-1
 206 1470 l 1,6,-1
 1224 1470 l 1,7,-1
 1224 1334 l 1,8,-1
 440 1334 l 1,9,-1
 960 742 l 1,10,-1
 960 614 l 1,11,-1
 812 614 l 2,12,13
 546 614 546 614 408 491 c 128,-1,14
 270 368 270 368 270 160 c 0,15,16
 270 -56 270 -56 394 -187 c 128,-1,17
 518 -318 518 -318 734 -318 c 0,18,19
 880 -318 880 -318 987 -241 c 128,-1,20
 1094 -164 1094 -164 1142 -50 c 1,21,-1
 1276 -102 l 1,22,23
 1212 -250 1212 -250 1073 -350 c 128,-1,24
 934 -450 934 -450 732 -450 c 0,25,26
 456 -450 456 -450 283 -283 c 128,-1,27
 110 -116 110 -116 110 162 c 0,0,1
EndSplineSet
EndChar

StartChar: uni01B9
Encoding: 441 441 379
Width: 1098
GlyphClass: 2
Flags: W
LayerCount: 2
Fore
SplineSet
96 8 m 0,0,1
 96 210 96 210 230 339 c 128,-1,2
 364 468 364 468 570 468 c 2,3,-1
 624 468 l 1,4,-1
 154 960 l 1,5,-1
 154 1056 l 1,6,-1
 958 1056 l 1,7,-1
 958 928 l 1,8,-1
 370 928 l 1,9,-1
 812 458 l 1,10,-1
 812 354 l 1,11,-1
 646 354 l 2,12,13
 456 354 456 354 354 260 c 128,-1,14
 252 166 252 166 252 8 c 0,15,16
 252 -144 252 -144 338 -243 c 128,-1,17
 424 -342 424 -342 574 -342 c 0,18,19
 784 -342 784 -342 884 -130 c 1,20,-1
 1014 -168 l 1,21,22
 962 -304 962 -304 848 -387 c 128,-1,23
 734 -470 734 -470 570 -470 c 0,24,25
 358 -470 358 -470 227 -336 c 128,-1,26
 96 -202 96 -202 96 8 c 0,0,1
EndSplineSet
EndChar

StartChar: uni01BA
Encoding: 442 442 380
Width: 904
GlyphClass: 2
Flags: W
LayerCount: 2
Fore
SplineSet
92 -140 m 0,0,1
 92 -68 92 -68 147 -8 c 128,-1,2
 202 52 202 52 280 94 c 128,-1,3
 358 136 358 136 435 176 c 128,-1,4
 512 216 512 216 567 266 c 128,-1,5
 622 316 622 316 622 370 c 0,6,7
 622 430 622 430 548 467 c 128,-1,8
 474 504 474 504 330 504 c 2,9,-1
 260 504 l 1,10,-1
 260 590 l 1,11,-1
 610 928 l 1,12,-1
 98 928 l 1,13,-1
 98 1056 l 1,14,-1
 804 1056 l 1,15,-1
 804 956 l 1,16,-1
 426 594 l 1,17,-1
 470 592 l 2,18,19
 614 588 614 588 695 532 c 128,-1,20
 776 476 776 476 776 376 c 0,21,22
 776 298 776 298 722 233 c 128,-1,23
 668 168 668 168 590 125 c 128,-1,24
 512 82 512 82 434 43 c 128,-1,25
 356 4 356 4 302 -39 c 128,-1,26
 248 -82 248 -82 248 -130 c 0,27,28
 248 -252 248 -252 424 -252 c 0,29,30
 502 -252 502 -252 620 -232 c 1,31,-1
 620 -360 l 1,32,33
 498 -378 498 -378 404 -378 c 0,34,35
 262 -378 262 -378 177 -317 c 128,-1,36
 92 -256 92 -256 92 -140 c 0,0,1
EndSplineSet
EndChar

StartChar: uni01BB
Encoding: 443 443 381
Width: 1106
GlyphClass: 2
Flags: W
LayerCount: 2
Fore
SplineSet
222 654 m 1,0,-1
 222 778 l 1,1,-1
 662 778 l 1,2,3
 812 936 812 936 812 1102 c 0,4,5
 812 1236 812 1236 737 1307 c 128,-1,6
 662 1378 662 1378 542 1378 c 0,7,8
 316 1378 316 1378 236 1102 c 1,9,-1
 102 1138 l 1,10,11
 142 1304 142 1304 255 1405 c 128,-1,12
 368 1506 368 1506 548 1506 c 0,13,14
 736 1506 736 1506 855 1397 c 128,-1,15
 974 1288 974 1288 974 1098 c 0,16,17
 974 934 974 934 846 778 c 1,18,-1
 1036 778 l 1,19,-1
 1036 654 l 1,20,-1
 740 654 l 1,21,22
 716 630 716 630 652 569 c 128,-1,23
 588 508 588 508 567 486 c 128,-1,24
 546 464 546 464 499 416 c 128,-1,25
 452 368 452 368 431 342 c 128,-1,26
 410 316 410 316 380 276 c 128,-1,27
 350 236 350 236 332 201 c 128,-1,28
 314 166 314 166 300 130 c 1,29,-1
 970 130 l 1,30,-1
 970 0 l 1,31,-1
 112 0 l 1,32,33
 112 146 112 146 220 296 c 128,-1,34
 328 446 328 446 538 654 c 1,35,-1
 222 654 l 1,0,-1
EndSplineSet
EndChar

StartChar: uni01BC
Encoding: 444 444 382
Width: 1118
GlyphClass: 2
Flags: W
LayerCount: 2
Fore
SplineSet
96 236 m 1,0,-1
 224 284 l 1,1,2
 312 94 312 94 530 94 c 0,3,4
 676 94 676 94 759 185 c 128,-1,5
 842 276 842 276 842 428 c 0,6,7
 842 568 842 568 741 668 c 128,-1,8
 640 768 640 768 436 768 c 0,9,10
 326 768 326 768 218 746 c 1,11,-1
 288 1336 l 1,12,-1
 186 1336 l 1,13,-1
 186 1470 l 1,14,-1
 928 1470 l 1,15,-1
 928 1334 l 1,16,-1
 434 1334 l 1,17,-1
 384 892 l 1,18,19
 418 896 418 896 494 896 c 0,20,21
 728 896 728 896 866 764 c 128,-1,22
 1004 632 1004 632 1004 430 c 0,23,24
 1004 226 1004 226 881 95 c 128,-1,25
 758 -36 758 -36 536 -36 c 0,26,27
 368 -36 368 -36 258 41 c 128,-1,28
 148 118 148 118 96 236 c 1,0,-1
EndSplineSet
EndChar

StartChar: uni01BD
Encoding: 445 445 383
Width: 926
GlyphClass: 2
Flags: W
LayerCount: 2
Fore
SplineSet
92 174 m 1,0,-1
 212 232 l 1,1,2
 246 168 246 168 306 130 c 128,-1,3
 366 92 366 92 432 92 c 0,4,5
 542 92 542 92 601 151 c 128,-1,6
 660 210 660 210 660 304 c 0,7,8
 660 404 660 404 579 473 c 128,-1,9
 498 542 498 542 368 542 c 0,10,11
 288 542 288 542 196 528 c 1,12,-1
 258 928 l 1,13,-1
 170 928 l 1,14,-1
 170 1056 l 1,15,-1
 754 1056 l 1,16,-1
 754 928 l 1,17,-1
 388 928 l 1,18,-1
 348 670 l 1,19,-1
 400 670 l 2,20,21
 586 670 586 670 699 568 c 128,-1,22
 812 466 812 466 812 310 c 0,23,24
 812 160 812 160 716 62 c 128,-1,25
 620 -36 620 -36 432 -36 c 0,26,27
 206 -36 206 -36 92 174 c 1,0,-1
EndSplineSet
EndChar

StartChar: uni01BE
Encoding: 446 446 384
Width: 866
GlyphClass: 2
Flags: W
LayerCount: 2
Fore
SplineSet
68 928 m 1,0,-1
 68 1056 l 1,1,-1
 222 1056 l 1,2,-1
 222 1384 l 1,3,-1
 372 1384 l 1,4,-1
 372 1056 l 1,5,-1
 634 1056 l 1,6,-1
 634 928 l 1,7,-1
 372 928 l 1,8,-1
 372 794 l 2,9,10
 372 724 372 724 413 668 c 128,-1,11
 454 612 454 612 511 573 c 128,-1,12
 568 534 568 534 625 494 c 128,-1,13
 682 454 682 454 722 394 c 128,-1,14
 762 334 762 334 762 256 c 0,15,16
 762 128 762 128 677 46 c 128,-1,17
 592 -36 592 -36 420 -36 c 0,18,19
 192 -36 192 -36 78 164 c 1,20,-1
 186 228 l 1,21,22
 284 92 284 92 414 92 c 0,23,24
 510 92 510 92 560 134 c 128,-1,25
 610 176 610 176 610 252 c 0,26,27
 610 302 610 302 570 346 c 128,-1,28
 530 390 530 390 473 427 c 128,-1,29
 416 464 416 464 359 507 c 128,-1,30
 302 550 302 550 262 619 c 128,-1,31
 222 688 222 688 222 778 c 2,32,-1
 222 928 l 1,33,-1
 68 928 l 1,0,-1
EndSplineSet
EndChar

StartChar: uni01BF
Encoding: 447 447 385
Width: 1154
GlyphClass: 2
Flags: W
LayerCount: 2
Fore
SplineSet
168 -462 m 1,0,-1
 168 1056 l 1,1,-1
 320 1056 l 1,2,-1
 320 968 l 1,3,4
 472 1092 472 1092 642 1092 c 0,5,6
 840 1092 840 1092 954 975 c 128,-1,7
 1068 858 1068 858 1068 662 c 0,8,9
 1068 104 1068 104 320 2 c 1,10,-1
 320 -462 l 1,11,-1
 168 -462 l 1,0,-1
320 126 m 1,12,13
 598 164 598 164 757 294 c 128,-1,14
 916 424 916 424 916 644 c 0,15,16
 916 802 916 802 834 883 c 128,-1,17
 752 964 752 964 622 964 c 0,18,19
 534 964 534 964 452 920 c 128,-1,20
 370 876 370 876 320 818 c 1,21,-1
 320 126 l 1,12,13
EndSplineSet
EndChar

StartChar: uni01C0
Encoding: 448 448 386
Width: 464
GlyphClass: 2
Flags: W
LayerCount: 2
Fore
SplineSet
162 -428 m 1,0,-1
 162 1636 l 1,1,-1
 302 1636 l 1,2,-1
 302 -428 l 1,3,-1
 162 -428 l 1,0,-1
EndSplineSet
EndChar

StartChar: uni01C1
Encoding: 449 449 387
Width: 796
GlyphClass: 2
Flags: W
LayerCount: 2
Fore
SplineSet
162 -428 m 1,0,-1
 162 1636 l 1,1,-1
 302 1636 l 1,2,-1
 302 -428 l 1,3,-1
 162 -428 l 1,0,-1
496 -428 m 1,4,-1
 496 1636 l 1,5,-1
 636 1636 l 1,6,-1
 636 -428 l 1,7,-1
 496 -428 l 1,4,-1
EndSplineSet
EndChar

StartChar: uni01C2
Encoding: 450 450 388
Width: 628
GlyphClass: 2
Flags: W
LayerCount: 2
Fore
SplineSet
40 844 m 1,0,-1
 40 952 l 1,1,-1
 248 952 l 1,2,-1
 248 1636 l 1,3,-1
 386 1636 l 1,4,-1
 386 952 l 1,5,-1
 588 952 l 1,6,-1
 588 844 l 1,7,-1
 386 844 l 1,8,-1
 386 518 l 1,9,-1
 588 518 l 1,10,-1
 588 410 l 1,11,-1
 386 410 l 1,12,-1
 386 -428 l 1,13,-1
 248 -428 l 1,14,-1
 248 410 l 1,15,-1
 40 410 l 1,16,-1
 40 518 l 1,17,-1
 248 518 l 1,18,-1
 248 844 l 1,19,-1
 40 844 l 1,0,-1
EndSplineSet
EndChar

StartChar: uni01DD
Encoding: 477 477 415
Width: 1108
GlyphClass: 2
Flags: W
LayerCount: 2
Fore
SplineSet
82 498 m 0,0,1
 82 552 82 552 84 578 c 1,2,-1
 870 578 l 1,3,4
 870 734 870 734 781 849 c 128,-1,5
 692 964 692 964 536 964 c 0,6,7
 430 964 430 964 352 914 c 128,-1,8
 274 864 274 864 236 788 c 1,9,-1
 108 826 l 1,10,11
 158 940 158 940 264 1016 c 128,-1,12
 370 1092 370 1092 538 1092 c 0,13,14
 764 1092 764 1092 893 933 c 128,-1,15
 1022 774 1022 774 1022 520 c 0,16,17
 1022 270 1022 270 889 117 c 128,-1,18
 756 -36 756 -36 546 -36 c 0,19,20
 334 -36 334 -36 208 113 c 128,-1,21
 82 262 82 262 82 498 c 0,0,1
236 462 m 1,22,23
 236 306 236 306 319 199 c 128,-1,24
 402 92 402 92 546 92 c 0,25,26
 684 92 684 92 772 199 c 128,-1,27
 860 306 860 306 870 462 c 1,28,-1
 236 462 l 1,22,23
EndSplineSet
EndChar

StartChar: uni01E4
Encoding: 484 484 422
Width: 1442
GlyphClass: 2
Flags: W
LayerCount: 2
Fore
SplineSet
102 734 m 0,0,1
 102 1072 102 1072 271 1289 c 128,-1,2
 440 1506 440 1506 744 1506 c 0,3,4
 928 1506 928 1506 1052 1410 c 128,-1,5
 1176 1314 1176 1314 1234 1194 c 1,6,-1
 1100 1146 l 1,7,8
 1068 1194 1068 1194 1045 1222 c 128,-1,9
 1022 1250 1022 1250 978 1290 c 128,-1,10
 934 1330 934 1330 875 1351 c 128,-1,11
 816 1372 816 1372 744 1372 c 0,12,13
 518 1372 518 1372 390 1197 c 128,-1,14
 262 1022 262 1022 262 734 c 0,15,16
 262 442 262 442 390 271 c 128,-1,17
 518 100 518 100 734 100 c 0,18,19
 872 100 872 100 969 171 c 128,-1,20
 1066 242 1066 242 1106 364 c 1,21,-1
 702 364 l 1,22,-1
 702 472 l 1,23,-1
 1130 472 l 1,24,25
 1136 518 1136 518 1136 556 c 2,26,-1
 1136 660 l 1,27,-1
 718 660 l 1,28,-1
 718 792 l 1,29,-1
 1290 792 l 1,30,-1
 1290 472 l 1,31,-1
 1426 472 l 1,32,-1
 1426 364 l 1,33,-1
 1290 364 l 1,34,-1
 1290 0 l 1,35,-1
 1174 0 l 1,36,-1
 1162 216 l 1,37,38
 1110 104 1110 104 1003 34 c 128,-1,39
 896 -36 896 -36 734 -36 c 0,40,41
 450 -36 450 -36 276 171 c 128,-1,42
 102 378 102 378 102 734 c 0,0,1
EndSplineSet
EndChar

StartChar: uni01E5
Encoding: 485 485 423
Width: 1154
GlyphClass: 2
Flags: W
LayerCount: 2
Fore
SplineSet
86 554 m 0,0,1
 86 788 86 788 207 940 c 128,-1,2
 328 1092 328 1092 522 1092 c 0,3,4
 644 1092 644 1092 722 1028 c 128,-1,5
 800 964 800 964 832 884 c 1,6,-1
 832 1056 l 1,7,-1
 982 1056 l 1,8,-1
 982 144 l 2,9,10
 982 12 982 12 968 -70 c 1,11,-1
 1118 -70 l 1,12,-1
 1118 -170 l 1,13,-1
 946 -170 l 1,14,15
 900 -318 900 -318 802 -394 c 128,-1,16
 704 -470 704 -470 534 -470 c 0,17,18
 282 -470 282 -470 140 -276 c 1,19,-1
 246 -208 l 1,20,21
 362 -346 362 -346 538 -346 c 0,22,23
 718 -346 718 -346 788 -170 c 1,24,-1
 410 -170 l 1,25,-1
 410 -70 l 1,26,-1
 818 -70 l 1,27,28
 832 -2 832 -2 832 112 c 2,29,-1
 832 252 l 1,30,31
 792 162 792 162 712 106 c 128,-1,32
 632 50 632 50 520 50 c 0,33,34
 328 50 328 50 207 186 c 128,-1,35
 86 322 86 322 86 554 c 0,0,1
240 554 m 0,36,37
 240 374 240 374 324 274 c 128,-1,38
 408 174 408 174 532 174 c 0,39,40
 664 174 664 174 747 281 c 128,-1,41
 830 388 830 388 830 574 c 0,42,43
 830 750 830 750 748 857 c 128,-1,44
 666 964 666 964 540 964 c 0,45,46
 404 964 404 964 322 847 c 128,-1,47
 240 730 240 730 240 554 c 0,36,37
EndSplineSet
EndChar

StartChar: uni01EF
Encoding: 495 495 433
Width: 1098
GlyphClass: 2
Flags: W
LayerCount: 2
Fore
SplineSet
148 1576 m 1,0,-1
 302 1576 l 1,1,-1
 526 1344 l 1,2,-1
 752 1576 l 1,3,-1
 906 1576 l 1,4,-1
 592 1258 l 1,5,-1
 458 1258 l 1,6,-1
 148 1576 l 1,0,-1
82 -168 m 1,7,-1
 214 -130 l 1,8,9
 314 -342 314 -342 524 -342 c 0,10,11
 674 -342 674 -342 760 -242 c 128,-1,12
 846 -142 846 -142 846 18 c 0,13,14
 846 168 846 168 743 261 c 128,-1,15
 640 354 640 354 452 354 c 2,16,-1
 284 354 l 1,17,-1
 284 458 l 1,18,-1
 726 928 l 1,19,-1
 140 928 l 1,20,-1
 140 1056 l 1,21,-1
 944 1056 l 1,22,-1
 944 960 l 1,23,-1
 472 468 l 1,24,-1
 568 464 l 1,25,26
 756 440 756 440 878 320 c 128,-1,27
 1000 200 1000 200 1000 18 c 0,28,29
 1000 -200 1000 -200 871 -335 c 128,-1,30
 742 -470 742 -470 528 -470 c 0,31,32
 364 -470 364 -470 250 -387 c 128,-1,33
 136 -304 136 -304 82 -168 c 1,7,-1
EndSplineSet
EndChar

StartChar: uni01F6
Encoding: 502 502 440
Width: 2038
GlyphClass: 2
Flags: W
LayerCount: 2
Fore
SplineSet
204 0 m 1,0,-1
 204 1470 l 1,1,-1
 362 1470 l 1,2,-1
 362 822 l 1,3,-1
 1052 822 l 1,4,-1
 1052 1470 l 1,5,-1
 1210 1470 l 1,6,-1
 1210 382 l 2,7,8
 1210 234 1210 234 1286 163 c 128,-1,9
 1362 92 1362 92 1480 92 c 0,10,11
 1590 92 1590 92 1663 167 c 128,-1,12
 1736 242 1736 242 1736 368 c 2,13,-1
 1736 1056 l 1,14,-1
 1892 1056 l 1,15,-1
 1892 352 l 2,16,17
 1892 164 1892 164 1773 64 c 128,-1,18
 1654 -36 1654 -36 1480 -36 c 0,19,20
 1298 -36 1298 -36 1175 58 c 128,-1,21
 1052 152 1052 152 1052 352 c 2,22,-1
 1052 690 l 1,23,-1
 362 690 l 1,24,-1
 362 0 l 1,25,-1
 204 0 l 1,0,-1
EndSplineSet
EndChar

StartChar: uni01F7
Encoding: 503 503 441
Width: 1292
GlyphClass: 2
Flags: W
LayerCount: 2
Fore
SplineSet
204 -442 m 1,0,-1
 204 1470 l 1,1,-1
 362 1470 l 1,2,-1
 362 1310 l 1,3,4
 558 1506 558 1506 772 1506 c 0,5,6
 980 1506 980 1506 1089 1368 c 128,-1,7
 1198 1230 1198 1230 1198 990 c 0,8,9
 1198 838 1198 838 1140 698 c 128,-1,10
 1082 558 1082 558 997 456 c 128,-1,11
 912 354 912 354 793 261 c 128,-1,12
 674 168 674 168 573 111 c 128,-1,13
 472 54 472 54 362 4 c 1,14,-1
 362 -442 l 1,15,-1
 204 -442 l 1,0,-1
362 152 m 1,16,17
 448 194 448 194 527 243 c 128,-1,18
 606 292 606 292 703 372 c 128,-1,19
 800 452 800 452 871 538 c 128,-1,20
 942 624 942 624 990 741 c 128,-1,21
 1038 858 1038 858 1038 982 c 0,22,23
 1038 1160 1038 1160 962 1267 c 128,-1,24
 886 1374 886 1374 738 1374 c 0,25,26
 638 1374 638 1374 531 1305 c 128,-1,27
 424 1236 424 1236 362 1148 c 1,28,-1
 362 152 l 1,16,17
EndSplineSet
EndChar

StartChar: Aringacute
Encoding: 506 506 444
Width: 1276
GlyphClass: 2
Flags: W
LayerCount: 2
Fore
SplineSet
-8 0 m 1,0,-1
 542 1470 l 1,1,-1
 734 1470 l 1,2,-1
 1284 0 l 1,3,-1
 1110 0 l 1,4,-1
 962 424 l 1,5,-1
 314 424 l 1,6,-1
 164 0 l 1,7,-1
 -8 0 l 1,0,-1
366 1752 m 0,8,9
 366 1854 366 1854 442 1928 c 0,10,11
 496 1980 496 1980 572 1996 c 1,12,-1
 720 2232 l 1,13,-1
 918 2232 l 1,14,-1
 712 1992 l 1,15,16
 778 1976 778 1976 826 1928 c 0,17,18
 902 1854 902 1854 902 1752 c 0,19,20
 902 1648 902 1648 826 1575 c 128,-1,21
 750 1502 750 1502 634 1502 c 0,22,23
 522 1502 522 1502 444 1574 c 128,-1,24
 366 1646 366 1646 366 1752 c 0,8,9
362 550 m 1,25,-1
 914 550 l 1,26,-1
 742 1044 l 2,27,28
 726 1090 726 1090 692 1189 c 128,-1,29
 658 1288 658 1288 644 1326 c 1,30,-1
 632 1326 l 1,31,32
 550 1086 550 1086 536 1044 c 2,33,-1
 362 550 l 1,25,-1
474 1752 m 256,34,35
 474 1688 474 1688 520 1643 c 128,-1,36
 566 1598 566 1598 634 1598 c 256,37,38
 702 1598 702 1598 746 1642 c 128,-1,39
 790 1686 790 1686 790 1752 c 256,40,41
 790 1818 790 1818 747 1862 c 128,-1,42
 704 1906 704 1906 634 1906 c 256,43,44
 564 1906 564 1906 519 1861 c 128,-1,45
 474 1816 474 1816 474 1752 c 256,34,35
EndSplineSet
EndChar

StartChar: aringacute
Encoding: 507 507 445
Width: 1104
GlyphClass: 2
Flags: W
LayerCount: 2
Fore
SplineSet
82 260 m 0,0,1
 82 554 82 554 538 624 c 0,2,3
 742 658 742 658 808 680 c 1,4,-1
 808 740 l 2,5,6
 808 838 808 838 738 903 c 128,-1,7
 668 968 668 968 538 968 c 0,8,9
 444 968 444 968 356 924 c 128,-1,10
 268 880 268 880 208 804 c 1,11,-1
 110 888 l 1,12,13
 188 978 188 978 299 1035 c 128,-1,14
 410 1092 410 1092 534 1092 c 0,15,16
 958 1092 958 1092 958 678 c 2,17,-1
 958 0 l 1,18,-1
 812 0 l 1,19,-1
 812 172 l 1,20,21
 782 88 782 88 683 26 c 128,-1,22
 584 -36 584 -36 452 -36 c 0,23,24
 276 -36 276 -36 179 47 c 128,-1,25
 82 130 82 130 82 260 c 0,0,1
266 1452 m 0,26,27
 266 1554 266 1554 344 1628 c 0,28,29
 398 1680 398 1680 474 1696 c 1,30,-1
 622 1932 l 1,31,-1
 820 1932 l 1,32,-1
 612 1692 l 1,33,34
 678 1676 678 1676 728 1628 c 0,35,36
 804 1554 804 1554 804 1452 c 0,37,38
 804 1348 804 1348 728 1275 c 128,-1,39
 652 1202 652 1202 536 1202 c 0,40,41
 424 1202 424 1202 345 1274 c 128,-1,42
 266 1346 266 1346 266 1452 c 0,26,27
236 270 m 0,43,44
 236 196 236 196 299 144 c 128,-1,45
 362 92 362 92 472 92 c 0,46,47
 610 92 610 92 709 182 c 128,-1,48
 808 272 808 272 808 412 c 2,49,-1
 808 560 l 1,50,51
 722 538 722 538 534 508 c 0,52,53
 380 480 380 480 308 424 c 128,-1,54
 236 368 236 368 236 270 c 0,43,44
376 1452 m 256,55,56
 376 1388 376 1388 422 1343 c 128,-1,57
 468 1298 468 1298 536 1298 c 256,58,59
 604 1298 604 1298 648 1342 c 128,-1,60
 692 1386 692 1386 692 1452 c 256,61,62
 692 1518 692 1518 649 1562 c 128,-1,63
 606 1606 606 1606 536 1606 c 256,64,65
 466 1606 466 1606 421 1561 c 128,-1,66
 376 1516 376 1516 376 1452 c 256,55,56
EndSplineSet
EndChar

StartChar: uni021C
Encoding: 540 540 478
Width: 1148
GlyphClass: 2
Flags: W
LayerCount: 2
Fore
SplineSet
96 -282 m 1,0,1
 252 -312 252 -312 374 -312 c 0,2,3
 602 -312 602 -312 745 -191 c 128,-1,4
 888 -70 888 -70 888 138 c 0,5,6
 888 254 888 254 852 339 c 128,-1,7
 816 424 816 424 757 468 c 128,-1,8
 698 512 698 512 635 532 c 128,-1,9
 572 552 572 552 502 552 c 0,10,11
 416 552 416 552 306 508 c 1,12,-1
 306 646 l 1,13,-1
 494 692 l 2,14,15
 664 736 664 736 762 838 c 128,-1,16
 860 940 860 940 860 1078 c 0,17,18
 860 1214 860 1214 775 1292 c 128,-1,19
 690 1370 690 1370 536 1370 c 0,20,21
 332 1370 332 1370 228 1170 c 1,22,-1
 100 1226 l 1,23,24
 158 1350 158 1350 269 1428 c 128,-1,25
 380 1506 380 1506 534 1506 c 0,26,27
 776 1506 776 1506 899 1394 c 128,-1,28
 1022 1282 1022 1282 1022 1094 c 0,29,30
 1022 922 1022 922 920 802 c 128,-1,31
 818 682 818 682 690 636 c 1,32,-1
 690 634 l 1,33,34
 834 600 834 600 942 478 c 128,-1,35
 1050 356 1050 356 1050 138 c 0,36,37
 1050 -128 1050 -128 865 -289 c 128,-1,38
 680 -450 680 -450 376 -450 c 0,39,40
 240 -450 240 -450 96 -428 c 1,41,-1
 96 -282 l 1,0,1
EndSplineSet
EndChar

StartChar: uni021D
Encoding: 541 541 479
Width: 900
GlyphClass: 2
Flags: W
LayerCount: 2
Fore
SplineSet
90 -320 m 1,0,1
 194 -342 194 -342 296 -342 c 0,2,3
 456 -342 456 -342 552 -251 c 128,-1,4
 648 -160 648 -160 648 4 c 0,5,6
 648 150 648 150 569 232 c 128,-1,7
 490 314 490 314 382 314 c 0,8,9
 322 314 322 314 246 290 c 1,10,-1
 246 414 l 1,11,-1
 376 446 l 2,12,13
 496 474 496 474 564 557 c 128,-1,14
 632 640 632 640 632 742 c 0,15,16
 632 838 632 838 580 901 c 128,-1,17
 528 964 528 964 420 964 c 0,18,19
 282 964 282 964 212 820 c 1,20,-1
 94 876 l 1,21,22
 132 972 132 972 221 1032 c 128,-1,23
 310 1092 310 1092 428 1092 c 0,24,25
 600 1092 600 1092 691 993 c 128,-1,26
 782 894 782 894 782 762 c 0,27,28
 782 626 782 626 714 532 c 128,-1,29
 646 438 646 438 542 392 c 1,30,31
 644 364 644 364 722 265 c 128,-1,32
 800 166 800 166 800 8 c 0,33,34
 800 -218 800 -218 665 -344 c 128,-1,35
 530 -470 530 -470 298 -470 c 0,36,37
 200 -470 200 -470 90 -454 c 1,38,-1
 90 -320 l 1,0,1
EndSplineSet
EndChar

StartChar: uni0220
Encoding: 544 544 482
Width: 1434
GlyphClass: 2
Flags: W
LayerCount: 2
Fore
SplineSet
204 0 m 1,0,-1
 204 1470 l 1,1,-1
 356 1470 l 1,2,-1
 356 1286 l 1,3,-1
 358 1286 l 1,4,5
 392 1332 392 1332 439 1375 c 128,-1,6
 486 1418 486 1418 584 1462 c 128,-1,7
 682 1506 682 1506 794 1506 c 0,8,9
 1234 1506 1234 1506 1234 998 c 2,10,-1
 1234 -462 l 1,11,-1
 1076 -462 l 1,12,-1
 1076 980 l 2,13,14
 1076 1180 1076 1180 1001 1276 c 128,-1,15
 926 1372 926 1372 760 1372 c 0,16,17
 616 1372 616 1372 489 1249 c 128,-1,18
 362 1126 362 1126 362 988 c 2,19,-1
 362 0 l 1,20,-1
 204 0 l 1,0,-1
EndSplineSet
EndChar

StartChar: uni0221
Encoding: 545 545 483
Width: 1516
GlyphClass: 2
Flags: W
LayerCount: 2
Fore
SplineSet
1030 -218 m 1,0,1
 1048 -272 1048 -272 1101 -308 c 128,-1,2
 1154 -344 1154 -344 1222 -344 c 0,3,4
 1282 -344 1282 -344 1316 -314 c 128,-1,5
 1350 -284 1350 -284 1350 -236 c 0,6,7
 1350 -182 1350 -182 1314 -148 c 128,-1,8
 1278 -114 1278 -114 1220 -114 c 0,9,10
 1110 -114 1110 -114 1030 -218 c 1,0,1
86 528 m 0,11,12
 86 788 86 788 212 940 c 128,-1,13
 338 1092 338 1092 530 1092 c 0,14,15
 646 1092 646 1092 730 1026 c 128,-1,16
 814 960 814 960 850 872 c 1,17,-1
 850 1524 l 1,18,-1
 1000 1524 l 1,19,-1
 1000 52 l 2,20,21
 1000 -54 1000 -54 1006 -76 c 1,22,23
 1038 -42 1038 -42 1098 -14 c 128,-1,24
 1158 14 1158 14 1224 14 c 0,25,26
 1358 14 1358 14 1430 -57 c 128,-1,27
 1502 -128 1502 -128 1502 -230 c 0,28,29
 1502 -336 1502 -336 1425 -403 c 128,-1,30
 1348 -470 1348 -470 1224 -470 c 0,31,32
 1134 -470 1134 -470 1066 -428 c 128,-1,33
 998 -386 998 -386 962 -332 c 1,34,35
 926 -390 926 -390 898 -460 c 1,36,-1
 774 -422 l 1,37,38
 820 -290 820 -290 878 -212 c 1,39,40
 854 -156 854 -156 854 16 c 2,41,-1
 854 190 l 1,42,43
 816 96 816 96 731 30 c 128,-1,44
 646 -36 646 -36 528 -36 c 0,45,46
 448 -36 448 -36 373 -4 c 128,-1,47
 298 28 298 28 232 92 c 128,-1,48
 166 156 166 156 126 268 c 128,-1,49
 86 380 86 380 86 528 c 0,11,12
240 528 m 0,50,51
 240 330 240 330 326 211 c 128,-1,52
 412 92 412 92 550 92 c 0,53,54
 678 92 678 92 766 210 c 128,-1,55
 854 328 854 328 854 528 c 0,56,57
 854 726 854 726 765 845 c 128,-1,58
 676 964 676 964 548 964 c 0,59,60
 408 964 408 964 324 844 c 128,-1,61
 240 724 240 724 240 528 c 0,50,51
EndSplineSet
EndChar

StartChar: uni0222
Encoding: 546 546 484
Width: 1362
GlyphClass: 2
Flags: W
LayerCount: 2
Fore
SplineSet
88 472 m 0,0,1
 88 628 88 628 179 752 c 128,-1,2
 270 876 270 876 418 934 c 1,3,4
 298 978 298 978 223 1074 c 128,-1,5
 148 1170 148 1170 148 1318 c 0,6,7
 148 1412 148 1412 166 1470 c 1,8,-1
 318 1470 l 1,9,10
 308 1372 308 1372 308 1328 c 0,11,12
 308 1192 308 1192 410 1093 c 128,-1,13
 512 994 512 994 682 994 c 0,14,15
 842 994 842 994 948 1090 c 128,-1,16
 1054 1186 1054 1186 1054 1328 c 0,17,18
 1054 1382 1054 1382 1042 1470 c 1,19,-1
 1196 1470 l 1,20,21
 1214 1414 1214 1414 1214 1318 c 0,22,23
 1214 1166 1214 1166 1135 1071 c 128,-1,24
 1056 976 1056 976 938 934 c 1,25,26
 1088 882 1088 882 1181 755 c 128,-1,27
 1274 628 1274 628 1274 472 c 0,28,29
 1274 268 1274 268 1122 116 c 128,-1,30
 970 -36 970 -36 682 -36 c 256,31,32
 394 -36 394 -36 241 115 c 128,-1,33
 88 266 88 266 88 472 c 0,0,1
252 472 m 0,34,35
 252 306 252 306 372 202 c 128,-1,36
 492 98 492 98 682 98 c 0,37,38
 866 98 866 98 988 202 c 128,-1,39
 1110 306 1110 306 1110 472 c 0,40,41
 1110 634 1110 634 988 746 c 128,-1,42
 866 858 866 858 682 858 c 0,43,44
 502 858 502 858 377 750 c 128,-1,45
 252 642 252 642 252 472 c 0,34,35
EndSplineSet
EndChar

StartChar: uni0223
Encoding: 547 547 485
Width: 1112
GlyphClass: 2
Flags: W
LayerCount: 2
Fore
SplineSet
86 482 m 0,0,1
 86 664 86 664 171 793 c 128,-1,2
 256 922 256 922 376 964 c 1,3,4
 266 1000 266 1000 200 1096 c 128,-1,5
 134 1192 134 1192 134 1346 c 0,6,7
 134 1440 134 1440 152 1506 c 1,8,-1
 298 1506 l 1,9,10
 286 1408 286 1408 286 1356 c 0,11,12
 286 1214 286 1214 355 1117 c 128,-1,13
 424 1020 424 1020 556 1020 c 0,14,15
 680 1020 680 1020 753 1115 c 128,-1,16
 826 1210 826 1210 826 1356 c 0,17,18
 826 1406 826 1406 812 1506 c 1,19,-1
 960 1506 l 1,20,21
 978 1446 978 1446 978 1346 c 0,22,23
 978 1198 978 1198 911 1098 c 128,-1,24
 844 998 844 998 734 964 c 1,25,26
 858 926 858 926 942 795 c 128,-1,27
 1026 664 1026 664 1026 482 c 0,28,29
 1026 268 1026 268 906 116 c 128,-1,30
 786 -36 786 -36 556 -36 c 0,31,32
 328 -36 328 -36 207 114 c 128,-1,33
 86 264 86 264 86 482 c 0,0,1
240 482 m 0,34,35
 240 312 240 312 326 203 c 128,-1,36
 412 94 412 94 556 94 c 0,37,38
 694 94 694 94 784 200 c 128,-1,39
 874 306 874 306 874 482 c 0,40,41
 874 656 874 656 782 774 c 128,-1,42
 690 892 690 892 556 892 c 0,43,44
 426 892 426 892 333 777 c 128,-1,45
 240 662 240 662 240 482 c 0,34,35
EndSplineSet
EndChar

StartChar: uni0224
Encoding: 548 548 486
Width: 1218
GlyphClass: 2
Flags: W
LayerCount: 2
Fore
SplineSet
90 0 m 1,0,-1
 90 116 l 1,1,-1
 920 1336 l 1,2,-1
 156 1336 l 1,3,-1
 156 1470 l 1,4,-1
 1110 1470 l 1,5,-1
 1110 1352 l 1,6,-1
 280 134 l 1,7,-1
 904 134 l 2,8,9
 1072 134 1072 134 1150 51 c 128,-1,10
 1228 -32 1228 -32 1228 -210 c 0,11,12
 1228 -334 1228 -334 1178 -462 c 1,13,-1
 1034 -462 l 1,14,15
 1088 -332 1088 -332 1088 -228 c 0,16,17
 1088 -120 1088 -120 1038 -60 c 128,-1,18
 988 0 988 0 860 0 c 2,19,-1
 90 0 l 1,0,-1
EndSplineSet
EndChar

StartChar: uni0225
Encoding: 549 549 487
Width: 954
GlyphClass: 2
Flags: W
LayerCount: 2
Fore
SplineSet
62 0 m 1,0,-1
 62 102 l 1,1,-1
 680 936 l 1,2,-1
 116 936 l 1,3,-1
 116 1064 l 1,4,-1
 874 1064 l 1,5,-1
 874 968 l 1,6,-1
 256 128 l 1,7,-1
 744 128 l 2,8,9
 892 128 892 128 965 47 c 128,-1,10
 1038 -34 1038 -34 1038 -204 c 0,11,12
 1038 -362 1038 -362 998 -462 c 1,13,-1
 864 -462 l 1,14,15
 902 -358 902 -358 902 -226 c 0,16,17
 902 -110 902 -110 857 -55 c 128,-1,18
 812 0 812 0 706 0 c 2,19,-1
 62 0 l 1,0,-1
EndSplineSet
EndChar

StartChar: uni0234
Encoding: 564 564 502
Width: 816
GlyphClass: 2
Flags: W
LayerCount: 2
Fore
SplineSet
352 -218 m 1,0,1
 368 -272 368 -272 422 -308 c 128,-1,2
 476 -344 476 -344 544 -344 c 0,3,4
 602 -344 602 -344 637 -314 c 128,-1,5
 672 -284 672 -284 672 -236 c 0,6,7
 672 -182 672 -182 636 -148 c 128,-1,8
 600 -114 600 -114 542 -114 c 0,9,10
 434 -114 434 -114 352 -218 c 1,0,1
94 -422 m 1,11,12
 148 -280 148 -280 198 -212 c 1,13,14
 170 -150 170 -150 170 30 c 2,15,-1
 170 1524 l 1,16,-1
 322 1524 l 1,17,-1
 322 56 l 2,18,19
 322 -52 322 -52 328 -76 c 1,20,21
 364 -40 364 -40 424 -13 c 128,-1,22
 484 14 484 14 546 14 c 0,23,24
 678 14 678 14 750 -57 c 128,-1,25
 822 -128 822 -128 822 -230 c 0,26,27
 822 -336 822 -336 746 -403 c 128,-1,28
 670 -470 670 -470 546 -470 c 0,29,30
 456 -470 456 -470 388 -428 c 128,-1,31
 320 -386 320 -386 282 -332 c 1,32,33
 242 -398 242 -398 220 -460 c 1,34,-1
 94 -422 l 1,11,12
EndSplineSet
EndChar

StartChar: uni0235
Encoding: 565 565 503
Width: 1478
GlyphClass: 2
Flags: W
LayerCount: 2
Fore
SplineSet
1008 -218 m 1,0,1
 1026 -272 1026 -272 1080 -308 c 128,-1,2
 1134 -344 1134 -344 1202 -344 c 0,3,4
 1262 -344 1262 -344 1295 -313 c 128,-1,5
 1328 -282 1328 -282 1328 -236 c 0,6,7
 1328 -186 1328 -186 1294 -150 c 128,-1,8
 1260 -114 1260 -114 1200 -114 c 0,9,10
 1092 -114 1092 -114 1008 -218 c 1,0,1
158 0 m 1,11,-1
 158 1056 l 1,12,-1
 304 1056 l 1,13,-1
 304 876 l 1,14,-1
 306 876 l 1,15,16
 328 946 328 946 418 1019 c 128,-1,17
 508 1092 508 1092 642 1092 c 0,18,19
 788 1092 788 1092 884 999 c 128,-1,20
 980 906 980 906 980 682 c 2,21,-1
 980 58 l 2,22,23
 980 -52 980 -52 986 -76 c 1,24,25
 1020 -38 1020 -38 1080 -12 c 128,-1,26
 1140 14 1140 14 1204 14 c 0,27,28
 1330 14 1330 14 1405 -56 c 128,-1,29
 1480 -126 1480 -126 1480 -230 c 0,30,31
 1480 -336 1480 -336 1403 -403 c 128,-1,32
 1326 -470 1326 -470 1204 -470 c 0,33,34
 1112 -470 1112 -470 1045 -428 c 128,-1,35
 978 -386 978 -386 940 -332 c 1,36,37
 900 -400 900 -400 878 -460 c 1,38,-1
 752 -422 l 1,39,40
 794 -298 794 -298 856 -212 c 1,41,42
 828 -152 828 -152 828 36 c 2,43,-1
 828 658 l 2,44,45
 828 964 828 964 608 964 c 0,46,47
 486 964 486 964 397 865 c 128,-1,48
 308 766 308 766 308 630 c 2,49,-1
 308 0 l 1,50,-1
 158 0 l 1,11,-1
EndSplineSet
EndChar

StartChar: uni0236
Encoding: 566 566 504
Width: 870
GlyphClass: 2
Flags: W
LayerCount: 2
Fore
SplineSet
404 -218 m 1,0,1
 422 -272 422 -272 476 -308 c 128,-1,2
 530 -344 530 -344 596 -344 c 256,3,4
 662 -344 662 -344 693 -312 c 128,-1,5
 724 -280 724 -280 724 -236 c 0,6,7
 724 -188 724 -188 690 -151 c 128,-1,8
 656 -114 656 -114 594 -114 c 0,9,10
 486 -114 486 -114 404 -218 c 1,0,1
40 928 m 1,11,-1
 40 1056 l 1,12,-1
 224 1056 l 1,13,-1
 224 1396 l 1,14,-1
 374 1396 l 1,15,-1
 374 1056 l 1,16,-1
 654 1056 l 1,17,-1
 654 928 l 1,18,-1
 374 928 l 1,19,-1
 374 52 l 2,20,21
 374 -52 374 -52 380 -76 c 1,22,23
 416 -38 416 -38 476 -12 c 128,-1,24
 536 14 536 14 598 14 c 0,25,26
 732 14 732 14 804 -57 c 128,-1,27
 876 -128 876 -128 876 -230 c 0,28,29
 876 -336 876 -336 799 -403 c 128,-1,30
 722 -470 722 -470 598 -470 c 0,31,32
 508 -470 508 -470 440 -428 c 128,-1,33
 372 -386 372 -386 336 -332 c 1,34,35
 288 -412 288 -412 272 -460 c 1,36,-1
 148 -422 l 1,37,38
 202 -270 202 -270 252 -212 c 1,39,40
 224 -150 224 -150 224 40 c 2,41,-1
 224 928 l 1,42,-1
 40 928 l 1,11,-1
EndSplineSet
EndChar

StartChar: uni0237
Encoding: 567 567 505
Width: 540
GlyphClass: 2
Flags: W
LayerCount: 2
Fore
SplineSet
-24 -334 m 1,0,-1
 22 -334 l 2,1,2
 198 -334 198 -334 198 -90 c 2,3,-1
 198 1056 l 1,4,-1
 350 1056 l 1,5,-1
 350 -98 l 2,6,7
 350 -276 350 -276 271 -369 c 128,-1,8
 192 -462 192 -462 48 -462 c 2,9,-1
 -24 -462 l 1,10,-1
 -24 -334 l 1,0,-1
EndSplineSet
EndChar

StartChar: uni0238
Encoding: 568 568 506
Width: 1850
GlyphClass: 2
Flags: W
LayerCount: 2
Fore
SplineSet
86 528 m 0,0,1
 86 790 86 790 214 941 c 128,-1,2
 342 1092 342 1092 530 1092 c 0,3,4
 646 1092 646 1092 730 1026 c 128,-1,5
 814 960 814 960 850 872 c 1,6,-1
 850 1524 l 1,7,-1
 1000 1524 l 1,8,-1
 1000 868 l 1,9,10
 1028 950 1028 950 1117 1021 c 128,-1,11
 1206 1092 1206 1092 1322 1092 c 0,12,13
 1520 1092 1520 1092 1642 941 c 128,-1,14
 1764 790 1764 790 1764 528 c 0,15,16
 1764 380 1764 380 1724 268 c 128,-1,17
 1684 156 1684 156 1618 92 c 128,-1,18
 1552 28 1552 28 1478 -4 c 128,-1,19
 1404 -36 1404 -36 1322 -36 c 0,20,21
 1206 -36 1206 -36 1120 30 c 128,-1,22
 1034 96 1034 96 998 188 c 1,23,-1
 998 0 l 1,24,-1
 854 0 l 1,25,-1
 854 190 l 1,26,27
 812 92 812 92 727 28 c 128,-1,28
 642 -36 642 -36 528 -36 c 0,29,30
 450 -36 450 -36 376 -5 c 128,-1,31
 302 26 302 26 235 89 c 128,-1,32
 168 152 168 152 127 265 c 128,-1,33
 86 378 86 378 86 528 c 0,0,1
240 528 m 256,34,35
 240 326 240 326 326 209 c 128,-1,36
 412 92 412 92 550 92 c 0,37,38
 682 92 682 92 768 212 c 128,-1,39
 854 332 854 332 854 518 c 2,40,-1
 854 534 l 2,41,42
 854 720 854 720 766 842 c 128,-1,43
 678 964 678 964 548 964 c 0,44,45
 412 964 412 964 326 847 c 128,-1,46
 240 730 240 730 240 528 c 256,34,35
998 518 m 2,47,48
 998 336 998 336 1083 214 c 128,-1,49
 1168 92 1168 92 1302 92 c 0,50,51
 1438 92 1438 92 1525 208 c 128,-1,52
 1612 324 1612 324 1612 528 c 0,53,54
 1612 728 1612 728 1526 846 c 128,-1,55
 1440 964 1440 964 1304 964 c 0,56,57
 1170 964 1170 964 1084 841 c 128,-1,58
 998 718 998 718 998 534 c 2,59,-1
 998 518 l 2,47,48
EndSplineSet
EndChar

StartChar: uni0239
Encoding: 569 569 507
Width: 1854
GlyphClass: 2
Flags: W
LayerCount: 2
Fore
SplineSet
86 528 m 0,0,1
 86 786 86 786 211 939 c 128,-1,2
 336 1092 336 1092 530 1092 c 0,3,4
 750 1092 750 1092 854 866 c 1,5,-1
 854 1056 l 1,6,-1
 1000 1056 l 1,7,-1
 1000 866 l 1,8,9
 1044 964 1044 964 1134 1028 c 128,-1,10
 1224 1092 1224 1092 1334 1092 c 0,11,12
 1526 1092 1526 1092 1647 939 c 128,-1,13
 1768 786 1768 786 1768 528 c 0,14,15
 1768 256 1768 256 1640 110 c 128,-1,16
 1512 -36 1512 -36 1332 -36 c 0,17,18
 1214 -36 1214 -36 1126 29 c 128,-1,19
 1038 94 1038 94 1000 186 c 1,20,-1
 1000 -462 l 1,21,-1
 850 -462 l 1,22,-1
 850 182 l 1,23,24
 810 90 810 90 726 27 c 128,-1,25
 642 -36 642 -36 530 -36 c 0,26,27
 350 -36 350 -36 218 110 c 128,-1,28
 86 256 86 256 86 528 c 0,0,1
240 528 m 0,29,30
 240 326 240 326 326 209 c 128,-1,31
 412 92 412 92 548 92 c 0,32,33
 682 92 682 92 767 212 c 128,-1,34
 852 332 852 332 852 528 c 2,35,-1
 852 542 l 2,36,37
 852 726 852 726 767 845 c 128,-1,38
 682 964 682 964 550 964 c 0,39,40
 402 964 402 964 321 841 c 128,-1,41
 240 718 240 718 240 528 c 0,29,30
1002 528 m 2,42,43
 1002 330 1002 330 1089 211 c 128,-1,44
 1176 92 1176 92 1312 92 c 256,45,46
 1448 92 1448 92 1532 209 c 128,-1,47
 1616 326 1616 326 1616 528 c 0,48,49
 1616 718 1616 718 1536 841 c 128,-1,50
 1456 964 1456 964 1312 964 c 0,51,52
 1186 964 1186 964 1094 845 c 128,-1,53
 1002 726 1002 726 1002 542 c 2,54,-1
 1002 528 l 2,42,43
EndSplineSet
EndChar

StartChar: uni023A
Encoding: 570 570 508
Width: 1276
GlyphClass: 2
Flags: W
LayerCount: 2
Fore
SplineSet
-8 0 m 1,0,-1
 542 1470 l 1,1,-1
 736 1470 l 1,2,-1
 852 1158 l 1,3,-1
 1092 1542 l 1,4,-1
 1218 1542 l 1,5,-1
 900 1032 l 1,6,-1
 1284 0 l 1,7,-1
 1110 0 l 1,8,-1
 962 424 l 1,9,-1
 522 424 l 1,10,-1
 146 -178 l 1,11,-1
 16 -178 l 1,12,-1
 128 0 l 1,13,-1
 -8 0 l 1,0,-1
362 550 m 1,14,-1
 472 550 l 1,15,-1
 756 1004 l 1,16,-1
 742 1044 l 2,17,18
 740 1046 740 1046 644 1326 c 1,19,-1
 634 1326 l 1,20,21
 538 1048 538 1048 536 1044 c 2,22,-1
 362 550 l 1,14,-1
600 550 m 1,23,-1
 916 550 l 1,24,-1
 802 874 l 1,25,-1
 600 550 l 1,23,-1
316 424 m 1,26,-1
 216 142 l 1,27,-1
 392 424 l 1,28,-1
 316 424 l 1,26,-1
EndSplineSet
EndChar

StartChar: uni023B
Encoding: 571 571 509
Width: 1302
GlyphClass: 2
Flags: W
LayerCount: 2
Fore
SplineSet
102 734 m 0,0,1
 102 1094 102 1094 277 1300 c 128,-1,2
 452 1506 452 1506 730 1506 c 0,3,4
 852 1506 852 1506 950 1456 c 1,5,-1
 998 1588 l 1,6,-1
 1118 1588 l 1,7,-1
 1046 1396 l 1,8,9
 1148 1312 1148 1312 1206 1184 c 1,10,-1
 1074 1136 l 1,11,12
 1030 1210 1030 1210 992 1252 c 1,13,-1
 564 134 l 1,14,15
 642 100 642 100 728 100 c 0,16,17
 860 100 860 100 958 174 c 128,-1,18
 1056 248 1056 248 1104 356 c 1,19,-1
 1246 310 l 1,20,21
 1182 168 1182 168 1052 66 c 128,-1,22
 922 -36 922 -36 730 -36 c 0,23,24
 616 -36 616 -36 514 4 c 1,25,-1
 460 -140 l 1,26,-1
 342 -140 l 1,27,-1
 414 52 l 1,28,29
 268 142 268 142 185 317 c 128,-1,30
 102 492 102 492 102 734 c 0,0,1
468 190 m 1,31,-1
 898 1326 l 1,32,33
 822 1372 822 1372 728 1372 c 0,34,35
 516 1372 516 1372 389 1198 c 128,-1,36
 262 1024 262 1024 262 734 c 0,37,38
 262 360 262 360 468 190 c 1,31,-1
EndSplineSet
EndChar

StartChar: uni023C
Encoding: 572 572 510
Width: 1006
GlyphClass: 2
Flags: W
LayerCount: 2
Fore
SplineSet
86 528 m 0,0,1
 86 774 86 774 212 933 c 128,-1,2
 338 1092 338 1092 564 1092 c 0,3,4
 646 1092 646 1092 710 1060 c 1,5,-1
 760 1200 l 1,6,-1
 870 1200 l 1,7,-1
 800 1006 l 1,8,9
 892 940 892 940 932 818 c 1,10,-1
 804 780 l 1,11,12
 776 840 776 840 754 870 c 1,13,-1
 482 102 l 1,14,15
 512 92 512 92 560 92 c 0,16,17
 656 92 656 92 724 152 c 128,-1,18
 792 212 792 212 830 290 c 1,19,-1
 960 250 l 1,20,21
 918 138 918 138 813 51 c 128,-1,22
 708 -36 708 -36 560 -36 c 0,23,24
 490 -36 490 -36 438 -22 c 1,25,-1
 400 -132 l 1,26,-1
 290 -132 l 1,27,-1
 342 16 l 1,28,29
 218 80 218 80 152 217 c 128,-1,30
 86 354 86 354 86 528 c 0,0,1
390 150 m 1,31,-1
 668 936 l 1,32,33
 624 964 624 964 560 964 c 0,34,35
 412 964 412 964 326 840 c 128,-1,36
 240 716 240 716 240 528 c 0,37,38
 240 398 240 398 280 298 c 128,-1,39
 320 198 320 198 390 150 c 1,31,-1
EndSplineSet
EndChar

StartChar: uni023D
Encoding: 573 573 511
Width: 1076
GlyphClass: 2
Flags: W
LayerCount: 2
Fore
SplineSet
30 774 m 1,0,-1
 30 896 l 1,1,-1
 204 896 l 1,2,-1
 204 1470 l 1,3,-1
 362 1470 l 1,4,-1
 362 896 l 1,5,-1
 766 896 l 1,6,-1
 766 774 l 1,7,-1
 362 774 l 1,8,-1
 362 134 l 1,9,-1
 1060 134 l 1,10,-1
 1060 0 l 1,11,-1
 204 0 l 1,12,-1
 204 774 l 1,13,-1
 30 774 l 1,0,-1
EndSplineSet
EndChar

StartChar: uni023E
Encoding: 574 574 512
Width: 1096
GlyphClass: 2
Flags: W
LayerCount: 2
Fore
SplineSet
626 1336 m 1,0,-1
 626 938 l 1,1,-1
 846 1336 l 1,2,-1
 626 1336 l 1,0,-1
24 1336 m 1,3,-1
 24 1470 l 1,4,-1
 920 1470 l 1,5,-1
 984 1588 l 1,6,-1
 1102 1588 l 1,7,-1
 1038 1470 l 1,8,-1
 1074 1470 l 1,9,-1
 1074 1336 l 1,10,-1
 964 1336 l 1,11,-1
 626 722 l 1,12,-1
 626 0 l 1,13,-1
 470 0 l 1,14,-1
 470 438 l 1,15,-1
 188 -76 l 1,16,-1
 68 -76 l 1,17,-1
 470 654 l 1,18,-1
 470 1336 l 1,19,-1
 24 1336 l 1,3,-1
EndSplineSet
EndChar

StartChar: uni023F
Encoding: 575 575 513
Width: 984
GlyphClass: 2
Flags: W
LayerCount: 2
Fore
SplineSet
70 208 m 1,0,-1
 184 274 l 1,1,2
 298 92 298 92 500 92 c 0,3,4
 622 92 622 92 692 137 c 128,-1,5
 762 182 762 182 762 262 c 0,6,7
 762 318 762 318 713 361 c 128,-1,8
 664 404 664 404 622 420 c 128,-1,9
 580 436 580 436 474 470 c 0,10,11
 448 478 448 478 434 482 c 0,12,13
 280 532 280 532 191 602 c 128,-1,14
 102 672 102 672 102 794 c 0,15,16
 102 932 102 932 212 1012 c 128,-1,17
 322 1092 322 1092 498 1092 c 0,18,19
 628 1092 628 1092 734 1026 c 128,-1,20
 840 960 840 960 892 862 c 1,21,-1
 790 794 l 1,22,23
 744 870 744 870 667 917 c 128,-1,24
 590 964 590 964 500 964 c 0,25,26
 376 964 376 964 316 918 c 128,-1,27
 256 872 256 872 256 792 c 0,28,29
 256 746 256 746 280 710 c 128,-1,30
 304 674 304 674 352 647 c 128,-1,31
 400 620 400 620 441 604 c 128,-1,32
 482 588 482 588 546 572 c 0,33,34
 620 550 620 550 678 526 c 128,-1,35
 736 502 736 502 794 466 c 128,-1,36
 852 430 852 430 883 378 c 128,-1,37
 914 326 914 326 914 262 c 0,38,39
 914 138 914 138 804 51 c 128,-1,40
 694 -36 694 -36 500 -36 c 0,41,42
 366 -36 366 -36 278 14 c 1,43,44
 332 -186 332 -186 370 -250 c 0,45,46
 438 -360 438 -360 566 -360 c 0,47,48
 634 -360 634 -360 664 -354 c 1,49,-1
 664 -460 l 1,50,51
 594 -470 594 -470 562 -470 c 0,52,53
 482 -470 482 -470 420 -441 c 128,-1,54
 358 -412 358 -412 320 -374 c 128,-1,55
 282 -336 282 -336 249 -264 c 128,-1,56
 216 -192 216 -192 201 -142 c 128,-1,57
 186 -92 186 -92 162 -4 c 0,58,59
 130 142 130 142 70 208 c 1,0,-1
EndSplineSet
EndChar

StartChar: uni0240
Encoding: 576 576 514
Width: 954
GlyphClass: 2
Flags: W
LayerCount: 2
Fore
SplineSet
62 0 m 1,0,-1
 62 102 l 1,1,-1
 680 928 l 1,2,-1
 116 928 l 1,3,-1
 116 1056 l 1,4,-1
 874 1056 l 1,5,-1
 874 960 l 1,6,-1
 236 102 l 1,7,8
 312 92 312 92 379 43 c 128,-1,9
 446 -6 446 -6 493 -69 c 128,-1,10
 540 -132 540 -132 584 -195 c 128,-1,11
 628 -258 628 -258 682 -300 c 128,-1,12
 736 -342 736 -342 796 -342 c 0,13,14
 852 -342 852 -342 894 -334 c 1,15,-1
 894 -458 l 1,16,17
 848 -470 848 -470 788 -470 c 0,18,19
 704 -470 704 -470 635 -422 c 128,-1,20
 566 -374 566 -374 515 -308 c 128,-1,21
 464 -242 464 -242 414 -173 c 128,-1,22
 364 -104 364 -104 299 -54 c 128,-1,23
 234 -4 234 -4 158 0 c 2,24,-1
 62 0 l 1,0,-1
EndSplineSet
EndChar

StartChar: uni0241
Encoding: 577 577 515
Width: 1122
GlyphClass: 2
Flags: W
LayerCount: 2
Fore
SplineSet
126 1186 m 1,0,1
 174 1334 174 1334 293 1420 c 128,-1,2
 412 1506 412 1506 566 1506 c 0,3,4
 752 1506 752 1506 865 1397 c 128,-1,5
 978 1288 978 1288 978 1106 c 0,6,7
 978 1016 978 1016 941 943 c 128,-1,8
 904 870 904 870 852 819 c 128,-1,9
 800 768 800 768 748 718 c 128,-1,10
 696 668 696 668 660 599 c 128,-1,11
 624 530 624 530 624 446 c 2,12,-1
 624 0 l 1,13,-1
 468 0 l 1,14,-1
 468 458 l 2,15,16
 468 552 468 552 504 628 c 128,-1,17
 540 704 540 704 592 756 c 128,-1,18
 644 808 644 808 695 857 c 128,-1,19
 746 906 746 906 782 970 c 128,-1,20
 818 1034 818 1034 818 1110 c 0,21,22
 818 1228 818 1228 750 1301 c 128,-1,23
 682 1374 682 1374 568 1374 c 0,24,25
 464 1374 464 1374 385 1310 c 128,-1,26
 306 1246 306 1246 264 1140 c 1,27,-1
 126 1186 l 1,0,1
EndSplineSet
EndChar

StartChar: uni0250
Encoding: 592 592 516
Width: 1104
GlyphClass: 2
Flags: W
LayerCount: 2
Fore
SplineSet
298 496 m 1,0,1
 370 516 370 516 574 548 c 0,2,3
 726 576 726 576 798 632 c 128,-1,4
 870 688 870 688 870 786 c 0,5,6
 870 862 870 862 807 913 c 128,-1,7
 744 964 744 964 634 964 c 0,8,9
 494 964 494 964 396 874 c 128,-1,10
 298 784 298 784 298 644 c 2,11,-1
 298 496 l 1,0,1
148 380 m 2,12,-1
 148 1056 l 1,13,-1
 294 1056 l 1,14,-1
 294 884 l 1,15,16
 326 968 326 968 423 1030 c 128,-1,17
 520 1092 520 1092 654 1092 c 0,18,19
 822 1092 822 1092 922 1011 c 128,-1,20
 1022 930 1022 930 1022 796 c 0,21,22
 1022 650 1022 650 912 561 c 128,-1,23
 802 472 802 472 570 434 c 0,24,25
 396 406 396 406 296 376 c 0,26,27
 296 368 296 368 297 345 c 128,-1,28
 298 322 298 322 298 314 c 0,29,30
 298 216 298 216 371 152 c 128,-1,31
 444 88 444 88 570 88 c 0,32,33
 660 88 660 88 748 131 c 128,-1,34
 836 174 836 174 898 252 c 1,35,-1
 998 168 l 1,36,37
 918 74 918 74 805 19 c 128,-1,38
 692 -36 692 -36 572 -36 c 0,39,40
 148 -36 148 -36 148 380 c 2,12,-1
EndSplineSet
EndChar

StartChar: uni0251
Encoding: 593 593 517
Width: 1158
GlyphClass: 2
Flags: W
LayerCount: 2
Fore
SplineSet
240 528 m 0,0,1
 240 326 240 326 328 209 c 128,-1,2
 416 92 416 92 550 92 c 0,3,4
 670 92 670 92 762 205 c 128,-1,5
 854 318 854 318 854 528 c 0,6,7
 854 726 854 726 765 845 c 128,-1,8
 676 964 676 964 548 964 c 0,9,10
 410 964 410 964 325 846 c 128,-1,11
 240 728 240 728 240 528 c 0,0,1
86 528 m 0,12,13
 86 786 86 786 212 939 c 128,-1,14
 338 1092 338 1092 530 1092 c 0,15,16
 646 1092 646 1092 734 1021 c 128,-1,17
 822 950 822 950 850 872 c 1,18,-1
 850 1056 l 1,19,-1
 1000 1056 l 1,20,-1
 1000 0 l 1,21,-1
 854 0 l 1,22,-1
 854 190 l 1,23,24
 816 98 816 98 729 31 c 128,-1,25
 642 -36 642 -36 530 -36 c 0,26,27
 354 -36 354 -36 220 106 c 128,-1,28
 86 248 86 248 86 528 c 0,12,13
EndSplineSet
EndChar

StartChar: uni0252
Encoding: 594 594 518
Width: 1158
GlyphClass: 2
Flags: W
LayerCount: 2
Fore
SplineSet
158 0 m 1,0,-1
 158 1056 l 1,1,-1
 308 1056 l 1,2,-1
 308 868 l 1,3,4
 336 950 336 950 423 1021 c 128,-1,5
 510 1092 510 1092 630 1092 c 0,6,7
 826 1092 826 1092 949 940 c 128,-1,8
 1072 788 1072 788 1072 528 c 0,9,10
 1072 380 1072 380 1032 268 c 128,-1,11
 992 156 992 156 926 92 c 128,-1,12
 860 28 860 28 785 -4 c 128,-1,13
 710 -36 710 -36 630 -36 c 0,14,15
 514 -36 514 -36 428 30 c 128,-1,16
 342 96 342 96 306 188 c 1,17,-1
 306 0 l 1,18,-1
 158 0 l 1,0,-1
304 528 m 0,19,20
 304 328 304 328 392 210 c 128,-1,21
 480 92 480 92 608 92 c 0,22,23
 746 92 746 92 832 209 c 128,-1,24
 918 326 918 326 918 528 c 0,25,26
 918 728 918 728 833 846 c 128,-1,27
 748 964 748 964 610 964 c 0,28,29
 482 964 482 964 393 845 c 128,-1,30
 304 726 304 726 304 528 c 0,19,20
EndSplineSet
EndChar

StartChar: uni0253
Encoding: 595 595 519
Width: 1164
GlyphClass: 2
Flags: W
LayerCount: 2
Fore
SplineSet
310 528 m 0,0,1
 310 334 310 334 396 213 c 128,-1,2
 482 92 482 92 614 92 c 0,3,4
 754 92 754 92 839 210 c 128,-1,5
 924 328 924 328 924 528 c 0,6,7
 924 722 924 722 841 843 c 128,-1,8
 758 964 758 964 616 964 c 0,9,10
 482 964 482 964 396 842 c 128,-1,11
 310 720 310 720 310 528 c 0,0,1
162 0 m 1,12,-1
 162 1086 l 2,13,14
 162 1300 162 1300 261 1418 c 128,-1,15
 360 1536 360 1536 540 1536 c 0,16,17
 646 1536 646 1536 772 1510 c 1,18,-1
 766 1380 l 1,19,20
 628 1406 628 1406 564 1406 c 0,21,22
 436 1406 436 1406 375 1314 c 128,-1,23
 314 1222 314 1222 314 1060 c 2,24,-1
 314 868 l 1,25,26
 352 962 352 962 436 1027 c 128,-1,27
 520 1092 520 1092 636 1092 c 0,28,29
 838 1092 838 1092 958 937 c 128,-1,30
 1078 782 1078 782 1078 528 c 0,31,32
 1078 262 1078 262 950 113 c 128,-1,33
 822 -36 822 -36 636 -36 c 0,34,35
 512 -36 512 -36 431 33 c 128,-1,36
 350 102 350 102 312 188 c 1,37,-1
 312 0 l 1,38,-1
 162 0 l 1,12,-1
EndSplineSet
EndChar

StartChar: uni0254
Encoding: 596 596 520
Width: 1006
GlyphClass: 2
Flags: W
LayerCount: 2
Fore
SplineSet
48 250 m 1,0,-1
 176 290 l 1,1,2
 208 212 208 212 284 152 c 128,-1,3
 360 92 360 92 450 92 c 0,4,5
 586 92 586 92 677 210 c 128,-1,6
 768 328 768 328 768 528 c 0,7,8
 768 716 768 716 681 840 c 128,-1,9
 594 964 594 964 450 964 c 0,10,11
 364 964 364 964 298 911 c 128,-1,12
 232 858 232 858 202 780 c 1,13,-1
 74 818 l 1,14,15
 108 930 108 930 209 1011 c 128,-1,16
 310 1092 310 1092 452 1092 c 0,17,18
 670 1092 670 1092 795 936 c 128,-1,19
 920 780 920 780 920 528 c 0,20,21
 920 270 920 270 792 117 c 128,-1,22
 664 -36 664 -36 452 -36 c 0,23,24
 306 -36 306 -36 197 49 c 128,-1,25
 88 134 88 134 48 250 c 1,0,-1
EndSplineSet
EndChar

StartChar: uni0255
Encoding: 597 597 521
Width: 1008
GlyphClass: 2
Flags: W
LayerCount: 2
Fore
SplineSet
476 112 m 1,0,1
 550 92 550 92 616 92 c 0,2,3
 698 92 698 92 748 125 c 128,-1,4
 798 158 798 158 798 202 c 0,5,6
 798 278 798 278 694 278 c 0,7,8
 622 278 622 278 563 228 c 128,-1,9
 504 178 504 178 476 112 c 1,0,1
86 536 m 0,10,11
 86 772 86 772 211 932 c 128,-1,12
 336 1092 336 1092 560 1092 c 0,13,14
 702 1092 702 1092 800 1009 c 128,-1,15
 898 926 898 926 932 818 c 1,16,-1
 804 780 l 1,17,18
 778 852 778 852 712 908 c 128,-1,19
 646 964 646 964 560 964 c 0,20,21
 412 964 412 964 326 841 c 128,-1,22
 240 718 240 718 240 528 c 0,23,24
 240 300 240 300 362 182 c 1,25,26
 480 406 480 406 698 406 c 0,27,28
 818 406 818 406 884 345 c 128,-1,29
 950 284 950 284 950 202 c 0,30,31
 950 100 950 100 859 32 c 128,-1,32
 768 -36 768 -36 610 -36 c 0,33,34
 496 -36 496 -36 424 -12 c 1,35,36
 392 -98 392 -98 386 -130 c 1,37,-1
 254 -98 l 1,38,39
 262 -44 262 -44 302 50 c 1,40,41
 86 200 86 200 86 536 c 0,10,11
EndSplineSet
EndChar

StartChar: uni0256
Encoding: 598 598 522
Width: 1170
GlyphClass: 2
Flags: W
LayerCount: 2
Fore
SplineSet
86 528 m 0,0,1
 86 790 86 790 214 941 c 128,-1,2
 342 1092 342 1092 530 1092 c 0,3,4
 646 1092 646 1092 730 1026 c 128,-1,5
 814 960 814 960 850 872 c 1,6,-1
 850 1524 l 1,7,-1
 1000 1524 l 1,8,-1
 1000 -70 l 2,9,10
 1000 -214 1000 -214 1045 -276 c 128,-1,11
 1090 -338 1090 -338 1178 -338 c 0,12,13
 1246 -338 1246 -338 1310 -326 c 1,14,-1
 1310 -456 l 1,15,16
 1208 -470 1208 -470 1154 -470 c 0,17,18
 1014 -470 1014 -470 934 -382 c 128,-1,19
 854 -294 854 -294 854 -80 c 2,20,-1
 854 190 l 1,21,22
 812 92 812 92 727 28 c 128,-1,23
 642 -36 642 -36 528 -36 c 0,24,25
 448 -36 448 -36 373 -4 c 128,-1,26
 298 28 298 28 232 92 c 128,-1,27
 166 156 166 156 126 268 c 128,-1,28
 86 380 86 380 86 528 c 0,0,1
240 528 m 0,29,30
 240 332 240 332 326 212 c 128,-1,31
 412 92 412 92 550 92 c 0,32,33
 678 92 678 92 766 211 c 128,-1,34
 854 330 854 330 854 528 c 256,35,36
 854 726 854 726 765 845 c 128,-1,37
 676 964 676 964 548 964 c 0,38,39
 414 964 414 964 327 846 c 128,-1,40
 240 728 240 728 240 528 c 0,29,30
EndSplineSet
EndChar

StartChar: uni0257
Encoding: 599 599 523
Width: 1170
GlyphClass: 2
Flags: W
LayerCount: 2
Fore
SplineSet
86 530 m 0,0,1
 86 792 86 792 213 942 c 128,-1,2
 340 1092 340 1092 530 1092 c 0,3,4
 644 1092 644 1092 730 1024 c 128,-1,5
 816 956 816 956 850 868 c 1,6,-1
 850 1234 l 2,7,8
 850 1382 850 1382 942 1459 c 128,-1,9
 1034 1536 1034 1536 1182 1536 c 0,10,11
 1236 1536 1236 1536 1326 1528 c 1,12,-1
 1326 1396 l 1,13,14
 1280 1402 1280 1402 1206 1402 c 0,15,16
 1112 1402 1112 1402 1056 1351 c 128,-1,17
 1000 1300 1000 1300 1000 1202 c 2,18,-1
 1000 0 l 1,19,-1
 854 0 l 1,20,-1
 854 194 l 1,21,22
 818 98 818 98 731 31 c 128,-1,23
 644 -36 644 -36 528 -36 c 0,24,25
 448 -36 448 -36 372 -3 c 128,-1,26
 296 30 296 30 230 94 c 128,-1,27
 164 158 164 158 125 271 c 128,-1,28
 86 384 86 384 86 530 c 0,0,1
240 530 m 0,29,30
 240 328 240 328 326 210 c 128,-1,31
 412 92 412 92 550 92 c 0,32,33
 676 92 676 92 765 209 c 128,-1,34
 854 326 854 326 854 530 c 0,35,36
 854 728 854 728 765 846 c 128,-1,37
 676 964 676 964 548 964 c 0,38,39
 410 964 410 964 325 846 c 128,-1,40
 240 728 240 728 240 530 c 0,29,30
EndSplineSet
EndChar

StartChar: uni0258
Encoding: 600 600 524
Width: 1108
GlyphClass: 2
Flags: W
LayerCount: 2
Fore
SplineSet
84 478 m 1,0,1
 82 504 82 504 82 558 c 0,2,3
 82 796 82 796 210 944 c 128,-1,4
 338 1092 338 1092 546 1092 c 0,5,6
 758 1092 758 1092 890 940 c 128,-1,7
 1022 788 1022 788 1022 536 c 0,8,9
 1022 272 1022 272 887 118 c 128,-1,10
 752 -36 752 -36 536 -36 c 0,11,12
 372 -36 372 -36 264 39 c 128,-1,13
 156 114 156 114 106 228 c 1,14,-1
 236 268 l 1,15,16
 276 188 276 188 355 140 c 128,-1,17
 434 92 434 92 536 92 c 0,18,19
 688 92 688 92 778 204 c 128,-1,20
 868 316 868 316 870 478 c 1,21,-1
 84 478 l 1,0,1
236 594 m 1,22,-1
 870 594 l 1,23,24
 860 748 860 748 774 856 c 128,-1,25
 688 964 688 964 546 964 c 256,26,27
 404 964 404 964 321 857 c 128,-1,28
 238 750 238 750 236 594 c 1,22,-1
EndSplineSet
EndChar

StartChar: uni025A
Encoding: 602 602 526
Width: 1294
GlyphClass: 2
Flags: W
LayerCount: 2
Fore
SplineSet
80 450 m 1,0,-1
 822 782 l 1,1,2
 728 964 728 964 532 964 c 0,3,4
 432 964 432 964 353 916 c 128,-1,5
 274 868 274 868 232 788 c 1,6,-1
 104 826 l 1,7,8
 156 946 156 946 266 1019 c 128,-1,9
 376 1092 376 1092 534 1092 c 0,10,11
 818 1092 818 1092 948 840 c 1,12,-1
 1100 918 l 1,13,14
 1148 782 1148 782 1268 782 c 0,15,16
 1316 782 1316 782 1340 788 c 1,17,-1
 1340 670 l 1,18,19
 1294 658 1294 658 1258 658 c 0,20,21
 1192 658 1192 658 1139 687 c 128,-1,22
 1086 716 1086 716 1064 758 c 1,23,-1
 996 720 l 1,24,25
 1018 640 1018 640 1018 526 c 0,26,27
 1018 282 1018 282 891 123 c 128,-1,28
 764 -36 764 -36 542 -36 c 0,29,30
 332 -36 332 -36 212 104 c 128,-1,31
 92 244 92 244 80 450 c 1,0,-1
238 388 m 1,32,33
 260 248 260 248 343 170 c 128,-1,34
 426 92 426 92 542 92 c 0,35,36
 686 92 686 92 776 208 c 128,-1,37
 866 324 866 324 866 512 c 0,38,39
 866 610 866 610 860 658 c 1,40,-1
 238 388 l 1,32,33
EndSplineSet
EndChar

StartChar: uni025B
Encoding: 603 603 527
Width: 938
GlyphClass: 2
Flags: W
LayerCount: 2
Fore
SplineSet
86 284 m 0,0,1
 86 390 86 390 151 461 c 128,-1,2
 216 532 216 532 308 560 c 1,3,-1
 308 562 l 1,4,5
 128 630 128 630 128 800 c 0,6,7
 128 928 128 928 225 1010 c 128,-1,8
 322 1092 322 1092 494 1092 c 0,9,10
 734 1092 734 1092 860 880 c 1,11,-1
 738 824 l 1,12,13
 698 886 698 886 636 925 c 128,-1,14
 574 964 574 964 498 964 c 0,15,16
 390 964 390 964 335 918 c 128,-1,17
 280 872 280 872 280 792 c 0,18,19
 280 714 280 714 343 662 c 128,-1,20
 406 610 406 610 540 610 c 2,21,-1
 624 610 l 1,22,-1
 624 496 l 1,23,-1
 540 496 l 2,24,25
 382 496 382 496 311 434 c 128,-1,26
 240 372 240 372 240 286 c 0,27,28
 240 196 240 196 314 144 c 128,-1,29
 388 92 388 92 502 92 c 0,30,31
 584 92 584 92 660 135 c 128,-1,32
 736 178 736 178 776 236 c 1,33,-1
 892 176 l 1,34,35
 834 80 834 80 730 22 c 128,-1,36
 626 -36 626 -36 500 -36 c 0,37,38
 316 -36 316 -36 201 49 c 128,-1,39
 86 134 86 134 86 284 c 0,0,1
EndSplineSet
EndChar

StartChar: uni025C
Encoding: 604 604 528
Width: 940
GlyphClass: 2
Flags: W
LayerCount: 2
Fore
SplineSet
48 176 m 1,0,-1
 162 236 l 1,1,2
 202 178 202 178 278 135 c 128,-1,3
 354 92 354 92 436 92 c 0,4,5
 550 92 550 92 625 144 c 128,-1,6
 700 196 700 196 700 286 c 0,7,8
 700 372 700 372 629 434 c 128,-1,9
 558 496 558 496 400 496 c 2,10,-1
 314 496 l 1,11,-1
 314 610 l 1,12,-1
 400 610 l 2,13,14
 534 610 534 610 597 662 c 128,-1,15
 660 714 660 714 660 792 c 0,16,17
 660 872 660 872 605 918 c 128,-1,18
 550 964 550 964 442 964 c 0,19,20
 368 964 368 964 305 925 c 128,-1,21
 242 886 242 886 202 824 c 1,22,-1
 78 880 l 1,23,24
 204 1092 204 1092 444 1092 c 0,25,26
 616 1092 616 1092 714 1010 c 128,-1,27
 812 928 812 928 812 800 c 0,28,29
 812 630 812 630 630 562 c 1,30,-1
 632 560 l 1,31,32
 724 532 724 532 789 461 c 128,-1,33
 854 390 854 390 854 284 c 0,34,35
 854 134 854 134 739 49 c 128,-1,36
 624 -36 624 -36 440 -36 c 0,37,38
 314 -36 314 -36 209 22 c 128,-1,39
 104 80 104 80 48 176 c 1,0,-1
EndSplineSet
EndChar

StartChar: uni025D
Encoding: 605 605 529
Width: 1054
GlyphClass: 2
Flags: W
LayerCount: 2
Fore
SplineSet
48 176 m 1,0,-1
 162 236 l 1,1,2
 196 182 196 182 273 137 c 128,-1,3
 350 92 350 92 432 92 c 0,4,5
 558 92 558 92 629 146 c 128,-1,6
 700 200 700 200 700 288 c 0,7,8
 700 374 700 374 627 435 c 128,-1,9
 554 496 554 496 398 496 c 2,10,-1
 314 496 l 1,11,-1
 314 610 l 1,12,-1
 398 610 l 2,13,14
 532 610 532 610 596 662 c 128,-1,15
 660 714 660 714 660 792 c 0,16,17
 660 872 660 872 605 918 c 128,-1,18
 550 964 550 964 442 964 c 0,19,20
 290 964 290 964 202 824 c 1,21,-1
 78 880 l 1,22,23
 204 1092 204 1092 444 1092 c 256,24,25
 684 1092 684 1092 778 934 c 1,26,-1
 922 1012 l 1,27,28
 946 948 946 948 994 906 c 128,-1,29
 1042 864 1042 864 1102 864 c 0,30,31
 1146 864 1146 864 1170 872 c 1,32,-1
 1170 750 l 1,33,34
 1130 740 1130 740 1090 740 c 0,35,36
 1020 740 1020 740 965 774 c 128,-1,37
 910 808 910 808 888 852 c 1,38,-1
 812 812 l 1,39,40
 812 778 812 778 810 762 c 0,41,42
 802 690 802 690 748 636 c 128,-1,43
 694 582 694 582 632 562 c 1,44,-1
 632 560 l 1,45,46
 722 532 722 532 788 462 c 128,-1,47
 854 392 854 392 854 286 c 0,48,49
 854 134 854 134 740 49 c 128,-1,50
 626 -36 626 -36 434 -36 c 0,51,52
 308 -36 308 -36 204 25 c 128,-1,53
 100 86 100 86 48 176 c 1,0,-1
EndSplineSet
EndChar

StartChar: uni025E
Encoding: 606 606 530
Width: 1106
GlyphClass: 2
Flags: W
LayerCount: 2
Fore
SplineSet
86 530 m 0,0,1
 86 784 86 784 215 938 c 128,-1,2
 344 1092 344 1092 578 1092 c 0,3,4
 750 1092 750 1092 862 1012 c 128,-1,5
 974 932 974 932 974 792 c 0,6,7
 974 702 974 702 927 639 c 128,-1,8
 880 576 880 576 808 548 c 1,9,-1
 808 546 l 1,10,11
 894 520 894 520 954 454 c 128,-1,12
 1014 388 1014 388 1014 282 c 0,13,14
 1014 128 1014 128 897 46 c 128,-1,15
 780 -36 780 -36 580 -36 c 0,16,17
 360 -36 360 -36 223 113 c 128,-1,18
 86 262 86 262 86 530 c 0,0,1
240 530 m 0,19,20
 240 406 240 406 272 317 c 128,-1,21
 304 228 304 228 358 181 c 128,-1,22
 412 134 412 134 468 113 c 128,-1,23
 524 92 524 92 582 92 c 0,24,25
 722 92 722 92 792 142 c 128,-1,26
 862 192 862 192 862 278 c 0,27,28
 862 358 862 358 796 418 c 128,-1,29
 730 478 730 478 580 478 c 2,30,-1
 510 478 l 1,31,-1
 510 598 l 1,32,-1
 580 598 l 2,33,34
 708 598 708 598 764 653 c 128,-1,35
 820 708 820 708 820 782 c 0,36,37
 820 870 820 870 755 917 c 128,-1,38
 690 964 690 964 578 964 c 0,39,40
 436 964 436 964 338 855 c 128,-1,41
 240 746 240 746 240 530 c 0,19,20
EndSplineSet
EndChar

StartChar: uni025F
Encoding: 607 607 531
Width: 550
GlyphClass: 2
Flags: W
LayerCount: 2
Fore
SplineSet
-22 538 m 1,0,-1
 -22 662 l 1,1,-1
 204 662 l 1,2,-1
 204 1056 l 1,3,-1
 356 1056 l 1,4,-1
 356 662 l 1,5,-1
 562 662 l 1,6,-1
 562 538 l 1,7,-1
 356 538 l 1,8,-1
 356 -98 l 2,9,10
 356 -276 356 -276 277 -369 c 128,-1,11
 198 -462 198 -462 52 -462 c 2,12,-1
 -18 -462 l 1,13,-1
 -18 -334 l 1,14,-1
 28 -334 l 2,15,16
 204 -334 204 -334 204 -90 c 2,17,-1
 204 538 l 1,18,-1
 -22 538 l 1,0,-1
EndSplineSet
EndChar

StartChar: uni0260
Encoding: 608 608 532
Width: 1144
GlyphClass: 2
Flags: W
LayerCount: 2
Fore
SplineSet
86 548 m 0,0,1
 86 790 86 790 208 941 c 128,-1,2
 330 1092 330 1092 522 1092 c 0,3,4
 642 1092 642 1092 719 1030 c 128,-1,5
 796 968 796 968 832 884 c 1,6,-1
 832 1234 l 2,7,8
 832 1378 832 1378 926 1457 c 128,-1,9
 1020 1536 1020 1536 1164 1536 c 0,10,11
 1218 1536 1218 1536 1306 1528 c 1,12,-1
 1306 1400 l 1,13,14
 1258 1406 1258 1406 1190 1406 c 0,15,16
 1100 1406 1100 1406 1041 1353 c 128,-1,17
 982 1300 982 1300 982 1202 c 2,18,-1
 982 124 l 2,19,20
 982 -6 982 -6 963 -103 c 128,-1,21
 944 -200 944 -200 898 -287 c 128,-1,22
 852 -374 852 -374 760 -422 c 128,-1,23
 668 -470 668 -470 532 -470 c 0,24,25
 278 -470 278 -470 140 -276 c 1,26,-1
 246 -208 l 1,27,28
 286 -250 286 -250 317 -274 c 128,-1,29
 348 -298 348 -298 408 -322 c 128,-1,30
 468 -346 468 -346 538 -346 c 0,31,32
 690 -346 690 -346 760 -227 c 128,-1,33
 830 -108 830 -108 830 66 c 2,34,-1
 832 206 l 1,35,36
 792 116 792 116 715 60 c 128,-1,37
 638 4 638 4 526 4 c 0,38,39
 330 4 330 4 208 153 c 128,-1,40
 86 302 86 302 86 548 c 0,0,1
240 548 m 0,41,42
 240 354 240 354 324 243 c 128,-1,43
 408 132 408 132 538 132 c 0,44,45
 676 132 676 132 754 243 c 128,-1,46
 832 354 832 354 832 550 c 0,47,48
 832 738 832 738 752 851 c 128,-1,49
 672 964 672 964 540 964 c 0,50,51
 406 964 406 964 323 849 c 128,-1,52
 240 734 240 734 240 548 c 0,41,42
EndSplineSet
EndChar

StartChar: uni0262
Encoding: 610 610 534
Width: 1144
GlyphClass: 2
Flags: W
LayerCount: 2
Fore
SplineSet
86 526 m 0,0,1
 86 782 86 782 221 937 c 128,-1,2
 356 1092 356 1092 592 1092 c 0,3,4
 852 1092 852 1092 988 852 c 1,5,-1
 862 798 l 1,6,7
 756 962 756 962 592 962 c 0,8,9
 430 962 430 962 335 844 c 128,-1,10
 240 726 240 726 240 526 c 256,11,12
 240 326 240 326 334 210 c 128,-1,13
 428 94 428 94 588 94 c 0,14,15
 726 94 726 94 805 178 c 128,-1,16
 884 262 884 262 884 378 c 2,17,-1
 884 452 l 1,18,-1
 566 452 l 1,19,-1
 566 576 l 1,20,-1
 1024 576 l 1,21,-1
 1024 0 l 1,22,-1
 908 0 l 1,23,-1
 902 142 l 1,24,25
 870 70 870 70 785 17 c 128,-1,26
 700 -36 700 -36 580 -36 c 0,27,28
 358 -36 358 -36 222 113 c 128,-1,29
 86 262 86 262 86 526 c 0,0,1
EndSplineSet
EndChar

StartChar: uni0263
Encoding: 611 611 535
Width: 992
GlyphClass: 2
Flags: W
LayerCount: 2
Fore
SplineSet
16 1056 m 1,0,-1
 182 1056 l 1,1,-1
 472 278 l 1,2,-1
 492 216 l 1,3,-1
 494 216 l 1,4,-1
 518 274 l 1,5,-1
 808 1056 l 1,6,-1
 976 1056 l 1,7,-1
 596 112 l 1,8,9
 752 -64 752 -64 752 -206 c 0,10,11
 752 -320 752 -320 679 -395 c 128,-1,12
 606 -470 606 -470 494 -470 c 0,13,14
 386 -470 386 -470 314 -398 c 128,-1,15
 242 -326 242 -326 242 -206 c 0,16,17
 242 -74 242 -74 394 108 c 1,18,-1
 16 1056 l 1,0,-1
368 -208 m 0,19,20
 368 -270 368 -270 403 -316 c 128,-1,21
 438 -362 438 -362 494 -362 c 0,22,23
 554 -362 554 -362 589 -316 c 128,-1,24
 624 -270 624 -270 624 -208 c 0,25,26
 624 -96 624 -96 494 48 c 1,27,28
 368 -84 368 -84 368 -208 c 0,19,20
EndSplineSet
Substitution2: "'sups' Superscript lookup 5 subtable" uni02E0
Substitution2: "'aalt' Access All Alternates lookup 0 subtable" uni02E0
EndChar

StartChar: uni0264
Encoding: 612 612 536
Width: 954
GlyphClass: 2
Flags: W
LayerCount: 2
Fore
SplineSet
476 688 m 1,0,1
 398 590 398 590 357 504 c 128,-1,2
 316 418 316 418 316 306 c 0,3,4
 316 212 316 212 360 153 c 128,-1,5
 404 94 404 94 482 94 c 0,6,7
 556 94 556 94 598 157 c 128,-1,8
 640 220 640 220 640 306 c 0,9,10
 640 416 640 416 600 500 c 128,-1,11
 560 584 560 584 476 688 c 1,0,1
56 952 m 1,12,-1
 56 1078 l 1,13,14
 112 1092 112 1092 158 1092 c 0,15,16
 256 1092 256 1092 324 1045 c 128,-1,17
 392 998 392 998 476 902 c 1,18,19
 558 998 558 998 632 1045 c 128,-1,20
 706 1092 706 1092 796 1092 c 0,21,22
 848 1092 848 1092 898 1080 c 1,23,-1
 898 950 l 1,24,25
 852 962 852 962 800 962 c 0,26,27
 734 962 734 962 682 922 c 128,-1,28
 630 882 630 882 568 802 c 1,29,30
 682 664 682 664 737 556 c 128,-1,31
 792 448 792 448 792 304 c 0,32,33
 792 156 792 156 709 60 c 128,-1,34
 626 -36 626 -36 482 -36 c 0,35,36
 330 -36 330 -36 246 61 c 128,-1,37
 162 158 162 158 162 304 c 0,38,39
 162 406 162 406 200 504 c 128,-1,40
 238 602 238 602 276 657 c 128,-1,41
 314 712 314 712 388 802 c 1,42,43
 330 882 330 882 276 922 c 128,-1,44
 222 962 222 962 154 962 c 0,45,46
 136 962 136 962 56 952 c 1,12,-1
EndSplineSet
EndChar

StartChar: uni0265
Encoding: 613 613 537
Width: 1138
GlyphClass: 2
Flags: W
LayerCount: 2
Fore
SplineSet
148 372 m 2,0,-1
 148 1056 l 1,1,-1
 298 1056 l 1,2,-1
 298 396 l 2,3,4
 298 92 298 92 522 92 c 0,5,6
 640 92 640 92 729 193 c 128,-1,7
 818 294 818 294 818 430 c 2,8,-1
 818 1056 l 1,9,-1
 970 1056 l 1,10,-1
 970 -462 l 1,11,-1
 818 -462 l 1,12,-1
 818 170 l 1,13,-1
 816 170 l 1,14,15
 780 88 780 88 693 26 c 128,-1,16
 606 -36 606 -36 490 -36 c 0,17,18
 344 -36 344 -36 246 56 c 128,-1,19
 148 148 148 148 148 372 c 2,0,-1
EndSplineSet
EndChar

StartChar: uni0266
Encoding: 614 614 538
Width: 1138
GlyphClass: 2
Flags: W
LayerCount: 2
Fore
SplineSet
168 0 m 1,0,-1
 168 1204 l 2,1,2
 168 1364 168 1364 265 1450 c 128,-1,3
 362 1536 362 1536 510 1536 c 0,4,5
 608 1536 608 1536 712 1522 c 1,6,-1
 712 1394 l 1,7,8
 630 1406 630 1406 534 1406 c 0,9,10
 430 1406 430 1406 375 1336 c 128,-1,11
 320 1266 320 1266 320 1178 c 2,12,-1
 320 886 l 1,13,-1
 322 886 l 1,14,15
 362 970 362 970 448 1031 c 128,-1,16
 534 1092 534 1092 648 1092 c 0,17,18
 992 1092 992 1092 992 682 c 2,19,-1
 992 0 l 1,20,-1
 840 0 l 1,21,-1
 840 658 l 2,22,23
 840 964 840 964 620 964 c 0,24,25
 498 964 498 964 409 864 c 128,-1,26
 320 764 320 764 320 626 c 2,27,-1
 320 0 l 1,28,-1
 168 0 l 1,0,-1
EndSplineSet
Substitution2: "'sups' Superscript lookup 5 subtable" uni02B1
Substitution2: "'aalt' Access All Alternates lookup 0 subtable" uni02B1
EndChar

StartChar: uni0267
Encoding: 615 615 539
Width: 1148
GlyphClass: 2
Flags: W
LayerCount: 2
Fore
SplineSet
168 0 m 1,0,-1
 168 1202 l 2,1,2
 168 1364 168 1364 265 1450 c 128,-1,3
 362 1536 362 1536 510 1536 c 0,4,5
 608 1536 608 1536 712 1522 c 1,6,-1
 712 1394 l 1,7,8
 630 1406 630 1406 534 1406 c 0,9,10
 428 1406 428 1406 374 1336 c 128,-1,11
 320 1266 320 1266 320 1170 c 2,12,-1
 320 886 l 1,13,-1
 322 886 l 1,14,15
 362 970 362 970 448 1031 c 128,-1,16
 534 1092 534 1092 648 1092 c 0,17,18
 992 1092 992 1092 992 682 c 2,19,-1
 992 -98 l 2,20,21
 992 -282 992 -282 917 -376 c 128,-1,22
 842 -470 842 -470 670 -470 c 0,23,24
 652 -470 652 -470 628 -469 c 128,-1,25
 604 -468 604 -468 575 -466 c 128,-1,26
 546 -464 546 -464 530 -464 c 1,27,-1
 530 -338 l 1,28,29
 608 -342 608 -342 644 -342 c 0,30,31
 746 -342 746 -342 793 -287 c 128,-1,32
 840 -232 840 -232 840 -92 c 2,33,-1
 840 658 l 2,34,35
 840 964 840 964 620 964 c 0,36,37
 500 964 500 964 410 862 c 128,-1,38
 320 760 320 760 320 626 c 2,39,-1
 320 0 l 1,40,-1
 168 0 l 1,0,-1
EndSplineSet
EndChar

StartChar: uni0268
Encoding: 616 616 540
Width: 540
GlyphClass: 2
Flags: W
LayerCount: 2
Fore
SplineSet
174 1294 m 1,0,-1
 174 1490 l 1,1,-1
 368 1490 l 1,2,-1
 368 1294 l 1,3,-1
 174 1294 l 1,0,-1
26 524 m 1,4,-1
 26 646 l 1,5,-1
 196 646 l 1,6,-1
 196 1056 l 1,7,-1
 348 1056 l 1,8,-1
 348 646 l 1,9,-1
 514 646 l 1,10,-1
 514 524 l 1,11,-1
 348 524 l 1,12,-1
 348 0 l 1,13,-1
 196 0 l 1,14,-1
 196 524 l 1,15,-1
 26 524 l 1,4,-1
EndSplineSet
EndChar

StartChar: uni0269
Encoding: 617 617 541
Width: 654
GlyphClass: 2
Flags: W
LayerCount: 2
Fore
SplineSet
154 290 m 2,0,-1
 154 1056 l 1,1,-1
 304 1056 l 1,2,-1
 304 298 l 2,3,4
 304 98 304 98 466 98 c 0,5,6
 546 98 546 98 608 108 c 1,7,-1
 608 -22 l 1,8,9
 498 -36 498 -36 438 -36 c 0,10,11
 304 -36 304 -36 229 46 c 128,-1,12
 154 128 154 128 154 290 c 2,0,-1
EndSplineSet
EndChar

StartChar: uni026B
Encoding: 619 619 543
Width: 502
GlyphClass: 2
Flags: W
LayerCount: 2
Fore
SplineSet
-32 730 m 1,0,-1
 -32 858 l 1,1,2
 52 888 52 888 110 888 c 0,3,4
 140 888 140 888 174 880 c 1,5,-1
 174 1524 l 1,6,-1
 326 1524 l 1,7,-1
 326 850 l 1,8,9
 362 844 362 844 400 844 c 0,10,11
 410 844 410 844 420 844 c 0,12,13
 480 846 480 846 534 872 c 1,14,-1
 534 742 l 1,15,16
 484 718 484 718 422 716 c 0,17,18
 416 716 416 716 408 716 c 0,19,20
 372 716 372 716 326 724 c 1,21,-1
 326 0 l 1,22,-1
 174 0 l 1,23,-1
 174 752 l 1,24,25
 140 760 140 760 110 760 c 0,26,27
 52 760 52 760 -32 730 c 1,0,-1
EndSplineSet
EndChar

